<?xml version="1.0" standalone="no"?>
<!DOCTYPE svg PUBLIC "-//W3C//DTD SVG 1.1//EN" "http://www.w3.org/Graphics/SVG/1.1/DTD/svg11.dtd" >
<svg>
<metadata>
Created by FontForge 20090622 at Tue Dec 17 02:25:02 2019
 By deploy user
Copyright (c) 2003 Linotype Library GmbH, www.linotype.com. All rights reserved. This software may not be reproduced, used, displayed, modified, disclosed or transferred without the express written approval of Linotype Library GmbH. Zapfino is a trademark of Heidelberger Druckmaschinen AG, exclusively licensed through Linotype Library GmbH, and may be registered in certain jurisdictions. The typeface is original artwork of Hermann Zapf. The design may be protected in certain jurisdictions.
</metadata>
<defs>
<font id="ZapfinoExtraLT-One" horiz-adv-x="230" >
  <font-face 
    font-family="Zapfino Extra LT One"
    font-weight="400"
    font-stretch="normal"
    units-per-em="1000"
    panose-1="3 3 4 2 4 7 7 7 12 3"
    ascent="800"
    descent="-200"
    x-height="215"
    cap-height="446"
    bbox="-655 -606 1067.67 750"
    underline-thickness="50"
    underline-position="-50"
    unicode-range="U+000D-U+FB02"
  />
<missing-glyph horiz-adv-x="200" 
 />
    <glyph glyph-name="IJ" unicode="IJ" horiz-adv-x="501" 
d="M319 356q-114 -207 -197 -331q-15 -21 -37 -25q-27 -4 -47 -2q-2 1 -2 5q16 2 28 17q43 52 129 191t104 193q2 6 2 11q0 11 -27 11q-34 0 -55 -5l-3 1q2 8 6 12q98 4 152 12q5 -3 5 -8q0 -2 -6 -4q-10 -3 -23 -25q-3 -7 -13.5 -25t-12.5 -22q62 83 342 83q4 -1 4 -5
t-4 -4q-8 1 -18 1q-15 0 -23 -9q-12 -16 -83 -144.5t-100 -173.5q-136 -224 -345 -224q-30 0 -65 9.5t-55 22.5q-10 6 -9 16q0 5 2 22.5t2 26.5l7 2q1 -42 35.5 -65.5t93.5 -23.5q40 0 73.5 10t74 38.5t84.5 85.5t93 144q101 178 133 251q3 10 -5 10q-49 0 -100 -12.5
t-90 -41t-39 -66.5q0 -8 2 -14q2 -3 -2 -3q-16 11 -16 37q0 11 5 21z" />
    <glyph glyph-name="ij" unicode="ij" horiz-adv-x="335" 
d="M233 354q0 -12 -11 -24t-23 -12t-12 12q0 13 10 25t23 12t13 -13zM154 189q-28 -43 -50 -90t-22 -68q0 -23 22 -23q20 0 49.5 22.5t54.5 51.5q12 24 42 90q3 8 3 15q0 9 -8 9q-1 0 -7 -1.5l-14 -3.5t-14 -2q-2 0 -3.5 2t0 4t4.5 3q25 4 44 10.5t28 10t14 3.5q10 0 10 -11
q0 -6 -4 -14q-15 -27 -55 -106t-67 -126l-111 -180q10 9 90 72t135.5 115.5t89.5 102.5q24 35 24 65q0 14 -6 22q-3 6 0 6q2 0 5 -2q13 -10 13 -40q0 -52 -59 -106q-54 -51 -147.5 -128l-135.5 -114q-26 -23 -51 -59t-63 -71q-2 -2 -6 -2q-10 0 -10 24q0 10 4 15
q19 27 55.5 56t60.5 72q70 124 130 249q-28 -32 -59 -49.5t-54 -17.5q-39 0 -39 34q0 15 10 39t25 52t19 39q7 16 7 20q0 10 -7 10q-8 0 -29 -6q-2 0 -3.5 2t0 4t4.5 3q66 22 75 22q10 0 10 -11q0 -6 -4 -14zM360 350q0 -12 -11 -24t-23 -12t-12 12q0 13 10 25t23 12t13 -13
z" />
    <glyph glyph-name="napostrophe" unicode="&#x22;n" horiz-adv-x="261" 
d="M363 129q-41 -57 -96 -99.5t-103 -42.5q-32 0 -32 21q0 17 15.5 47.5t38 69t31.5 59.5q2 5 0 8.5t-6 0.5q-22 -14 -56.5 -45t-53.5 -52l-26.5 -44.5l-29.5 -48.5q-4 -6 -6 -6q-5 0 -8.5 10t-3.5 15q0 9 40 59q47 96 62 131q3 5 9 5t11 -5t5 -11q0 -2 -6.5 -13.5
l-17.5 -31t-19 -37.5q120 108 142 108q4 0 7.5 -4.5t3.5 -8.5t-5 -12q-30 -44 -61 -100t-31 -81q0 -21 21 -21q32 0 86.5 44.5t83.5 90.5q3 3 6 1t-1 -7zM180 387q0 15 -7 29t-13 14q-3 0 -6 -3q-20 -18 -20 -23q0 -1 8.5 -10.5t8.5 -33.5q0 -14 -3 -26t-13 -25l-14 -18
t-20 -20t-18 -17t-1.5 -4.5t3 -3t5.5 1.5q30 28 44.5 43.5t30 43t15.5 52.5z" />
    <glyph glyph-name="fi" unicode="fi" horiz-adv-x="366" 
d="M432 348q0 -12 -11 -24t-23 -12t-12 12q0 14 7.5 25.5t20.5 11.5q18 0 18 -13zM487 484q0 -18 -17 -36l-12 -16q-4 -7 -7 0q0 3 1 4q9 11 9 19t-13.5 17.5t-34.5 9.5q-75 0 -164 -143q-40 -65 -77 -133q69 0 106 1q20 1 42.5 3.5t35.5 2.5q4 0 4 -3q0 -2 -6.5 -11
l-19.5 -28t-24 -37q-56 -89 -56 -121q0 -23 20 -23q9 0 14 2q100 35 180 140q3 6 6 2q2 -2 -1 -7q-74 -94 -173 -140q-38 -18 -60 -18q-28 0 -28 25q0 37 98 186q8 11 8 14q0 4 -6 4q-93 0 -145 -1q-129 -237 -142 -258q-74 -125 -152 -212q-68 -76 -133 -76
q-51 0 -77.5 47.5t-26.5 103.5q0 20 13 42q15 28 36 47q5 4 6 -1q0 -2 -2 -4q-22 -17 -22 -64q0 -29 9 -63t31.5 -63t52.5 -29q37 0 79 44q28 30 58 74t43 67.5l45 82.5l66 122l76 139q-43 -1 -70 -1q-16 0 -23 7q-2 2 -2 3q0 2 7 2q61 -1 94 -1q37 63 58 95q86 128 184 187
q39 23 70 23q15 0 28.5 -6.5t13.5 -20.5z" />
    <glyph glyph-name="fl" unicode="fl" horiz-adv-x="394" 
d="M709 646q-9 -88 -119 -215t-227 -191l-17.5 -30.5t-19.5 -35l-16.5 -31.5t-16.5 -33.5l-12 -28t-9.5 -28t-2.5 -20.5q0 -31 28 -31q66 0 172 130q6 6 7 4t-2 -8q-110 -144 -203 -144q-44 0 -44 43q0 13 4.5 28.5t16.5 38t20.5 36.5l29.5 47.5t29 47.5q-66 -21 -156 -27
q-98 -183 -149 -270q-80 -136 -152 -219q-60 -69 -138.5 -117t-154.5 -48q-69 0 -112 39t-43 109q0 36 10 67q5 9 5 1v-4q-5 -22 -5 -41q0 -68 52 -99t123 -31q150 0 269 147q44 55 132 231l122 233q-27 -1 -71 -1q-11 0 -22 3.5t-11 6.5q0 2 5 2h106q71 137 136 209
q66 73 105 105t75 32q34 0 34 -27q0 -16 7 -23q38 57 84 95q22 19 59 42.5t54 23.5q18 0 18 -18zM488 493q-22 28 -59 28q-74 0 -154 -127q-17 -27 -100 -186q91 3 158 27l42.5 72.5l55.5 95t57 90.5zM666 619q0 20 -12 20q-13 0 -46 -35.5t-46 -53.5q-35 -50 -191 -297
q108 59 201.5 179.5t93.5 186.5z" />
    <glyph glyph-name=".notdef" horiz-adv-x="200" 
 />
    <glyph glyph-name=".null" horiz-adv-x="500" 
 />
    <glyph glyph-name=".null" horiz-adv-x="500" 
 />
    <glyph glyph-name="nonmarkingreturn" horiz-adv-x="333" 
 />
    <glyph glyph-name="CR" unicode="&#xd;" horiz-adv-x="0" 
 />
    <glyph glyph-name="space" unicode=" " horiz-adv-x="200" 
 />
    <glyph glyph-name="exclam" unicode="!" horiz-adv-x="220" 
d="M340 401q4 -1 3 -4.5t-4 -3.5q-13 0 -23 -8q-40 -33 -79 -104t-88 -183q-1 -4 -4.5 -3t-3.5 5q62 176 114 276q15 31 48 31q21 0 37 -6zM152 29q0 -14 -10 -24.5t-23 -10.5q-19 0 -19 19q0 16 7.5 28t22.5 12q22 0 22 -24z" />
    <glyph glyph-name="quotedbl" unicode="&#x22;" horiz-adv-x="327" 
d="M426 460q0 -4 -3 -7q-25 -38 -83 -113t-88 -120q-4 -6 -10 -2q-3 3 1 7l45 75.5l53.5 88.5t50.5 74q5 8 17 8q17 0 17 -11zM353 465q0 -4 -3 -7q-26 -39 -83.5 -113t-90.5 -122q-3 -6 -9 -2q-4 3 0 10q35 49 81.5 127t70.5 112q7 9 16 9q18 0 18 -14z" />
    <glyph glyph-name="numbersign" unicode="#" horiz-adv-x="329" 
d="M409 413q-30 -40 -70 -100q33 2 48 3q4 0 4 -3q-24 -21 -27 -24q-7 -7 -13 -7q-20 0 -31 -1l-64 -104q54 0 54 -15q0 -3 -3 -7.5l-8 -11.5t-7 -11q-9 8 -58 8q-36 -63 -63 -117q-4 -8 -8 -8q-8 0 -8 11q0 5 4 10l64 104q-33 0 -62 -4q-43 -74 -66 -121q-5 -12 -12 -12
q-6 0 -6 13q0 4 3 9l68 109q-9 -1 -16.5 -2.5t-11.5 -2t-6.5 -1t-4.5 -0.5q-4 0 -4 3q18 9 22 23q4 12 11 13q24 3 33 4l65 104q-23 -2 -43 -5q-4 0 -4 3q0 5 18 30q5 6 14 6q5 0 17 0.5t19 0.5l49 80q14 21 20 11q3 -4 -1 -8l-57 -83l62 3l28 43.5l26 40.5l13 21
q6 11 13.5 9t-1.5 -14zM309 281l-61 -4q-39 -59 -65 -104q20 2 62 4z" />
    <glyph glyph-name="dollar" unicode="$" horiz-adv-x="372" 
d="M433 498l-56 -90q9 -14 9 -39q0 -9 -10 -23q-9 -13 -10 -13q-5 0 -5 6q0 17 -6 32l-72 -119q48 -15 70 -32t22 -55q0 -68 -79 -133.5t-173 -65.5q-30 -61 -65 -159q-3 -9 -7 -2q-3 4 -3 9q0 34 62 154q-70 9 -75 56q0 25 -2 41q0 5 2 6q4 1 5 -4q3 -28 28.5 -48t56.5 -24
l129 227q-22 8 -65 21q-28 8 -28 32q0 35 49.5 101t108.5 66q33 0 51 -23q46 78 54 83q9 7 9 -4zM348 383q-21 34 -57 34q-35 0 -63.5 -32.5t-28.5 -66.5q0 -24 19 -37.5t55 -25.5zM329 143q0 31 -17 48t-49 28q-76 -130 -126 -226q14 -2 33 -2q68 0 113.5 41.5t45.5 110.5z
" />
    <glyph glyph-name="percent" unicode="%" horiz-adv-x="619" 
d="M618 184q-9 -1 -32.5 -3t-33.5 -3t-7 -7q3 -5 3 -18q0 -51 -41.5 -102.5t-88.5 -51.5q-37 0 -37 39q0 57 62 117q-74 -40 -173 -110.5t-173 -136.5q-2 0 -2 2q0 12 -7 19q0 2 6 10q148 137 241.5 237.5t124 146.5t30.5 68q0 17 -10.5 23t-32.5 6q-24 0 -73.5 -8l-55.5 -9
q-10 0 -15 5q-23 -12 -50.5 -53.5t-27.5 -86.5q0 -28 20 -28q33 0 62.5 40.5t29.5 95.5q0 16 -6 20q0 5 4 5q5 -3 19 -6q12 -4 12 -27q0 -37 -43 -88t-90 -51q-40 0 -40 37t28 82t80 63q-1 7 -1 31q0 3 3 3t4 -3q6 -8 18 -8q5 0 53.5 6t67.5 6q30 0 45 -8.5t15 -31.5
t-20.5 -58.5t-99.5 -128t-220 -239.5q219 158 317 205q2 0 3 -2.5t-1 -3.5q-30 -12 -51 -57t-21 -78t23 -33q26 0 54 38t28 95q0 32 -21 40q-4 2 -4 5t4 5q11 5 19 10q0 1 3 1q4 0 7 -3q19 -13 92 -13q3 0 0 -5z" />
    <glyph glyph-name="ampersand" unicode="&#x26;" horiz-adv-x="830" 
d="M786 174q0 -65 -58 -113.5t-131 -48.5q-42 0 -75 21q-64 -33 -140 -33q-58 0 -96 25.5t-38 79.5q0 63 65 122q24 22 78.5 58t63.5 43q14 53 41 101q-169 0 -291 -105t-122 -251q0 -98 70.5 -147.5t185.5 -49.5q142 0 239 80q7 6 8 2q0 -1 -2 -5q-19 -30 -90.5 -57
t-159.5 -27q-119 0 -202 55.5t-83 164.5q0 95 65.5 175.5t168.5 125.5t216 45q31 51 52 51q15 0 15 -16t-11 -40q64 -11 101 -47t37 -97q0 -64 -41 -129t-98 -104q31 -24 74 -24q51 0 91.5 32t40.5 94q0 35 -19 57.5t-42 25.5q-5 0 -2 3q1 1 2 1q5 0 17.5 2.5t16.5 2.5
q24 0 38.5 -20.5t14.5 -52.5zM674 276q0 55 -33.5 96t-88.5 52q-26 -54 -95 -118q-4 -17 -4 -41q0 -65 26 -121t69 -87q61 42 93.5 101t32.5 118zM515 39q-36 25 -54 76t-18 110q0 44 6 75q-86 -78 -95 -87q-76 -81 -76 -134q0 -72 104 -72q75 0 133 32zM547 425
q-17 4 -46 4q-26 -47 -37 -94q25 17 49.5 43t33.5 47zM556 460q0 13 -11 13q-20 0 -41 -38q23 0 46 -4q6 13 6 29z" />
    <glyph glyph-name="quotesingle" unicode="'" horiz-adv-x="218" 
d="M328 462q0 -12 -67 -100q-42 -56 -69 -105q-2 -4 -6 -4t-5.5 3t0.5 7l56 104q33 60 58 98q7 9 16 9q4 0 10.5 -4t6.5 -8z" />
    <glyph glyph-name="parenleft" unicode="(" horiz-adv-x="366" 
d="M456 503q-59 -25 -123.5 -96.5t-106.5 -142t-66 -128.5q-30 -72 -30 -116q0 -43 31 -68q4 -2 1.5 -5.5t-5.5 -0.5q-57 36 -57 102q0 25 11 60q39 120 135 234.5t207 167.5q5 0 6 -3q0 -3 -3 -4z" />
    <glyph glyph-name="parenright" unicode=")" horiz-adv-x="406" 
d="M474 398q0 -50 -35 -124q-51 -108 -135 -204.5t-176 -122.5q-7 0 -8 3q0 3 5 4q43 12 89.5 55t84.5 98.5t64.5 101.5t43.5 83q43 92 43 149q0 37 -22 58q-5 5 0 7q2 0 4 -1q42 -37 42 -107z" />
    <glyph glyph-name="asterisk" unicode="*" horiz-adv-x="254" 
d="M348 330q0 -13 -14 -12q-17 1 -60 1q-8 0 -2 -6q35 -41 38 -50q2 -7 -1.5 -11t-8.5 -3t-7 6q-5 13 -30 55q-3 6 -7 -3q-16 -30 -26 -56q-5 -12 -10 -12q-14 0 -14 7q0 4 6 13q18 27 36 51q6 8 -3 6q-1 0 -29 -6.5l-37 -8.5q-9 0 -9 10q0 2 3.5 6t5.5 5q20 2 66 2q7 0 4 5
q-7 10 -38 47q-3 4 1 9t9 5q7 0 11 -8l24 -47q3 -6 6 0q9 16 28 59q6 12 15 12q5 0 7.5 -6t-1.5 -10q-18 -21 -41 -57q-3 -4 -1.5 -5.5t7.5 -0.5t17 3l23 4t15 3q17 3 17 -7z" />
    <glyph glyph-name="plus" unicode="+" horiz-adv-x="400" 
d="M351 112q-39 9 -104 9q-33 -58 -52 -109l-23 17l53 93q-55 0 -91 -2l-8 25q6 -1 109 -3l51 90l29 -6q-38 -49 -57 -84q65 0 92 -9z" />
    <glyph glyph-name="comma" unicode="," horiz-adv-x="210" 
d="M174 69q0 -10 -8 -18q-110 -110 -169 -177q-3 -3 -7.5 -3.5t-5.5 5.5q0 5 3 8q66 75 166 209q4 7 11 7q10 0 10 -31z" />
    <glyph glyph-name="hyphen" unicode="-" horiz-adv-x="316" 
d="M316 136q0 -8 -13 -8t-68.5 -0.5t-84.5 -0.5q-10 0 -10 6q0 9 12 9q7 0 27.5 -0.5t32.5 -0.5q21 0 53.5 1t39.5 1q11 0 11 -7z" />
    <glyph glyph-name="period" unicode="." 
d="M155 44q0 -12 -15 -30.5t-30 -18.5q-18 0 -18 16q0 19 13.5 34.5t30.5 15.5q19 0 19 -17z" />
    <glyph glyph-name="slash" unicode="/" horiz-adv-x="368" 
d="M440 548l-324 -704q-2 -4 -7 -6.5t-9 -1t-4 6.5q0 7 81.5 183.5l160 344t82.5 174.5q3 10 14 10q6 0 6 -7z" />
    <glyph glyph-name="zero" unicode="0" horiz-adv-x="439" 
d="M486 354q0 -68 -41 -153t-111.5 -149t-141.5 -64q-97 0 -97 86q0 53 34.5 120.5t90.5 129.5q40 45 84 62q88 35 130 57q19 -3 35.5 -23.5t16.5 -65.5zM442 330q0 80 -46 80q-21 0 -60.5 -19t-75.5 -59q-62 -68 -87.5 -134t-25.5 -113q0 -38 18 -59.5t48 -21.5
q83 0 156 99.5t73 226.5z" />
    <glyph glyph-name="one" unicode="1" horiz-adv-x="270" 
d="M383 442l2 -3q-125 -171 -228 -369q-15 -29 -15 -57q0 -19 11 -33q7 -4 1 -9q-3 -2 -5 1q-5 6 -15 19l-14 18.5t-8 14t-4 16.5q0 22 11 44q60 124 200 316l1 3l-1 2q-3 0 -4 -2q-4 -2 -201 -124q-4 8 -4 17q121 62 230 137q28 4 43 9z" />
    <glyph glyph-name="two" unicode="2" horiz-adv-x="417" 
d="M161 53q-16 2 -43 2q-52 0 -75.5 -5.5t-23.5 -21.5q0 -17 33 -17q59 0 109 42zM382 0l-2 -1q-45 38 -205 53q-77 -59 -129 -59q-43 0 -43 21q0 26 41 48t95 22q47 0 61 -1q212 170 212 259q0 67 -62 67q-44 0 -72 -19.5t-59 -57.5q-3 -4 -6 -1.5t-1 6.5q90 108 174 108
q71 0 71 -67q0 -52 -77 -137t-168 -158q129 -10 169 -22q12 -3 12 -16q-4 -28 -11 -45z" />
    <glyph glyph-name="three" unicode="3" horiz-adv-x="350" 
d="M317 438q41 -2 66.5 -18.5t25.5 -44.5q0 -35 -65 -76q-36 -22 -47 -32.5t-11 -23.5q0 -14 30 -49q1 -2 5 -6.5t5.5 -6.5l4.5 -6t4.5 -7t3 -7.5t2 -9t0.5 -9.5q0 -55 -75 -114t-162 -59q-88 0 -88 68q0 20 8 38l4 1v-14q7 -68 102 -68q69 0 119 33t50 86q0 28 -36 72
q-24 29 -24 41q0 4 0.5 7t2.5 6t4 5.5t7 6.5t9.5 7t13.5 8.5l17.5 10.5l22.5 13.5l27 16.5q31 19 31 42q0 21 -22.5 39t-70.5 21q-5 0 -4 5q17 14 40 24z" />
    <glyph glyph-name="four" unicode="4" horiz-adv-x="422" 
d="M440 97q-2 -2 -4 -1t-2 3q6 8 6 16q0 7 -9 10q-48 16 -127 16q-56 -108 -56 -140q0 -9 2 -13q0 -4 -6 -4q-9 18 -21 33q-7 8 -7 18q0 8 5 18q29 56 48 88q-105 0 -199 -20q-3 0 -3 4q3 13 3 23q0 7 10 9q9 2 30 13q154 89 216 155q21 22 21 55q0 17 -7 33q0 5 16 14.5
t21 9.5q12 -4 12 -28q0 -41 -51 -89q-50 -48 -211 -155q-5 -5 2 -6q88 3 153 3q87 146 135 188q25 22 63 45q4 1 5.5 -1t0.5 -5q-30 -18 -48.5 -36t-38.5 -49q-35 -53 -84 -142q97 0 137 -7q7 -1 7 -11q0 -9 -6 -24.5t-13 -22.5z" />
    <glyph glyph-name="five" unicode="5" horiz-adv-x="297" 
d="M-18 -5q4 -30 53 -30q65 0 136.5 62t71.5 141q0 34 -28 57q-10 8 -22.5 17t-18.5 13t-10.5 11t-4.5 16q12 52 90 150q5 6 9 6l7 -2q7 -2 22 -4t34 -2q66 0 101 23.5t35 58.5q0 10 -5 20q3 2 8 -1q3 -9 3 -20q0 -48 -46 -85.5t-115 -37.5q-37 0 -66 7q-23 -22 -35 -44.5
t-12 -33.5q0 -14 12 -26t43 -30q47 -28 47 -67q0 -48 -48 -108.5t-111.5 -102t-106.5 -41.5q-48 0 -48 39q0 11 5 14z" />
    <glyph glyph-name="six" unicode="6" horiz-adv-x="344" 
d="M265 212q-40 0 -87 -45t-47 -116q0 -23 11 -36t30 -13q37 0 85.5 54.5t48.5 110.5q0 45 -41 45zM537 418l-4 -1q1 4 1 11q0 31 -60 31q-91 0 -190 -102.5t-130 -201.5q19 24 54.5 47.5t69.5 23.5q55 0 55 -50q0 -57 -58.5 -121.5t-121.5 -64.5q-37 0 -52 17t-15 51
q0 77 82 187q91 120 179 177.5t139 57.5q54 0 54 -45q0 -8 -3 -17z" />
    <glyph glyph-name="seven" unicode="7" horiz-adv-x="343" 
d="M178 -2l-2 -5q-26 -5 -44 -16q-6 0 -12.5 12.5t-6.5 27.5q0 31 25.5 68t123.5 132l176 181q-29 -9 -65 -9q-15 0 -62.5 5.5t-66.5 5.5q-43 0 -65 -32q-28 -40 -42 -94l-8 7q22 75 65 125q31 37 76 37q11 0 82 -15t87 -15q11 0 23.5 14t19.5 32q7 0 14.5 -2.5t11.5 -5
t4 -4.5q0 -3 -3 -6q-26 -24 -51 -36l-201 -209q-34 -34 -67.5 -82t-33.5 -79q0 -29 22 -37z" />
    <glyph glyph-name="eight" unicode="8" horiz-adv-x="336" 
d="M301 138q0 15 -4.5 28.5t-8.5 21t-17 26.5t-19 29q-72 -41 -111 -77t-39 -81q0 -30 20.5 -49t49.5 -19q26 0 59 21t54 51q16 23 16 49zM391 397q0 30 -30 30q-31 0 -65 -31.5t-34 -63.5q0 -22 26 -58q103 65 103 123zM426 407q0 -13 -2.5 -22t-13.5 -26t-40.5 -40
t-76.5 -52q6 -11 19.5 -27.5t19 -29.5t5.5 -34q0 -23 -11 -45q-27 -55 -82.5 -96.5t-99.5 -41.5q-33 0 -56 19t-23 51q0 29 16 56t47 52t55.5 41t63.5 38q-16 30 -16 52q0 43 48.5 92.5t102.5 49.5q44 0 44 -37z" />
    <glyph glyph-name="nine" unicode="9" horiz-adv-x="344" 
d="M-24 24l3 4q21 -28 69 -28t96 26t85.5 68.5t66 88t47.5 92.5q-63 -67 -128 -67q-27 0 -45 14t-18 40q0 53 67.5 116.5t135.5 63.5q63 0 63 -60t-57 -156.5t-155 -171.5q-91 -70 -167 -70q-49 0 -63 40zM376 390q0 17 -8.5 28t-24.5 11q-55 0 -111.5 -62.5t-56.5 -109.5
q0 -37 44 -37q56 0 106.5 56t50.5 114z" />
    <glyph glyph-name="colon" unicode=":" horiz-adv-x="239" 
d="M239 209q0 -12 -15 -30.5t-30 -18.5q-18 0 -18 16q0 19 13.5 34.5t30.5 15.5q19 0 19 -17zM151 44q0 -12 -15 -30.5t-30 -18.5q-18 0 -18 16q0 19 13.5 34.5t30.5 15.5q19 0 19 -17z" />
    <glyph glyph-name="semicolon" unicode=";" horiz-adv-x="231" 
d="M237 210q0 -12 -15 -30.5t-30 -18.5q-18 0 -18 16q0 19 13.5 34.5t30.5 15.5q19 0 19 -17zM167 69q0 -10 -8 -18q-110 -110 -169 -177q-3 -3 -7.5 -3.5t-5.5 5.5q0 5 3 8q66 75 166 209q4 7 11 7q10 0 10 -31z" />
    <glyph glyph-name="less" unicode="&#x3c;" horiz-adv-x="400" 
d="M406 222l-244 -73q107 -36 172 -73l-13 -24q-30 19 -95.5 49t-105.5 43l3 13q18 3 121 37t159 56z" />
    <glyph glyph-name="equal" unicode="=" horiz-adv-x="400" 
d="M381 193l-9 -23q-20 2 -94.5 3t-108.5 0l9 24q178 -6 203 -4zM355 126l-9 -23q-23 2 -101 3t-113 0l14 24q131 -8 209 -4z" />
    <glyph glyph-name="greater" unicode="&#x3e;" horiz-adv-x="400" 
d="M402 157l-4 -13q-18 -3 -121.5 -37.5t-161.5 -56.5l-4 28l249 74q-76 18 -177 59l18 18q102 -45 201 -72z" />
    <glyph glyph-name="question" unicode="?" horiz-adv-x="272" 
d="M413 375q0 -62 -93 -131l-39 -27.5l-33 -22.5t-23.5 -17t-16.5 -16.5t-5 -16.5q0 -25 22 -44q9 -7 -1 -7q-14 2 -30 0q-18 11 -18 44q0 13 14 25q21 19 54 41l54 37t39 31.5t31.5 39.5t8.5 42q0 27 -14.5 42.5t-51.5 26.5q-17 5 -26.5 9t-13 8t-3 7t3.5 8q26 37 33 31
q-4 -8 -5 -14t10.5 -12.5t37.5 -14.5q65 -20 65 -69zM163 25q0 -7 -14.5 -16t-23.5 -9q-4 0 -12.5 7.5t-8.5 13.5q0 25 39 43q7 0 7 -7q0 -10 6.5 -19.5t6.5 -12.5z" />
    <glyph glyph-name="at" unicode="@" horiz-adv-x="582" 
d="M658 335q0 -77 -67.5 -154t-152.5 -77q-54 0 -54 44q0 30 31 96q-59 -70 -92.5 -101t-56.5 -31q-17 0 -17 22q0 30 35 85.5t77 86.5q46 34 97 34q20 0 37 -5q8 -3 -1 -9t-19 -24q-57 -107 -57 -146t45 -39q59 0 111.5 66t52.5 150q0 55 -38 87t-101 32q-85 0 -169 -49
t-138 -129.5t-54 -164.5q0 -67 41.5 -107.5t109.5 -40.5q83 0 153.5 47t80.5 86q2 4 4 3.5t2 -5.5q-6 -29 -45 -64t-98 -59.5t-112 -24.5q-73 0 -124.5 40.5t-51.5 112.5q0 77 60.5 162.5t157.5 143.5t192 58q71 0 116 -31.5t45 -94.5zM460 330q-4 1 -15 1q-25 0 -51 -22
q-38 -33 -73.5 -88t-35.5 -78q0 -9 7 -9q21 0 88 81.5t80 114.5z" />
    <glyph glyph-name="A" unicode="A" horiz-adv-x="486" 
d="M220 214v1q2 -14 103 -14q67 0 80 -4q10 -3 11.5 -2.5t3.5 7.5q5 24 14 74l16 92t8 45q3 9 -1 8q-2 0 -9 -5q-162 -129 -226 -202zM6 -85l-11 52q1 26 39 70q123 141 246.5 254t184.5 155q5 3 24.5 9t23.5 10q6 6 7 0q0 -3 -2 -7q-17 -26 -24 -67q-6 -24 -30 -159.5
t-25 -164.5q-1 -47 30 -47q3 0 7 1t10 2t10 2q8 1 8.5 -1.5t-7.5 -4.5q-4 -1 -39 -11t-50 -13q-15 0 -20 20q3 13 11 68.5t9 65.5q0 12 -11 23.5t-30 15.5q-18 4 -75 4q-66 0 -93 3q-133 -132 -177 -225q-8 -17 -10 -52q0 -7 -6 -3z" />
    <glyph glyph-name="B" unicode="B" horiz-adv-x="487" 
d="M347 445q99 0 140.5 -15.5t41.5 -66.5q0 -35 -35 -75t-105 -56q-2 0 -2 -3q0 -2 2 -2q17 -3 25 -5t25 -8t25.5 -13t16 -20.5t7.5 -30.5q0 -60 -60 -110t-154 -50q-74 0 -123 25q-16 9 -23 9q-21 0 -56 -27l-6 5q14 16 25 32l122 217q71 133 91 177q3 8 -5 8
q-21 0 -64 -6.5t-52 -6.5q-16 0 -16 10q0 11 6 17q1 0 3 -3q4 -5 40 -5q20 0 60.5 1.5t70.5 1.5zM481 372q0 63 -90 63q-27 0 -37 -14q-16 -20 -44 -70q-53 -95 -147 -280q-5 -10 -6 -18q0 -9 8.5 -20.5t32 -22t55.5 -10.5q72 2 130 49t58 113q0 57 -84 62q-10 0 -31.5 -3.5
t-29.5 -3.5q-6 1 -6 10q0 12 11 12q7 0 21 -3t21 -3q25 0 40 6q40 17 69 52.5t29 80.5z" />
    <glyph glyph-name="C" unicode="C" horiz-adv-x="516" 
d="M558 317l-9 -3q5 18 5 34q0 37 -26.5 63t-91.5 26q-47 0 -101 -39q-60 -43 -120.5 -138.5t-60.5 -179.5q0 -82 105 -82q158 0 284 174q3 4 5 4q4 0 4 -14q0 -10 -8 -24q-46 -69 -122 -108.5t-165 -39.5q-147 0 -147 117q0 72 48.5 150.5t112.5 127.5q79 61 172 61
q85 0 143 -34q8 -4 8 -12q-20 -36 -36 -83z" />
    <glyph glyph-name="D" unicode="D" horiz-adv-x="573" 
d="M565 309q0 53 -39 88.5t-133 35.5q-25 0 -32 -12q-111 -174 -204 -361q-4 -8 -4 -12q0 -6 6 -12q35 -36 107 -36q123 0 211 90t88 219zM71 -3l-6 5q25 28 41 58q184 321 204 365q0 5 -8 5q-22 0 -63.5 -6.5t-62.5 -6.5q-18 0 -18 16q0 14 5 14l7 -3q7 -3 17.5 -6t18.5 -3
q27 0 97 5q11 0 31 1t36 1.5t31 0.5q44 0 78 -5t67.5 -19t52 -43.5t18.5 -72.5q0 -83 -56.5 -164t-133.5 -115q-74 -32 -161 -32q-78 0 -126 25q-10 5 -17 5q-20 0 -52 -25z" />
    <glyph glyph-name="E" unicode="E" horiz-adv-x="475" 
d="M487 67q1 1 2.5 -0.5t1.5 -3.5q-10 -9 -21 -26q-7 -13 -28 -18q-119 -27 -227 -27q-72 0 -97.5 9.5t-25.5 31.5q0 18 11 38l25.5 44.5l41.5 73t19 34.5q0 5 -17 5q-5 0 -5 3q0 7 12 9q23 3 34 24q83 149 83 159q0 4 -6 4q-74 0 -113 -10l-2 1q1 17 8 23q82 -4 131 -4
q10 0 99 3t125 3q6 0 6 -5q-1 -2 -4.5 -8.5l-7.5 -14t-7 -14.5l-4 1q0 15 -8 17q-53 9 -139 9q-16 0 -24 -10q-42 -56 -106 -170q-4 -9 6 -9q18 -1 57 -1q90 0 150 13l3 -3q-7 -11 -10 -21q-1 -4 -8 -4q-70 2 -118 2q-60 0 -85 -1q-8 0 -11 -6q-44 -77 -65 -127
q-10 -23 -10 -41q0 -47 71 -47q59 0 142.5 18t120.5 46z" />
    <glyph glyph-name="F" unicode="F" horiz-adv-x="350" 
d="M437 233l2 -2q0 -13 -11 -20q-58 -2 -130 -2q-42 0 -64 3q-8 0 -13 -8q-65 -111 -85 -162q-3 -9 -3 -16q0 -22 45 -22q6 0 6 -4q0 -3 -5 -4q-8 -1 -23 -1q-32 0 -50 0.5t-28 3t-12.5 5.5t-2.5 8t5 15q15 27 51 83t48 78q87 151 122 230q4 10 -5 11q-18 2 -40 2q-6 0 -6 3
q0 6 5 6q23 -1 97 -1q132 0 197 29q2 1 4 1q5 0 5 -3q-9 -10 -14 -23q-4 -10 -12 -10q-17 -1 -77 -2t-83 -3q-12 -1 -19 -13q-52 -80 -103 -181q0 -16 66 -16q74 0 133 15z" />
    <glyph glyph-name="G" unicode="G" horiz-adv-x="569" 
d="M111 -254l-1 7l3 2q24 -12 56 -12q127 0 281 278q4 7 32 59q0 8 -6 2q-113 -95 -217 -95q-72 0 -110 30.5t-38 83.5q0 24 13 63t38.5 86.5t75 93t111.5 71.5q71 28 152 28q40 0 80 -10t56 -30q-7 -30 -29 -84l-7 -2l-1 3q4 16 4 25q0 36 -39 61.5t-93 25.5
q-96 0 -175 -79q-50 -49 -96.5 -132.5t-46.5 -143.5q0 -82 105 -82q83 0 164.5 62t105.5 127q5 10 3.5 15t-11.5 5l-90 -7l-3 1l3 11q118 0 181 16q4 -3 0 -9q-15 -4 -21.5 -9.5t-13.5 -19.5q-134 -266 -199 -340q-97 -111 -209 -111q-32 0 -58 10z" />
    <glyph glyph-name="H" unicode="H" horiz-adv-x="572" 
d="M62 -11l-3 2l141 214q-12 18 -15 27q1 5 10 5h17q7 0 10 8q77 142 77 161q0 11 -5.5 14.5t-19.5 3.5q-30 0 -51 -3q-6 0 -6 6t8 6q55 0 141 8q10 0 3 -13q-19 -26 -43 -67q-44 -77 -65 -119q-6 -11 2 -11q60 -2 78 -2q83 0 160 9q9 1 15 11q71 137 109 198q5 7 13 11
q24 13 74.5 33t66.5 20q12 0 12 -5q0 -4 -10 -4q-11 0 -35 -7.5t-40 -21.5q-24 -20 -45 -48q-60 -84 -108 -183q-68 -142 -68 -188q0 -39 40 -39q35 0 67 22q3 0 3.5 -2.5t-2.5 -6.5q-62 -29 -127 -32q-33 1 -33 37q0 17 6 36q16 47 46 111q4 8 4 17q0 24 -44 24
q-104 0 -196 -14q-9 -1 -18 -15l-23.5 -39.5l-28 -47.5t-23 -42t-21.5 -47q-4 -10 -14 -10q-30 0 -59 -17z" />
    <glyph glyph-name="I" unicode="I" horiz-adv-x="245" 
d="M36 3q16 2 28 17q43 52 129 191t104 193q2 6 2 11q0 11 -27 11q-34 0 -55 -5l-3 1q2 8 6 12q98 4 152 12q5 -3 5 -8q0 -2 -6 -4q-10 -3 -23 -25q-121 -226 -226 -384q-15 -21 -37 -25q-27 -4 -47 -2q-2 1 -2 5z" />
    <glyph glyph-name="J" unicode="J" horiz-adv-x="325" 
d="M508 445q4 -1 4 -5t-4 -4q-8 1 -18 1q-15 0 -23 -9q-10 -13 -23 -34t-21 -36l-25.5 -47t-22.5 -42q-65 -115 -93 -159q-37 -62 -81 -104q-37 -35 -65.5 -56t-76 -39.5t-99.5 -18.5q-45 0 -77 13q-10 4 -9 14q0 10 2 46l7 2q9 -63 95 -63q84 0 152 68q59 58 144 202
q87 146 134 251q3 10 -5 10q-44 0 -95 -10.5t-83 -27.5q-18 -10 -31 -29t-13 -41q0 -8 2 -14q1 -3 -2 -3q-16 11 -16 40q0 19 18 39t56 32q78 24 269 24z" />
    <glyph glyph-name="K" unicode="K" horiz-adv-x="502" 
d="M60 -20q-6 0 -6 3q35 42 83 119q106 173 178 322l1 1v2q0 3 -5 3q-19 0 -55.5 -3t-50.5 -3q-11 0 -11 6q0 3 7 14.5t10 11.5q0 -8 10 -11q13 -4 52 -6q3 0 12 -0.5t14 -0.5q59 0 125 5q3 -5 -1 -9q-15 0 -39 -2q-7 0 -12 -8l-122 -201q-4 -7 -1.5 -8.5t7.5 2.5
q108 64 194 122q10 6 51 33.5l76 51t39 24.5h4q8 -5 25 -9q1 -3 -1 -5q-42 -14 -217 -123q-84 -52 -128 -85q-4 -3 -4 -6q125 -166 236 -269q62 -57 104.5 -78t95.5 -21q87 0 142 38q8 5 8 -2q0 -2 -4 -5q-63 -41 -165 -41q-155 0 -300 162q-96 109 -164 200q-4 7 -11 -3
l-101 -178q-7 -12 -10 -25q-14 2 -20 2q-26 0 -46 -20z" />
    <glyph glyph-name="L" unicode="L" horiz-adv-x="440" 
d="M448 436q-16 4 -32 4q-5 0 -9 -1t-7 -2t-7 -4l-6 -4.5t-5.5 -6l-5 -6.5l-5.5 -7.5t-5 -6.5q-28 -40 -52 -81l-112 -195q-40 -67 -100 -100q-7 -3 -7 -6t8 -3q193 18 253 18q45 0 60 -3q16 -4 16 -14q0 -16 -13 -42q-2 0 -2 4q0 14 -9 17q-44 16 -148 16q-167 0 -238 -21
q-10 2 -10 11q0 6 8 6q40 0 56 10q28 17 66 80q30 49 93 165t87 156q4 8 16 12q46 18 109 18q4 -2 4 -7t-3 -7z" />
    <glyph glyph-name="M" unicode="M" horiz-adv-x="750" 
d="M12 -12q7 29 132.5 190l218.5 271q50 16 52 17q6 -2 2 -6q-12 -8 -15 -23q-12 -63 -21.5 -190t-9.5 -187q0 -13 3 -15.5t6 0.5t8 10q35 47 163.5 197t165.5 185q8 4 36.5 14t39.5 17q3 0 5 -2.5t0 -5.5q-14 -5 -19 -8t-10 -8.5t-8 -14.5q-27 -86 -49.5 -199.5
t-22.5 -184.5q0 -25 22 -25q21 0 40 8q2 0 2.5 -2.5t-1.5 -4.5l-95 -28q-26 0 -29 21q3 54 84 378q3 14 -0.5 14.5t-11.5 -7.5q-56 -50 -156 -169t-161 -207q-6 -10 -10 -22q-29 -1 -48 -19q-6 -2 -7 2q18 134 34 416q0 19 -16 0q-62 -70 -151 -190.5t-129 -192.5
q-26 -48 -24 -78q1 -10 -2 -9q-3 0 -6 7q-2 4 -12 51z" />
    <glyph glyph-name="N" unicode="N" horiz-adv-x="549" 
d="M105 -15h-3q-4 4 -13 20t-9 24q0 14 20 47l101 170q56 91 74 139q4 10 4 17q0 21 -24 21q-25 0 -53 -2q-9 0 -9 14q0 4 3 4q19 -6 53 -6q37 0 69 10q6 0 8 -9q3 -16 12 -50q9 -35 27 -86.5l42.5 -118l33.5 -90.5q5 -18 11 -18q4 0 13 17q134 271 198 370q39 62 80 62
q7 0 17.5 -6.5t13.5 -14.5q0 -2 -3 -2q-55 0 -109 -75q-85 -118 -179 -325l-14.5 -33l-17 -39l-13.5 -30q-4 -7 -6 -7q-4 0 -9 7q-41 147 -123 352q-6 13 -11 13t-13 -12q-101 -156 -150 -266q-21 -48 -21 -97z" />
    <glyph glyph-name="O" unicode="O" horiz-adv-x="589" 
d="M637 319q-2 -126 -103 -227t-230 -101q-184 0 -184 130q0 60 39.5 133.5t87.5 117.5q82 75 208 75q34 0 64 -6t58 -19.5t44.5 -40t15.5 -62.5zM587 326q0 114 -131 114q-100 0 -172 -81q-44 -49 -80 -120.5t-36 -127.5q0 -111 128 -111q75 0 143.5 52t108 127t39.5 147z
" />
    <glyph glyph-name="P" unicode="P" horiz-adv-x="421" 
d="M547 359q0 -58 -63.5 -113t-161.5 -55q-25 0 -44 7q-3 2 -3 4q0 4 4 4q21 -6 44 -6q73 0 125 53t52 115q0 72 -87 72q-25 0 -45 -5q-13 -4 -20 -17q-127 -211 -193 -339q-11 -22 -11 -36q0 -34 64 -34q11 0 11 -3t-5 -4q-42 -7 -85 -7q-49 0 -49 24q0 6 5 18
q13 31 81 144q49 81 105 186q24 43 24 57q0 4 -5 4q-19 0 -61 -4.5t-64 -4.5q-19 0 -19 11q0 3 3.5 11t6.5 8q2 0 3 -4q1 -5 12 -7q18 -3 47 -3q47 0 120 7t82 7q52 0 89.5 -21t37.5 -69z" />
    <glyph glyph-name="Q" unicode="Q" horiz-adv-x="547" 
d="M648 -41q-66 -111 -140 -111q-26 0 -51 15q-21 12 -39.5 39.5t-36 65.5t-20.5 43q-48 -16 -91 -16q-82 0 -124 39q-37 -25 -71 -70q-5 0 -5 7q30 37 71 68q-32 35 -32 87q0 58 41 128.5t91 118.5q74 72 175 72q8 0 8 -6q0 -3 -2 -3q-6 1 -16 1q-75 0 -160 -112
q-88 -124 -88 -216q0 -26 10 -51q57 38 116 38q66 0 109 -62q69 35 116 116.5t47 154.5q0 69 -30 105q-15 18 -38 24q-5 2 -5 3q0 2 5 2t19 -0.5t20 -0.5q18 0 27 -8q43 -34 43 -102q0 -73 -51 -162t-148 -138q2 -3 17.5 -30t30.5 -49.5t31 -40.5q29 -33 60 -33q58 0 103 89
q2 3 5 1t3 -6zM357 18q-1 2 -6 10t-7 10t-7 9.5t-8 10t-9 8t-11.5 7.5t-12.5 5t-15 4t-17 1q-46 0 -93 -31q29 -48 109 -48q38 0 77 14z" />
    <glyph glyph-name="R" unicode="R" horiz-adv-x="512" 
d="M155 328q-1 -1 -3.5 0t-2.5 2q8 22 11 40q0 10 12 17q54 30 123 45q58 12 123 12q166 0 166 -80q0 -47 -57 -90.5t-144 -52.5q-9 -1 -6 -8q46 -85 128 -199q50 -68 115 -111.5t138 -43.5q60 0 119 31q6 4 6 -2q0 -4 -4 -5q-73 -38 -142 -38q-109 0 -175.5 44.5
t-139.5 156.5l-104 175q0 4 3 4q93 0 149.5 34t56.5 100q0 30 -23.5 52t-75.5 22q-24 0 -36 -13q-32 -37 -123 -195.5t-120 -222.5q-1 -2 -4 -2q-12 2 -20 2q-16 0 -27 -2q-12 -7 -23 -19q-2 0 -4 1.5t-1 2.5q151 220 264 431q5 12 -5 12q-55 -3 -116 -36q-34 -19 -58 -64z
" />
    <glyph glyph-name="S" unicode="S" horiz-adv-x="416" 
d="M482 406q-29 -25 -38 -45q-4 -1 -6 3q6 12 6 20q0 28 -24.5 44t-56.5 16q-38 0 -74 -21.5t-36 -69.5q0 -11 2.5 -20.5t8 -18.5t10 -15t14.5 -14.5l14 -12t16 -12t14 -10.5q41 -31 57.5 -52t16.5 -49q0 -69 -61 -112.5t-139 -43.5q-82 0 -127 31q-11 8 -13 13q17 30 26 68
q0 2 3 2q4 0 4 -5q-4 -12 -4 -23q0 -30 34 -54t84 -24q56 0 100 30.5t44 92.5q0 46 -56 88l-24 17t-23 17t-17 15.5t-15 18t-8 19.5t-4 25q0 58 59 96t118 38q29 0 54.5 -10t36.5 -27q4 -5 4 -15z" />
    <glyph glyph-name="T" unicode="T" horiz-adv-x="398" 
d="M398 431h-33q-117 0 -173.5 -28.5t-97.5 -125.5q-3 -7 -7 1q-1 1 -2 4q45 139 125 155q22 4 118 4q20 0 58 -0.5t58 -0.5q121 0 171 27q45 25 45 58q0 7 -2 11q0 4 3 4q4 -1 14 -18.5t10 -21.5q0 -32 -43.5 -48.5t-92.5 -18.5q-11 0 -35.5 -0.5t-34.5 -1.5q-14 0 -21 -10
q-87 -131 -190 -318q-20 -36 -21 -58q0 -19 13.5 -30t53.5 -11q18 0 24 1q3 -4 -3 -8q-35 -3 -77 -3q-25 0 -38.5 1.5t-25.5 9.5t-12 24q0 14 15 39q124 201 206 354q5 9 -5 9z" />
    <glyph glyph-name="U" unicode="U" horiz-adv-x="617" 
d="M746 438q-12 -2 -21 -12q-85 -104 -152 -239q-49 -98 -49 -141q0 -46 43 -46q12 0 27.5 4t27 9t20.5 9.5t10 4.5q5 0 6 -4.5t-4 -5.5q-72 -32 -122 -32q-66 0 -66 51q0 19 10 43t20 41t10 18q0 2 -1 2.5t-2 -1.5q-70 -79 -146.5 -114.5t-133.5 -35.5q-43 0 -75 20.5
t-32 62.5q0 30 20 67q21 38 79.5 130.5t79.5 131.5q4 8 4 12q0 9 -15 9q-55 0 -73 -1q-5 3 -5 8t7 5q4 0 32.5 -1.5t47.5 -1.5q37 0 66 4t34 4t5 -3q-1 -4 -6 -6q-24 -4 -34 -16q-67 -84 -160 -249q-25 -44 -25 -82q0 -32 20.5 -51t59.5 -19q79 0 156.5 56t129.5 135
q21 33 64 112.5t46 85.5q14 24 35 31q45 15 60 15q7 0 6 -6q-1 -4 -4 -4z" />
    <glyph glyph-name="V" unicode="V" horiz-adv-x="441" 
d="M244 55q110 110 215 230.5t144 183.5q16 24 16 40q0 2 -1 6t-1 5q1 6 7 1q19 -22 19 -31q0 -21 -43.5 -72t-233.5 -254q-116 -119 -134 -155q-7 -13 -20 -13q-15 -1 -28.5 -6.5t-15.5 -5.5q-4 0 -4 4q0 2 2 6t5 11t5 13q24 70 41.5 170t17.5 134q0 22 -2 36.5t-9 30
t-22.5 23t-39.5 7.5q-54 0 -83 -29q-9 -9 -11 -1q-2 4 4 8q66 46 144 46q64 0 64 -73q0 -49 -21.5 -166.5t-21.5 -145.5q0 -4 2.5 -5t4.5 2z" />
    <glyph glyph-name="W" unicode="W" horiz-adv-x="754" 
d="M1067 490q2 -4 -2 -7q-4 1 -13 1q-82 0 -304 -246q-45 -50 -102.5 -122t-78.5 -107q-6 -11 -15 -12q-31 -4 -46 -19q-9 0 -2 10q17 18 17 342q0 14 -7 14q-3 0 -10 -5q-1 -1 -27.5 -25.5l-50.5 -47l-62.5 -59l-71 -68.5l-68.5 -69t-62 -67q-9 -9 -12 -9q-26 0 -48 -12
q-7 0 -3 9q11 16 36 77q20 50 64.5 181.5t44.5 149.5q0 14 -15 14q-10 0 -28.5 -4t-23.5 -4q-3 0 -4.5 2t-0.5 4.5t5 2.5l47 9t34 7t23 5t15 3.5t8 2.5l4.5 1.5t2.5 0.5q3 0 4.5 -2t0.5 -4t-3 -4q-10 -9 -34 -74q-45 -120 -96 -299q-3 -13 1 -12q2 1 4 3l391 372q3 1 5.5 -2
t0.5 -5q-12 -6 -14 -21q-10 -77 -10 -222q0 -35 1 -77t1 -50q0 -13 8 -3l170 201q103 116 205 211q51 47 86 47q4 0 18 -5t17 -7z" />
    <glyph glyph-name="X" unicode="X" horiz-adv-x="536" 
d="M669 437q0 -8 -7 -12q-144 -85 -281 -176q14 -93 27 -154q17 -78 64 -78q34 0 83 38q5 5 7 -1q1 -4 -3 -6q-76 -59 -133 -59q-31 0 -43 23.5t-19 77.5q-9 68 -19 134q-149 -98 -237 -173q-21 -18 -50 -53.5t-29 -55.5q0 -6 -3 -7q-17 17 -17 29q0 37 110 116l224 155
q-13 85 -24 130q-14 57 -70 57q-49 0 -89 -27q-8 -3 -8.5 0.5t4.5 6.5q75 40 143 40q34 0 49.5 -19t20.5 -64q9 -87 11 -100q133 90 261 188q6 5 6 9q0 5 -1 8q-1 1 0.5 2t3.5 1q5 0 12 -11.5t7 -18.5z" />
    <glyph glyph-name="Y" unicode="Y" horiz-adv-x="401" 
d="M744 445l-3 -3q-6 2 -22 2q-55 0 -174 -79t-210 -167q-30 -30 -40 -47q-63 -110 -72 -143q-2 -9 -13 -8q-31 2 -36 0.5t-25 -14.5q-3 -1 -3.5 3t2.5 7q20 15 52.5 64.5t52.5 93.5q29 62 29 122q0 59 -26.5 97t-84.5 38q-67 0 -101 -47q-4 -4 -8.5 -3.5t0.5 8.5
q58 72 152 72q55 0 82 -39.5t27 -99.5q0 -14 -2.5 -34.5t-5 -36t-2.5 -16.5q-1 -5 1.5 -7.5t6.5 1.5l90.5 70.5l106 83l88.5 65.5q60 43 101 43q11 0 21.5 -8.5t15.5 -17.5z" />
    <glyph glyph-name="Z" unicode="Z" horiz-adv-x="437" 
d="M658 5q0 -18 -31 -46q-25 -22 -45 -32t-48 -10q-63 0 -236.5 40.5t-269.5 43.5q-3 0 -5.5 2.5t-1 5t6.5 2.5q26 0 46 17q333 280 414 378q8 10 8 14q0 8 -20 8q-113 0 -203 -10q-61 -7 -84 -28q-9 -9 -9 2q9 20 15 28t18 9q58 5 171 7q31 0 79.5 1t84.5 2t42 1t8 -2.5
t0 -5.5t-6 -3q-5 -1 -22 -15l-210.5 -189t-211.5 -203q-5 -7 -5 -10q0 -6 9 -9q61 -18 170.5 -37.5t192.5 -19.5q70 0 97.5 14t37.5 44q5 12 7 7q1 -2 1 -6z" />
    <glyph glyph-name="bracketleft" unicode="[" horiz-adv-x="338" 
d="M454 498q0 -4 -6 -4h-35q-39 0 -47 -1.5t-13 -9.5q-131 -227 -275 -512q-3 -6 -3 -10q0 -10 14 -10q39 0 66 0.5t28 0.5q5 0 7 -3t0.5 -5.5t-7.5 -2.5q-12 0 -38.5 0.5t-40.5 0.5t-43 -0.5t-44 -0.5q-7 0 -7 5q0 2 3 6.5l8 11.5l8 11q167 290 275 506q2 3 2.5 7t0.5 7
t2 5t5 2q10 0 29 -1t28 -1q11 0 39.5 1t37.5 1q6 0 6 -4z" />
    <glyph glyph-name="backslash" unicode="\" horiz-adv-x="368" 
d="M414 -157q0 -8 -8 -6.5t-11 7.5q-215 701 -215 704q0 10 11 6q7 -3 9 -9q2 -4 108 -348t106 -354z" />
    <glyph glyph-name="bracketright" unicode="]" horiz-adv-x="352" 
d="M521 497q0 -2 -2 -4t-7 -9t-10 -16q-148 -264 -265 -506q-1 -3 -1.5 -7t-1 -7t-2.5 -5t-5 -2q-8 0 -29 1t-33 1q-17 0 -46.5 -1t-38.5 -1q-6 0 -6 5q0 6 6 6h58q29 0 35.5 1.5t11.5 9.5q131 227 274 510q3 6 3 10q0 10 -14 10q-25 0 -51 -1.5t-31 -1.5q-7 0 -7 5t8 5
q37 0 84.5 1t61.5 1q8 0 8 -5z" />
    <glyph glyph-name="asciicircum" unicode="^" horiz-adv-x="400" 
d="M397 390q-5 -32 -8.5 -92t-1.5 -84l-20 -5q0 58 9 152q-58 -62 -148 -144l-24 6q123 103 181 169z" />
    <glyph glyph-name="underscore" unicode="_" horiz-adv-x="500" 
d="M500 -50h-500v17h500v-17z" />
    <glyph glyph-name="grave" unicode="`" 
d="M151 279q0 -2 -1.5 -2.5t-3.5 1.5l-49 93q-3 6 -3 11q0 3 4 9t6 6q3 0 4 -4q40 -101 43 -114z" />
    <glyph glyph-name="a" unicode="a" horiz-adv-x="285" 
d="M393 137q-52 -65 -111 -112t-101 -47q-36 0 -36 35q0 32 34 88q-31 -41 -69 -74t-64 -33q-21 0 -21 21q0 53 70 129t147 76q9 17 17 20l28 8l2 -1q-5 -5 -19 -28q12 0 30 -3q8 -4 4 -7q-1 -1 -2 -1q-16 4 -36 4q-89 -158 -89 -199q0 -21 23 -21q31 0 84 42.5t103 105.5
q2 3 4 1.5t2 -4.5zM238 212l-1 1q-60 0 -116.5 -75.5t-56.5 -116.5q0 -8 6 -8q13 0 48.5 31t61.5 69q11 17 58 99z" />
    <glyph glyph-name="b" unicode="b" horiz-adv-x="255" 
d="M590 643q0 -22 -3 -23q-1 0 -2 1q-15 18 -43 18q-38 0 -66 -11t-68 -44q-53 -44 -125 -162t-134 -241q-18 -34 -35 -82t-17 -66q0 -27 18 -27q25 0 54 44t29 109q0 20 -5 32q0 6 6 12q12 12 21 18q3 0 4 -2q0 -36 24 -54t53 -18q38 0 78 24q5 3 6.5 -0.5t-3.5 -5.5
q-62 -33 -108 -33q-36 0 -58 28q-1 -71 -41 -119t-79 -48q-37 0 -37 41q0 50 64 165q151 273 278 391q32 30 76.5 58t75.5 28q18 0 27.5 -9t9.5 -24z" />
    <glyph glyph-name="c" unicode="c" horiz-adv-x="214" 
d="M310 134q-83 -101 -154 -129q-28 -11 -51 -11q-55 0 -55 46q0 18 8 38q19 46 53.5 83t74.5 54q12 5 20 5q37 0 37 -29q0 -15 -7 -23q-6 -6 -20 -17l-3 1q3 8 3 17q0 11 -8 19.5t-23 8.5q-37 0 -67 -45.5t-30 -101.5q0 -20 11 -31t29 -11q30 0 78 34t99 97q7 7 8 1
q0 -3 -3 -6z" />
    <glyph glyph-name="d" unicode="d" horiz-adv-x="271" 
d="M682 665q0 -4 -6 -13t-8 -16t-7 -7q-2 0 -13.5 5t-29.5 5q-36 0 -65 -18q-63 -41 -120 -123q-126 -181 -198 -321.5t-72 -188.5q0 -39 32 -39q83 0 169 174q3 4 6.5 2.5t-0.5 -7.5q-38 -79 -84.5 -128.5t-92.5 -49.5q-53 0 -53 52q0 40 39 119q-55 -66 -84.5 -91.5
t-49.5 -25.5q-24 0 -24 27q0 22 19 52q39 63 85 99.5t110 48.5q95 166 188 282q97 121 173 157q34 16 59 16q27 0 27 -11zM227 206q-59 -1 -95 -48q-70 -87 -70 -130q0 -9 10 -9q17 0 69.5 59t85.5 128z" />
    <glyph glyph-name="e" unicode="e" horiz-adv-x="205" 
d="M301 119q-39 -49 -96.5 -87.5t-110.5 -38.5q-47 0 -47 42q0 57 52.5 121t102.5 64q25 0 25 -18q0 -28 -33 -55t-90 -27q-17 -29 -17 -68q0 -41 37 -41q42 0 90 35t80 76q2 2 4.5 1t2.5 -4zM196 197q0 13 -13 13q-18 0 -38.5 -24.5t-36.5 -55.5q6 -2 15 -2q29 0 51 20.5
t22 48.5z" />
    <glyph glyph-name="f" unicode="f" horiz-adv-x="217" 
d="M674 715q0 -4 -4.5 -36.5t-4.5 -41.5q-1 -2 -4 -2t-5 2q3 11 3 26q0 42 -63 42q-99 0 -191 -156q-53 -91 -180 -340q25 1 138 1q5 -3 3 -10q-44 0 -146 -2q-64 -126 -141.5 -251t-138.5 -204q-274 -349 -487 -349q-90 0 -108 84q0 8 2 7.5t4 -6.5q3 -21 32 -44.5
t78 -22.5q234 4 461 341q42 63 89.5 144l99.5 176.5l68 123.5q-86 -5 -108 -15.5t-43 -53.5l-3 1q25 61 54 70q24 7 107 10q105 192 193 324q61 92 126 152t119 60q20 0 35 -9t15 -21z" />
    <glyph glyph-name="g" unicode="g" horiz-adv-x="240" 
d="M290 267q0 -9 -5 -18q-120 -225 -311 -534q-148 -242 -369 -242q-157 0 -157 150q0 28 7 47q1 5 5 3q2 0 2 -4q-6 -18 -6 -37q0 -66 54.5 -101t141.5 -35q196 0 339 273l191 352q-49 -67 -80 -99.5t-53 -32.5q-21 0 -21 25q0 34 47.5 103.5t97.5 93.5q24 12 48 12
q7 0 11 -1l34 58q6 13 13 13q4 0 7.5 -9t3.5 -17zM226 208q-4 1 -15 1q-32 0 -48 -13q-44 -36 -70 -91.5t-26 -81.5q0 -11 6 -11q14 0 66.5 64.5t86.5 131.5z" />
    <glyph glyph-name="h" unicode="h" horiz-adv-x="266" 
d="M701 659q0 -38 -7 -37q-2 1 -2 4q0 23 -22 47t-74 24q-34 0 -65 -11t-74 -45.5t-88.5 -93t-106.5 -158.5t-131 -238q24 21 61.5 46.5t57.5 25.5q9 0 9 -7q0 -6 -9 -18q-23 -32 -50 -84.5t-27 -77.5q0 -32 30 -32q25 0 68 32.5t93 99.5q2 2 4 2t2 -4q-43 -60 -100 -106
t-98 -46q-17 0 -27 9.5t-10 26.5q0 23 35.5 91t35.5 78q0 5 -3 5q-11 0 -35 -19.5t-56 -61.5q-38 -66 -55 -100q-8 -16 -15 -16q-21 0 -21 12q0 5 3 11q67 124 163 276l56.5 89l56.5 84t62 85.5t60 70t64.5 61t61.5 35t65 15.5q34 0 61 -17.5t27 -57.5z" />
    <glyph glyph-name="i" unicode="i" horiz-adv-x="181" 
d="M236 354q0 -12 -11 -24t-23 -12t-12 12q0 13 10 25t23 12t13 -13zM281 131q-49 -62 -112 -104q-41 -27 -79 -27q-44 0 -44 34q0 23 28.5 74t53.5 87q5 7 17 13t17 6t5 -3q0 -5 -5 -12q-28 -43 -51.5 -92t-23.5 -70q0 -23 24 -23q36 0 86.5 41.5t79.5 80.5q6 6 6 2
q0 -3 -2 -7z" />
    <glyph glyph-name="j" unicode="j" horiz-adv-x="195" 
d="M222 350q0 -12 -11 -24t-23 -12t-12 12q0 13 10 25t23 12t13 -13zM283 126q0 -52 -59 -106q-54 -51 -147.5 -128l-135.5 -114q-26 -23 -60 -68t-72 -79q-2 -2 -6 -2q-10 0 -10 24q0 10 4 15q19 27 64.5 64.5t69.5 80.5q78 140 180 360q4 10 4 14q0 9 -8 9q-1 0 -7 -1.5
l-14 -3.5t-14 -2q-2 0 -3.5 2t0 4t4.5 3q25 4 44 10.5t28 10t14 3.5q10 0 10 -11q0 -6 -4 -14q-15 -27 -55 -106t-67 -126l-111 -180q10 9 90 72t135.5 115.5t89.5 102.5q24 35 24 65q0 14 -6 22q-3 6 0 6q2 0 5 -2q13 -10 13 -40z" />
    <glyph glyph-name="k" unicode="k" horiz-adv-x="300" 
d="M596 596q0 -8 -6 -23t-7 -24q0 -4 -3 -5q-4 -1 -4 4q0 2 1 5.5t1 5.5q0 23 -19.5 34.5t-43.5 11.5q-69 0 -132 -65q-68 -71 -140 -189q-114 -188 -157 -273q-3 -7 -3 -8q1 -1 8 6q18 18 74 68q-1 4 -1 13q0 14 32 25l3 -9q112 95 122 95q6 0 11 -13q0 -6 -10 -9
q-21 -7 -59.5 -34.5t-64.5 -50.5q6 -69 32 -120q10 -21 34 -21q27 0 67 38.5t71 84.5q3 6 7 1q3 -2 0 -5q-75 -102 -132 -132q-24 -12 -41 -12q-27 0 -40 27t-29 112q-93 -90 -118 -136q-3 -5 -8 -5q-6 0 -10.5 8t-4.5 16q0 6 1 8q10 14 53 91t95 161q86 138 171 236
q85 97 158 115q26 6 38 6q19 0 36.5 -10t17.5 -28z" />
    <glyph glyph-name="l" unicode="l" horiz-adv-x="203" 
d="M523 652q0 -22 -25 -71t-66.5 -108t-108 -121t-138.5 -101q-2 -3 -13 -21.5t-17 -29.5l-17.5 -31.5t-18.5 -35.5l-14.5 -32.5t-11 -32t-3.5 -25.5q0 -32 29 -32q77 0 186 131q8 8 8 2q0 -3 -3 -6q-45 -56 -102 -99t-110 -43q-49 0 -49 43q0 14 9.5 38.5t27 56l32 55.5
l34 55.5l22.5 36.5q88 152 137 228q38 59 81 95q36 30 68 48t45 18q18 0 18 -18zM478 626q0 16 -13 16q-11 0 -27.5 -16.5t-56.5 -69.5q-36 -47 -188 -292q115 64 200 178t85 184z" />
    <glyph glyph-name="m" unicode="m" horiz-adv-x="352" 
d="M427 86q-103 -116 -166 -116q-36 0 -36 33q0 15 37 88t37 86q0 6 -5 6q-24 -12 -60 -47.5t-52 -58.5q-7 -9 -17.5 -31.5t-19.5 -36.5t-15 -14q-5 0 -9 5t-4 10q0 9 14 29q16 22 30 50t20.5 46t6.5 22q0 8 -4 8q-12 0 -51 -41.5t-62 -75.5q-34 -53 -39 -53q-11 0 -11 21
q0 8 4 13q17 27 105 177q4 9 11 9q4 0 8.5 -5.5t4.5 -10.5q-4 -12 -13 -29t-22.5 -40t-18.5 -33q81 93 111 93q11 0 11 -15q0 -17 -25 -64q-1 -2 -1 -3q1 -1 4 2q62 73 128 104q15 0 15 -14q0 -3 -4 -13q-2 -5 -18 -35l-28.5 -55t-23.5 -53.5t-11 -41.5q0 -20 19 -20
q53 0 144 109q4 7 8 5t-2 -10z" />
    <glyph glyph-name="n" unicode="n" horiz-adv-x="261" 
d="M363 129q-41 -57 -96 -99.5t-103 -42.5q-32 0 -32 21q0 17 15.5 47.5t38 69t31.5 59.5q2 5 0 8.5t-6 0.5q-22 -14 -56.5 -45t-53.5 -52l-26.5 -44.5l-29.5 -48.5q-4 -6 -6 -6q-5 0 -8.5 10t-3.5 15q0 9 40 59q47 96 62 131q3 5 9 5t11 -5t5 -11q0 -2 -6.5 -13.5
l-17.5 -31t-19 -37.5q120 108 142 108q4 0 7.5 -4.5t3.5 -8.5t-5 -12q-30 -44 -61 -100t-31 -81q0 -21 21 -21q32 0 86.5 44.5t83.5 90.5q3 3 6 1t-1 -7z" />
    <glyph glyph-name="o" unicode="o" horiz-adv-x="250" 
d="M381 170q-45 -60 -97 -60q-40 0 -60 34q-17 -40 -48 -82t-69 -61q-18 -8 -30 -8q-36 0 -36 32t21 70t45 64q49 52 106 58q5 29 20 31t19 5q3 2 6 0.5t1 -5.5q-14 -23 -14 -65q0 -64 47 -64q44 0 82 54q3 6 7 2q3 -2 0 -5zM216 163q-4 16 -4 44q0 5 -4 5q-40 0 -93 -89
q-34 -58 -33 -96q0 -19 14 -19q31 0 73.5 60.5t46.5 94.5z" />
    <glyph glyph-name="p" unicode="p" horiz-adv-x="220" 
d="M340 157q-88 -112 -240 -147q-22 -5 -74 -14q-30 -51 -107 -194l-64.5 -125t-71.5 -134q-9 -15 -24 -22t-50 -16t-56 -16q-6 -3 -7 1.5t5 6.5q52 20 76.5 41.5t57.5 76.5l226 381q-6 2 -6 11q0 6 17 9l46 75l39.5 67t49.5 82t41 59q4 4 11 6q18 6 37 6q3 0 3 -2
q0 -3 -4 -7q-70 -66 -119 -141q61 68 92 68q23 0 23 -26q0 -30 -44 -86t-133 -98q177 19 270 142q1 4 5 0q1 -1 1 -4zM200 183q0 16 -12 16q-11 0 -38 -22t-48 -53q-27 -39 -65 -108q61 17 112 73.5t51 93.5z" />
    <glyph glyph-name="q" unicode="q" horiz-adv-x="257" 
d="M371 143q-42 -55 -201 -283l-39 -56.5l-48 -68.5l-41 -57.5t-50.5 -67l-44.5 -52.5q-63 -72 -108 -72q-21 0 -21 23q0 26 26 69q71 121 291 470q-42 -51 -80 -51q-25 0 -25 27q0 41 56 104.5t109 78.5q18 5 41 5q67 113 78 123q4 4 8 4q9 0 9 -9q0 -1 -2 -5
q-29 -52 -71 -115q27 -3 37 -21q4 -8 -1 -9q-3 -1 -8 6q-13 14 -34 16q-78 -111 -160 -243q-139 -222 -211 -382q-13 -29 -13 -46q0 -15 11 -15q18 0 50 37q75 85 233 313q139 200 203 284q5 5 7 1t-1 -8zM232 204q-23 0 -41 -8q-33 -14 -81 -82.5t-48 -93.5q0 -9 7 -9
q22 0 59 43q32 38 104 150z" />
    <glyph glyph-name="r" unicode="r" horiz-adv-x="195" 
d="M271 204q-14 -16 -21 -32q-2 -3 -4 -3q-1 0 -4 4.5t-11 9.5t-20 5q-24 0 -57 -29q-23 -20 -39.5 -42.5t-41.5 -65l-31 -52.5q-2 -3 -6 -3q-2 0 -8.5 6t-6.5 9q0 6 7 18l41.5 72l41.5 71.5t21 37.5q4 9 7 9t10.5 -5.5t7.5 -13.5q0 -4 -5.5 -14t-12.5 -21t-8 -14
q-3 -5 -1 -5t5 3q23 24 57.5 46.5t56.5 22.5q9 0 15.5 -4.5t6.5 -9.5z" />
    <glyph glyph-name="s" unicode="s" horiz-adv-x="179" 
d="M193 183q-3 -5 -5 -1q-6 13 -25 13q-16 0 -29 -8.5t-13 -23.5q0 -10 19 -37q22 -32 22 -49q0 -45 -35 -65.5t-66 -20.5q-61 0 -67 41q18 12 21 16q2 0 3 -4q5 -19 19.5 -31.5t32.5 -12.5q63 0 63 51q0 20 -16 44q-18 29 -18 42q0 24 30 51.5t59 27.5q16 0 16 -10
q-8 -12 -11 -23z" />
    <glyph glyph-name="t" unicode="t" horiz-adv-x="198" 
d="M282 365q-23 -7 -33 -21q-45 -63 -86 -137h124q3 -1 3 -3.5t-2 -3.5q-51 0 -133 -6q-58 -103 -58 -146q0 -36 33 -36q31 0 80 31q3 3 6 -0.5t-2 -5.5q-65 -42 -122 -42q-40 0 -40 42q0 38 71 155q-7 0 -18.5 -1t-20.5 -2t-11 -1q-5 0 -5 4q4 7 13 14l51 1l85 139
q28 13 65 26q5 0 3 -5q-1 -1 -3 -2z" />
    <glyph glyph-name="u" unicode="u" horiz-adv-x="257" 
d="M355 120q-40 -57 -93 -103.5t-95 -46.5q-36 0 -36 37q0 21 11 46q-1 -1 -5 -6.5t-5.5 -7t-6 -7t-7 -7.5t-7 -6.5t-8 -6.5l-8.5 -5t-9.5 -4.5t-10 -2.5t-10.5 -1q-25 0 -25 27q0 32 85 179q5 10 9 10q6 0 14 -8t8 -12q0 -3 -6 -12q-78 -119 -78 -156q0 -15 11 -15
q25 0 69 68q44 80 66 117q5 7 8 7q4 0 9 -9t5 -20q0 -8 -4 -15q-7 -11 -24.5 -35t-27 -38.5t-18 -38t-8.5 -46.5q0 -22 21 -22q28 0 77 41t93 104q6 2 6 -5z" />
    <glyph glyph-name="v" unicode="v" horiz-adv-x="216" 
d="M257 200q-4 -52 -91 -128t-125 -78l-16 16q0 4 4 3q24 2 38.5 19t22.5 60q13 80 17 87q4 12 2.5 14.5t-9.5 2.5l-29 -5q-9 4 1 7q74 11 90 16q3 -2 1 -4q-14 -11 -17 -18q-8 -17 -16 -58.5t-9 -44.5q-11 -31 -48 -60q-1 -3 1 -4q61 21 104.5 68t49.5 109q3 39 -12 51
q-4 1 0 2h6q18 -2 28 -17.5t7 -37.5z" />
    <glyph glyph-name="w" unicode="w" horiz-adv-x="377" 
d="M511 209q-60 -17 -141 -22q-8 -1 -8 -14q0 -51 -25 -106.5t-55 -81.5q-34 -31 -73 -31q-25 0 -40.5 16t-15.5 42q0 11 2 21q-55 -33 -87 -33q-27 0 -27 30q0 48 85 160q10 13 18 15q4 1 17 4t17 4q4 0 4 -3q0 -1 -2.5 -2t-7.5 -4.5t-10 -8.5q-29 -32 -55.5 -85.5
t-26.5 -78.5q0 -16 15 -16q20 0 62 27q18 79 72 144q25 28 45 28q11 0 11 -14q0 -10 -6.5 -28.5t-30.5 -52t-62 -64.5q0 -78 52 -78q44 0 69.5 53.5t25.5 116.5q0 20 -0.5 29t-5.5 17.5t-15 9.5q-4 4 1 6q4 0 15 4.5t13 4.5q1 0 5.5 -4t20 -7.5t43.5 -3.5q59 0 101 13
q5 1 5 -3q0 -3 -5 -4zM260 180q0 14 -9 14q-8 0 -20 -13.5t-25.5 -45t-19.5 -71.5q74 60 74 116z" />
    <glyph glyph-name="x" unicode="x" horiz-adv-x="250" 
d="M304 78q-89 -94 -158 -94q-37 0 -37 43q0 9 13 69q-83 -51 -117 -97t-34 -105q0 -56 36 -93t96 -37q69 0 123 56q2 2 4.5 2t3.5 -2.5t-2 -5.5q-76 -65 -159 -65q-56 0 -92 33.5t-36 102.5q0 115 179 220q17 57 17 79q0 14 -11 14q-12 0 -31 -7q-3 1 0 7q61 22 75 22
q11 0 11 -9q0 -3 -2 -9.5t-10.5 -29.5t-17.5 -52l42.5 26t29 20t26 24.5t6.5 21.5q0 4 -1 6l2 2q23 -3 23 -18q0 -7 -7.5 -15.5t-23.5 -19t-28.5 -18t-36.5 -20t-34 -18.5q-9 -35 -9 -70q0 -21 8.5 -29.5t29.5 -8.5q43 0 115 77q3 3 6 0q1 0 1 -2z" />
    <glyph glyph-name="y" unicode="y" horiz-adv-x="227" 
d="M64 11q-30 0 -30 24q0 4 1 9.5t4.5 12.5t6 13.5t8.5 16.5l10 16.5l12 19.5l12.5 20l14.5 22l15 23q9 10 12 12q3 0 8.5 1t10 2t5.5 1q4 0 4 -3l-27 -46l-24 -40.5t-17.5 -30.5t-12.5 -27.5t-4 -19.5q0 -12 11 -12q10 0 30 11t29 21q5 5 14 20.5l26.5 48l28.5 52.5
q29 52 40 52q11 -7 11 -26q0 -14 -94 -135l-54 -84l-55.5 -87.5t-54.5 -81t-58.5 -78t-58.5 -63.5t-64 -53t-65.5 -32t-71.5 -13q-75 0 -75 63q0 15 5 30q1 4 4 4q1 0 1 -3q0 -30 22 -50.5t69 -20.5q34 0 70.5 16t67 39.5t66.5 63.5t61 73t58.5 85l52 82.5l47.5 80.5
q1 2 1 3q-1 1 -4 -2q-37 -30 -69 -30z" />
    <glyph glyph-name="z" unicode="z" horiz-adv-x="223" 
d="M563 -42q-9 -41 -56.5 -72.5t-111.5 -31.5q-79 0 -159 39.5t-196 120.5q-6 4 -13 0q-15 -9 -30 -19q-8 -6 -11 2q-2 6 5 9q55 27 110.5 63.5t85 60.5t29.5 27q0 4 -4 4q-39 -13 -59 -13q-16 0 -29 10.5t-13 32.5q5 18 40 40q4 0 4 -4q-9 -9 -9 -28q0 -16 11.5 -26
t29.5 -10q40 0 94 52q6 6 11 -1q2 -4 -1 -9q-30 -21 -66 -52q-53 -46 -150 -111q-9 -5 0 -11q249 -166 340 -166t142 95q4 3 6 -2z" />
    <glyph glyph-name="braceleft" unicode="{" horiz-adv-x="265" 
d="M445 489q-1 0 -6 1.5t-10 1.5q-31 0 -70 -44q-27 -31 -63.5 -83.5t-64 -81.5t-64.5 -42q-4 -1 -4 -4q0 -1 2 -3q23 -12 23 -38q0 -25 -49.5 -118t-49.5 -128q0 -43 36 -43q6 0 6 -4t-7 -4q-29 0 -50.5 18t-21.5 46q0 34 62 126t62 115q0 13 -11.5 20.5t-25.5 7.5
q-5 0 -17 -3t-19 -3q-12 0 -12 8q0 4 5.5 8t10.5 4q4 0 13 -2t14 -2q24 0 43 14q38 28 78.5 99.5t67.5 102.5q28 32 78 38q21 3 43 3q7 0 7 -5t-6 -5z" />
    <glyph glyph-name="bar" unicode="|" horiz-adv-x="222" 
d="M168 -250h-20v1000h20v-1000z" />
    <glyph glyph-name="braceright" unicode="}" horiz-adv-x="265" 
d="M409 429q0 -32 -47 -103t-47 -86q0 -10 10 -10q6 0 21 3.5t22 3.5t7 -8q0 -15 -13 -15q-25 0 -42 -10q-33 -20 -74.5 -104t-70.5 -118q-27 -31 -69 -57.5t-76 -26.5q-4 0 -5 2q-1 3 4 5h2q53 9 101 70q24 30 51.5 80.5t57.5 89t77 68.5q4 3 4 5q0 1 -6.5 4.5t-13 12.5
t-6.5 23q0 28 45.5 99t45.5 101q0 26 -26 30q-5 1 -6.5 3.5t0.5 4.5t5 2q20 0 34.5 -23.5t14.5 -45.5z" />
    <glyph glyph-name="asciitilde" unicode="~" horiz-adv-x="400" 
d="M365 174l18 -17q-11 -15 -18 -23t-21 -16t-30 -8q-22 0 -58.5 19t-60.5 19q-30 0 -46 -41l-18 17q25 47 69 47q23 0 64 -18.5t53 -18.5q22 0 48 40z" />
    <glyph glyph-name="uni00A0" unicode="&#xa0;" horiz-adv-x="200" 
 />
    <glyph glyph-name="exclamdown" unicode="&#xa1;" horiz-adv-x="220" 
d="M11 -165q-4 1 -3 4.5t4 3.5q13 0 23 8q40 33 79 104t88 183q2 4 5 3t3 -5q-62 -176 -114 -276q-16 -31 -48 -31q-21 0 -37 6zM199 207q0 14 10 24.5t23 10.5q19 0 19 -19q0 -16 -7.5 -28t-22.5 -12q-22 0 -22 24z" />
    <glyph glyph-name="cent" unicode="&#xa2;" horiz-adv-x="367" 
d="M444 488q-4 -16 -19 -36q-12 -15 -51 -69q40 -11 44 -42q0 -7 -4 -8q-12 -5 -21 -21q-3 -4 -5 -4q-3 0 -3 7q-1 14 -10 25.5t-19 13.5q-84 -133 -158 -271q84 0 192 120q5 5 6 1q1 -1 0 -4q-34 -51 -98.5 -90.5t-108.5 -45.5q-87 -170 -87 -215q0 -4 3 -13q0 -2 -2 -3
t-4 2q-13 18 -13 30q0 18 93 197q-4 -1 -13 -1q-60 0 -60 47q0 49 37 113.5t98.5 113.5t121.5 49q50 82 74 109q7 4 7 -5zM345 357q-13 3 -30 3q-40 0 -79 -45.5t-60.5 -99.5t-21.5 -89q0 -39 35 -42q78 146 156 273z" />
    <glyph glyph-name="sterling" unicode="&#xa3;" horiz-adv-x="480" 
d="M466 427q0 -7 -2 -10q-5 -9 -9 -27q-1 -8 -5 -5q-1 2 -2 5q-3 11 -20.5 21.5t-44.5 10.5q-38 0 -67 -23.5t-58 -73.5l-47 -81q48 0 138 6q3 0 8 -4t5 -8q0 -3 -10 -3q-2 0 -48.5 1t-96.5 1q-42 -68 -103 -125q-4 -4 2 -4q21 4 41 4q68 0 141 -58q45 -35 81 -35
q23 0 48 16.5t40 44.5q0 4 4 3q3 0 3 -5q-9 -22 -48.5 -57t-71.5 -35q-22 0 -44 10.5t-62 46.5q-1 0 -16 14t-21.5 18l-21 13t-28.5 12.5t-30 3.5q-41 0 -74 -46q-39 -52 -47 -52q-10 0 -10 13q0 9 6 15q10 10 22.5 20l32.5 25l31 23q55 42 105 134q-50 -1 -67 -6
q-3 0 -7.5 4.5t-4.5 5.5q0 3 7 3q45 0 76 1q34 60 52 85q41 58 84 87.5t98 29.5q41 0 41 -19z" />
    <glyph glyph-name="currency" unicode="&#xa4;" horiz-adv-x="500" 
d="M76 49l-10 13q5 6 89 70q-13 30 -13 58q0 84 51 140q-1 6 -31 30.5t-46 36.5l11 12q6 -7 38.5 -37.5t35.5 -34.5q55 52 140 52q69 0 109 -42q3 2 37 28t47 35l6 -13q-3 0 -19 -12l-36 -26.5t-28 -19.5q24 -35 24 -88q0 -54 -42 -117q6 -4 41.5 -35t37.5 -33l-13 -8
q-15 17 -76 69q-16 -22 -55 -44t-86 -22q-87 0 -127 61q-19 -14 -49.5 -40t-35.5 -33zM337 381q-77 0 -127.5 -54.5t-50.5 -121.5q0 -60 31 -97t95 -37q78 0 129 54t51 122q0 59 -35 96.5t-93 37.5z" />
    <glyph glyph-name="yen" unicode="&#xa5;" horiz-adv-x="439" 
d="M622 472q0 -4 -8 -8q-135 -80 -313 -228q-13 -8 -2 -8q18 0 50 2q34 2 37 2q6 0 6 -4q-3 -8 -13 -8q-37 0 -93 -2q-8 0 -13 -9q-10 -20 -15 -31q-3 -7 2 -7q18 0 48 2t42 2q5 0 5 -5q0 -7 -8 -7q-56 0 -89 -2q-8 0 -13 -9l-62 -115q-5 -7 -5 -15q0 -11 24 -11q7 0 21 1
t17 1q7 0 7 -7q0 -6 -7 -6q-26 3 -70 3q-35 0 -107 -3q-8 0 -8 8q0 6 11 6q43 0 53 2q9 3 23 22q24 31 65 109q2 4 2.5 6.5t-1.5 3.5t-7 1q-37 0 -98 -9q-6 0 -6 3q8 10 24 12q8 0 29 1.5t38 2t25 0.5q7 0 10 7q18 28 18 38q0 3 -5 3q-13 0 -34 -1t-36.5 -2.5t-16.5 -1.5
q-8 0 -8 2t7 6.5t11 4.5q60 0 81 2q8 1 13 11q18 34 18 76q0 110 -92 110q-68 0 -115 -64q-7 -7 -7 4q61 83 164 83q42 0 65.5 -28.5t23.5 -71.5q0 -48 -30 -117q196 168 315 255q6 4 9 4q4 0 11 -6.5t7 -9.5z" />
    <glyph glyph-name="brokenbar" unicode="&#xa6;" horiz-adv-x="222" 
d="M208 675v-350h20v350h-20zM208 175v-349h20v349h-20z" />
    <glyph glyph-name="section" unicode="&#xa7;" horiz-adv-x="301" 
d="M364 411q0 -11 -16 -37q-4 -6 -7 -3q-1 1 -1 2q1 4 1 10q0 12 -14.5 21.5t-34.5 9.5q-37 0 -57 -24.5t-20 -49.5q0 -34 34 -82q39 -57 39 -92q0 -45 -42 -87q0 -53 -47.5 -96.5t-126.5 -43.5q-36 0 -62.5 21.5t-26.5 61.5q0 39 11 63q2 7 5 5q1 -2 1 -7q-5 -25 -5 -33
q0 -41 32 -65t84 -24q46 0 79 24.5t33 64.5q0 7 -2 17q-7 28 -42.5 69.5t-44.5 59.5q-7 14 -7 30q0 22 16 49t52 45q0 37 36 77t88 40q45 0 45 -26zM237 226q-17 22 -26 38t-11.5 24.5t-4.5 21.5q-13 -5 -26 -18.5t-13 -31.5q0 -30 34 -75q48 -55 55 -96q27 24 27 58
q0 21 -6.5 35.5t-28.5 43.5z" />
    <glyph glyph-name="dieresis" unicode="&#xa8;" 
d="M176 348q0 -12 -11 -24t-23 -12t-12 12q0 13 10 25t23 12t13 -13zM104 354q0 -12 -11 -24t-23 -12t-12 12q0 13 10 25t23 12t13 -13z" />
    <glyph glyph-name="copyright" unicode="&#xa9;" horiz-adv-x="600" 
d="M233 185q0 -53 30.5 -81.5t74.5 -28.5q30 0 58.5 17.5t37.5 30.5q3 5 9 2.5t-1 -8.5q-64 -58 -134 -58q-42 0 -76 28t-34 84q0 67 56 120.5t114 53.5q40 0 67.5 -12.5t37.5 -26.5q11 -15 0 -23q-7 -4 -25 -24t-22 -28q-3 -8 -8 -6q-3 1 1 4q21 29 21 49t-21 39t-60 19
q-43 0 -73.5 -29t-41.5 -61.5t-11 -60.5zM243 -31q11 -3 13 -4l-9 -2q-3 1 -6 1q-68 8 -117 53.5t-49 123.5q0 44 17.5 92.5t51.5 94t93 75t133 29.5q92 0 156 -56.5t64 -158.5q0 -91 -72 -173t-169 -82q-84 0 -118 51q-5 7 -2 7.5t10 -7.5q34 -44 116 -44q32 0 68 15
t69.5 44t55 78.5t21.5 110.5q0 36 -10.5 70t-32.5 66t-64 51.5t-98 19.5q-69 0 -124 -27t-85 -69t-45.5 -85t-15.5 -82q0 -54 15 -93t40.5 -58.5t47.5 -28.5t46 -12z" />
    <glyph glyph-name="ordfeminine" unicode="&#xaa;" horiz-adv-x="269" 
d="M340 211q9 8 2 10q-3 0 -5 -2q-14 -16 -39.5 -31.5t-42.5 -15.5q-24 0 -24 31t22.5 90.5t56.5 108.5q2 4 2 5t-3.5 6.5t-3.5 12.5q0 6 -4.5 7t-7.5 -4q-15 -19 -31 -53q-47 0 -115.5 -67t-68.5 -107q0 -18 17 -18q26 0 64.5 37t73.5 87q-40 -80 -40 -128q0 -33 27 -33
q48 0 120 64zM257 366q-20 -38 -48.5 -75.5t-49.5 -57.5t-27 -20q-8 0 -8 10q0 32 45 87.5t88 55.5z" />
    <glyph glyph-name="guillemotleft" unicode="&#xab;" horiz-adv-x="335" 
d="M359 219q0 -4 -3 -6l-109 -88q-6 -5 -6 -10q0 -20 43 -116q1 -2 1 -4q0 -4 -5 -5q-12 -3 -24 -10q-3 0 -4 5l-18 49l-17.5 47t-6.5 20q0 5 6 10q51 40 134 112q2 2 4 2q5 0 5 -6zM299 228q0 -3 -6 -7q-27 -16 -135 -104q-5 -4 -5 -10q0 -17 39 -117q0 -1 1 -3t1 -3
q0 -3 -3 -3q-22 -4 -29 -6q-3 0 -5 8q-8 35 -33 116q0 4 8 10q59 44 157 124q3 3 5 3q5 0 5 -8z" />
    <glyph glyph-name="logicalnot" unicode="&#xac;" horiz-adv-x="400" 
d="M350 185q-26 -46 -43 -97l-29 1q4 11 37 77q-81 6 -182 2l9 24q178 -6 203 -4z" />
    <glyph glyph-name="uni00AD" unicode="&#xad;" horiz-adv-x="316" 
d="M316 136q0 -8 -13 -8t-68.5 -0.5t-84.5 -0.5q-10 0 -10 6q0 9 12 9q7 0 27.5 -0.5t32.5 -0.5q21 0 53.5 1t39.5 1q11 0 11 -7z" />
    <glyph glyph-name="registered" unicode="&#xae;" horiz-adv-x="400" 
d="M473 351q0 -73 -52.5 -129t-142.5 -56q-58 0 -93 30t-35 87q0 29 11 60t33 60t61 47.5t88 18.5q130 0 130 -118zM281 333q92 0 92 55q0 29 -39 29h-10q-25 -46 -43 -84zM456 347q0 58 -26 87t-86 29q-85 0 -130.5 -51.5t-45.5 -126.5q0 -56 33 -84.5t88 -28.5
q80 0 123.5 53.5t43.5 121.5zM380 230h-34q-32 53 -68 98q-26 -50 -44 -98h-28q60 115 92 195h35q39 0 52.5 -7t13.5 -31q0 -33 -29 -46.5t-61 -14.5q54 -78 71 -96z" />
    <glyph glyph-name="macron" unicode="&#xaf;" 
d="M169 335l-3 -15l-88 -2l5 15z" />
    <glyph glyph-name="degree" unicode="&#xb0;" horiz-adv-x="228" 
d="M303 428q0 -23 -16.5 -40t-44.5 -17q-40 0 -40 36q0 20 15.5 38.5t44.5 18.5q41 0 41 -36zM291 426q0 32 -30 32q-23 0 -35 -14t-12 -35q0 -15 9 -23.5t23 -8.5q21 0 33 15.5t12 33.5z" />
    <glyph glyph-name="plusminus" unicode="&#xb1;" horiz-adv-x="400" 
d="M369 158l-14 -21q-21 -1 -89 -1q-40 -76 -43 -99l-23 17q7 19 44 83q-36 0 -90 3l11 23q35 -7 89 -7q28 51 44 76l30 -4q-28 -33 -52 -73q66 0 93 3zM309 19l-12 -23q-110 8 -219 3l14 24q24 -2 102.5 -3.5t114.5 -0.5z" />
    <glyph glyph-name="twosuperior" unicode="&#xb2;" horiz-adv-x="250" 
d="M251 423q-23 0 -40 -17q-4 -4 -7 1q-2 3 3 6q36 24 67 24q18 0 32 -9t14 -26q0 -35 -122 -111q-4 -2 0 -4q22 -11 61.5 -22.5t57.5 -11.5q25 0 41 21q3 4 6.5 1.5t-1.5 -7.5q-33 -32 -85 -32q-40 0 -108 28q-4 2 -7 2q-2 0 -8 -3q-11 -6 -25 -18q-5 -2 -7.5 0.5t2.5 6.5
l60 38q32 20 49 32.5t33 31.5t16 37q0 11 -7.5 21.5t-24.5 10.5z" />
    <glyph glyph-name="threesuperior" unicode="&#xb3;" horiz-adv-x="250" 
d="M344 423q0 -17 -25 -31q-39 -21 -39 -28q0 -6 13 -26q12 -17 12 -34q0 -23 -38.5 -48.5t-79.5 -25.5q-12 0 -24 9t-12 25q0 11 4 19h3q0 -38 53 -38q24 0 43.5 12t19.5 37q0 12 -17 37q-8 11 -8 19t8 14t35 20q20 10 20 26q0 24 -26 24q-33 0 -56 -25q-6 1 -3 10
q5 5 29 17l23 12q15 3 27 3q13 0 25.5 -6.5t12.5 -21.5z" />
    <glyph glyph-name="acute" unicode="&#xb4;" 
d="M197 393q0 -2 -3 -5q-79 -60 -160 -115q-6 -4 -7 0q0 1 1 2l156 126q4 2 5 2q2 0 5 -3.5t3 -6.5z" />
    <glyph glyph-name="mu" unicode="&#xb5;" horiz-adv-x="400" 
d="M136 73q-113 -192 -113 -275q0 -31 7 -44q2 -3 0.5 -4.5t-4.5 0.5q-9 14 -25 21q-1 4 -1 25q0 60 128 275l79 135q2 5 6 5q14 0 29 10q6 0 0 -9q-56 -75 -80 -137q-9 -22 -9 -40q0 -21 19 -21q29 0 74 55t87 138q1 5 8 5q9 0 27 9q5 0 3 -6q-26 -31 -60 -95t-34 -95
q0 -14 14 -14q13 0 36 20t42 47q5 7 5 -4q-57 -78 -104 -78q-23 0 -23 25q0 18 14 48q2 5 -1 5q-2 -1 -6 -5q-62 -72 -102 -72q-28 0 -28 32q0 16 12 44z" />
    <glyph glyph-name="paragraph" unicode="&#xb6;" horiz-adv-x="500" 
d="M483 260q-58 -6 -124 -129q-17 4 -38 47q-14 -14 -51 -34q16 -18 28 -48q41 29 58 30q-39 -61 -39 -94q0 -12 19 -20zM496 269q45 0 45 21q0 13 -15 39q-15 -33 -30 -60zM236 -234q6 0 3 -4q-1 -2 -3 -2l-13 -1q-7 0 -14 7t-8 18q-9 -9 -27.5 -16t-33.5 -7q-8 0 -6 6
q33 0 63 30t89 129l48 80l-83 -6q-41 0 -70 22t-29 62q0 88 82 136.5t197 48.5h57q29 55 32 74q11 5 22 20q3 -1 3 -5q0 -8 17 -48q3 -9 3 -17q0 -29 -73 -33l-261 -446q-10 -20 -10 -34t15 -14z" />
    <glyph glyph-name="periodcentered" unicode="&#xb7;" horiz-adv-x="220" 
d="M201 205q0 -12 -15 -30.5t-30 -18.5q-18 0 -18 16q0 19 13.5 34.5t30.5 15.5q19 0 19 -17z" />
    <glyph glyph-name="cedilla" unicode="&#xb8;" 
d="M162 -10q-11 -3 -24 -11.5t-13 -16.5q0 -6 16 -14t16 -19t-13 -21q-37 -32 -74 -50q-4 -2 -7 -2q-8 0 -8 6q0 2 5 4q18 5 42.5 18.5t24.5 25.5q0 8 -16 17.5t-16 17.5q0 12 22.5 27t41.5 23q4 0 5.5 -1t-2.5 -4z" />
    <glyph glyph-name="onesuperior" unicode="&#xb9;" horiz-adv-x="250" 
d="M347 429q0 -2 -3 -5q-16 -25 -52.5 -92t-36.5 -73q0 -5 10 -5q7 0 28.5 1t26.5 1q8 -3 3 -7q-4 -3 -13 -3q-3 0 -24.5 0.5t-39.5 0.5q-23 0 -52.5 -3t-34.5 -3q-8 2 -9 5t3 4q2 1 4 1q25 0 43 2q13 1 18 10q23 33 52 87t31 65q0 11 -9 11q-8 0 -28.5 -2t-27.5 -2t-10 5
q1 3 5 4q25 0 62 2t47 2q7 0 7 -6z" />
    <glyph glyph-name="ordmasculine" unicode="&#xba;" horiz-adv-x="237" 
d="M282 357q0 28 -20 28q-32 0 -96 -66t-64 -115q0 -35 33 -35q47 0 97 64t50 124zM246 342q0 -67 -32.5 -113.5t-58.5 -46.5q-15 0 -15 25q0 34 13 65t30.5 50t32.5 30t21 11q9 0 9 -21z" />
    <glyph glyph-name="guillemotright" unicode="&#xbb;" horiz-adv-x="361" 
d="M343 116q0 -4 -3 -6q-86 -63 -140 -117q-4 -4 -8 -4q-5 0 -5 5q0 3 5 8l117 98q2 2 2 4q0 1 -2 5q-9 14 -33 58.5t-24 47.5q0 4 6 7q14 7 21 7q6 0 9 -8q19 -50 51 -94q4 -6 4 -11zM257 114q0 -6 -4 -9q-79 -59 -143 -127q-8 -8 -16 -8t-8 5q0 3 6 8q64 49 127 107
q8 6 8 12q0 4 -4 9q-66 95 -66 106q0 4 5 6q3 0 12 2.5t11 2.5q5 0 9 -7q36 -66 61 -101q2 -4 2 -6z" />
    <glyph glyph-name="onequarter" unicode="&#xbc;" horiz-adv-x="600" 
d="M620 468q-248 -245 -486 -520q-10 -11 -25 -11q-9 0 -9 5l491 525q5 6 15 6q14 0 14 -5zM347 429q0 -2 -3 -5q-16 -25 -52.5 -91t-36.5 -72q0 -5 10 -5q7 0 28.5 1t26.5 1q8 -3 3 -8q-3 -4 -13 -4q-3 0 -24.5 0.5t-39.5 0.5q-23 0 -52 -3.5t-35 -3.5q-9 2 -9 7q0 3 7 4
q25 0 43 2q13 1 18 10q23 33 52 87t31 65q0 9 -9 9q-8 0 -28.5 -1t-27.5 -1t-10 5q1 3 5 4q25 0 62 2t47 2q7 0 7 -6zM458 -4q0 -8 3 -12q-4 -4 -8 -1q-4 9 -13 21q-4 6 -4 12q0 7 26 47q-69 0 -121 -11q-3 0 -3 3q0 10 2 20q0 4 6 4q13 2 21 6q49 22 92 52q21 15 21 39
q0 10 -4 15q0 5 10.5 10.5t19.5 6.5q6 0 6 -12q0 -31 -42 -60q-36 -24 -88 -53q-3 -3 1 -5q23 1 87 1q38 56 46 64q21 22 60 38q8 0 2 -4q-29 -18 -48 -44q-11 -15 -33 -54q42 0 54 -3q6 -2 6 -8q0 -11 -14 -27q-3 0 -3 3q4 13 1 15q-22 5 -52 5q-31 -52 -31 -68z" />
    <glyph glyph-name="onehalf" unicode="&#xbd;" horiz-adv-x="600" 
d="M620 468q-248 -245 -486 -520q-10 -11 -25 -11q-9 0 -9 5l491 525q5 6 15 6q14 0 14 -5zM446 183q-23 0 -40 -17q-4 -4 -7 1q-2 3 3 6q36 24 67 24q18 0 32 -9t14 -26q0 -35 -122 -111q-4 -2 0 -4q22 -11 61.5 -22.5t57.5 -11.5q24 0 41 21q3 4 6.5 1.5t-1.5 -7.5
q-33 -32 -85 -32q-40 0 -108 28q-4 2 -7 2q-2 0 -8 -3q-11 -6 -25 -18q-5 -2 -7.5 0.5t2.5 6.5l60 38q32 20 49 32.5t33 31.5t16 37q0 11 -7.5 21.5t-24.5 10.5zM347 429q0 -2 -3 -5q-16 -25 -52.5 -91t-36.5 -72q0 -5 10 -5q7 0 28.5 1t26.5 1q8 -3 3 -8q-3 -4 -13 -4
q-3 0 -24.5 0.5t-39.5 0.5q-23 0 -52 -3.5t-35 -3.5q-9 2 -9 7q0 3 7 4q25 0 43 2q13 1 18 10q23 33 52 87t31 65q0 9 -9 9q-8 0 -28.5 -1t-27.5 -1t-10 5q1 3 5 4q25 0 62 2t47 2q7 0 7 -6z" />
    <glyph glyph-name="threequarters" unicode="&#xbe;" horiz-adv-x="600" 
d="M620 468q-248 -245 -486 -520q-10 -11 -25 -11q-9 0 -9 5l491 525q5 6 15 6q14 0 14 -5zM458 -4q0 -8 3 -12q-4 -4 -8 -1q-4 9 -13 21q-4 6 -4 12q0 7 26 47q-69 0 -121 -11q-3 0 -3 3q0 10 2 20q0 4 6 4q13 2 21 6q49 22 92 52q21 15 21 39q0 10 -4 15q0 5 10.5 10.5
t19.5 6.5q6 0 6 -12q0 -31 -42 -60q-36 -24 -88 -53q-3 -3 1 -5q23 1 87 1q38 56 46 64q21 22 60 38q8 0 2 -4q-29 -18 -48 -44q-11 -15 -33 -54q42 0 54 -3q6 -2 6 -8q0 -11 -14 -27q-3 0 -3 3q4 13 1 15q-22 5 -52 5q-31 -52 -31 -68zM345 422q0 -19 -25 -33
q-39 -21 -39 -28q0 -5 13 -24q12 -17 12 -34q0 -23 -38.5 -48.5t-79.5 -25.5q-12 0 -24 9t-12 25q0 11 4 19h3q0 -36 53 -36q24 0 43.5 12t19.5 37q0 10 -17 35q-8 11 -8 19t8 14t35 20q20 10 20 26q0 24 -26 24q-33 0 -56 -25q-6 1 -3 10q5 5 28 17l24 12q15 3 27 3
q13 0 25.5 -6.5t12.5 -21.5z" />
    <glyph glyph-name="questiondown" unicode="&#xbf;" horiz-adv-x="260" 
d="M-19 -138q0 62 93 131l39 27.5l33 22.5t23.5 17t16.5 16.5t5 16.5q0 25 -22 44q-9 7 1 7q14 -2 30 0q18 -11 18 -44q0 -13 -14 -25q-21 -19 -54 -41l-54 -37t-39 -31.5t-31.5 -39.5t-8.5 -42q0 -27 14.5 -42.5t51.5 -26.5q17 -5 26.5 -9t13 -8t3 -7t-3.5 -8
q-26 -37 -33 -31q4 8 5 14t-10.5 12.5t-37.5 14.5q-65 19 -65 69zM231 212q0 7 14.5 16t23.5 9q4 0 12.5 -7.5t8.5 -13.5q0 -25 -39 -43q-7 0 -7 7q0 10 -6.5 19.5t-6.5 12.5z" />
    <glyph glyph-name="Agrave" unicode="&#xc0;" horiz-adv-x="486" 
d="M220 214v1q2 -14 103 -14q67 0 80 -4q10 -3 11.5 -2.5t3.5 7.5q5 24 14 74l16 92t8 45q3 9 -1 8q-2 0 -9 -5q-162 -129 -226 -202zM6 -85l-11 52q1 26 39 70q123 141 246.5 254t184.5 155q5 3 24.5 9t23.5 10q6 6 7 0q0 -3 -2 -7q-17 -26 -24 -67q-6 -24 -30 -159.5
t-25 -164.5q-1 -47 30 -47q3 0 7 1t10 2t10 2q8 1 8.5 -1.5t-7.5 -4.5q-4 -1 -39 -11t-50 -13q-15 0 -20 20q3 13 11 68.5t9 65.5q0 12 -11 23.5t-30 15.5q-18 4 -75 4q-66 0 -93 3q-133 -132 -177 -225q-8 -17 -10 -52q0 -7 -6 -3zM496 489q0 -2 -2 -2.5t-3 1.5l-49 93
q-3 6 -3 11q0 3 4 9t6 6q3 0 4 -4q40 -102 43 -114z" />
    <glyph glyph-name="Aacute" unicode="&#xc1;" horiz-adv-x="486" 
d="M220 214v1q2 -14 103 -14q67 0 80 -4q10 -3 11.5 -2.5t3.5 7.5q5 24 14 74l16 92t8 45q3 9 -1 8q-2 0 -9 -5q-162 -129 -226 -202zM6 -85l-11 52q1 26 39 70q123 141 246.5 254t184.5 155q5 3 24.5 9t23.5 10q6 6 7 0q0 -3 -2 -7q-17 -26 -24 -67q-6 -24 -30 -159.5
t-25 -164.5q-1 -47 30 -47q3 0 7 1t10 2t10 2q8 1 8.5 -1.5t-7.5 -4.5q-4 -1 -39 -11t-50 -13q-15 0 -20 20q3 13 11 68.5t9 65.5q0 12 -11 23.5t-30 15.5q-18 4 -75 4q-66 0 -93 3q-133 -132 -177 -225q-8 -17 -10 -52q0 -7 -6 -3zM651 603q0 -2 -3 -5q-79 -60 -160 -115
q-6 -4 -7 0q0 1 1 2l156 126q4 2 5 2q2 0 5 -3.5t3 -6.5z" />
    <glyph glyph-name="Acircumflex" unicode="&#xc2;" horiz-adv-x="486" 
d="M220 214v1q2 -14 103 -14q67 0 80 -4q10 -3 11.5 -2.5t3.5 7.5q5 24 14 74l16 92t8 45q3 9 -1 8q-2 0 -9 -5q-162 -129 -226 -202zM6 -85l-11 52q1 26 39 70q123 141 246.5 254t184.5 155q5 3 24.5 9t23.5 10q6 6 7 0q0 -3 -2 -7q-17 -26 -24 -67q-6 -24 -30 -159.5
t-25 -164.5q-1 -47 30 -47q3 0 7 1t10 2t10 2q8 1 8.5 -1.5t-7.5 -4.5q-4 -1 -39 -11t-50 -13q-15 0 -20 20q3 13 11 68.5t9 65.5q0 12 -11 23.5t-30 15.5q-18 4 -75 4q-66 0 -93 3q-133 -132 -177 -225q-8 -17 -10 -52q0 -7 -6 -3zM565 505q0 -12 -4 -15l-16 -12q-3 0 -3 7
q0 9 -3 90q0 6 -4 6q-2 0 -5 -3q-37 -33 -77 -78q-9 -11 -13 -11t-4 5q0 6 9 13q31 27 74 70q21 21 32 28q4 2 5 2q4 0 4 -5q0 -18 2.5 -51.5t2.5 -45.5z" />
    <glyph glyph-name="Atilde" unicode="&#xc3;" horiz-adv-x="486" 
d="M220 214v1q2 -14 103 -14q67 0 80 -4q10 -3 11.5 -2.5t3.5 7.5q5 24 14 74l16 92t8 45q3 9 -1 8q-2 0 -9 -5q-162 -129 -226 -202zM6 -85l-11 52q1 26 39 70q123 141 246.5 254t184.5 155q5 3 24.5 9t23.5 10q6 6 7 0q0 -3 -2 -7q-17 -26 -24 -67q-6 -24 -30 -159.5
t-25 -164.5q-1 -47 30 -47q3 0 7 1t10 2t10 2q8 1 8.5 -1.5t-7.5 -4.5q-4 -1 -39 -11t-50 -13q-15 0 -20 20q3 13 11 68.5t9 65.5q0 12 -11 23.5t-30 15.5q-18 4 -75 4q-66 0 -93 3q-133 -132 -177 -225q-8 -17 -10 -52q0 -7 -6 -3zM621 557q-3 -24 -20.5 -43t-39.5 -19
q-20 0 -48.5 27.5t-41.5 27.5q-24 0 -58 -46q-5 -7 -8.5 -5t2.5 11q22 28 52 50q13 10 26 10q14 0 42 -28.5t47 -28.5q16 0 27 13.5t11 30.5q0 5 4.5 7t4.5 -7z" />
    <glyph glyph-name="Adieresis" unicode="&#xc4;" horiz-adv-x="486" 
d="M220 214v1q2 -14 103 -14q67 0 80 -4q10 -3 11.5 -2.5t3.5 7.5q5 24 14 74l16 92t8 45q3 9 -1 8q-2 0 -9 -5q-162 -129 -226 -202zM6 -85l-11 52q1 26 39 70q123 141 246.5 254t184.5 155q5 3 24.5 9t23.5 10q6 6 7 0q0 -3 -2 -7q-17 -26 -24 -67q-6 -24 -30 -159.5
t-25 -164.5q-1 -47 30 -47q3 0 7 1t10 2t10 2q8 1 8.5 -1.5t-7.5 -4.5q-4 -1 -39 -11t-50 -13q-15 0 -20 20q3 13 11 68.5t9 65.5q0 12 -11 23.5t-30 15.5q-18 4 -75 4q-66 0 -93 3q-133 -132 -177 -225q-8 -17 -10 -52q0 -7 -6 -3zM565 548q0 -12 -11 -24t-23 -12t-12 12
q0 13 10 25t23 12t13 -13zM493 554q0 -12 -11 -24t-23 -12t-12 12q0 13 10 25t23 12t13 -13z" />
    <glyph glyph-name="Aring" unicode="&#xc5;" horiz-adv-x="486" 
d="M220 214v1q2 -14 103 -14q67 0 80 -4q10 -3 11.5 -2.5t3.5 7.5q5 24 14 74l16 92t8 45q3 9 -1 8q-2 0 -9 -5q-162 -129 -226 -202zM6 -85l-11 52q1 26 39 70q123 141 246.5 254t184.5 155q5 3 24.5 9t23.5 10q6 6 7 0q0 -3 -2 -7q-17 -26 -24 -67q-6 -24 -30 -159.5
t-25 -164.5q-1 -47 30 -47q3 0 7 1t10 2t10 2q8 1 8.5 -1.5t-7.5 -4.5q-4 -1 -39 -11t-50 -13q-15 0 -20 20q3 13 11 68.5t9 65.5q0 12 -11 23.5t-30 15.5q-18 4 -75 4q-66 0 -93 3q-133 -132 -177 -225q-8 -17 -10 -52q0 -7 -6 -3zM586 562q0 -27 -19.5 -47.5t-52.5 -20.5
q-22 0 -35 11.5t-13 31.5q0 24 18.5 46t52.5 22q49 0 49 -43zM572 560q0 39 -36 39q-27 0 -41.5 -17.5t-14.5 -42.5q0 -18 11 -28.5t27 -10.5q25 0 39.5 19t14.5 41z" />
    <glyph glyph-name="AE" unicode="&#xc6;" horiz-adv-x="777" 
d="M846 431q0 -3 -3 -8q-4 -5 -10 -19q-4 -11 -9 1q-2 5 -9 7q-53 9 -139 9q-16 0 -24 -10q-34 -45 -110 -180q116 0 219 9q-6 -8 -8 -16q-1 -6 -9 -6h-1q-68 2 -101 2q-18 0 -53.5 -0.5t-53.5 -0.5q-46 -82 -68 -133q-10 -21 -10 -40q0 -47 70 -47q54 0 136.5 15.5
t137.5 51.5q5 2 6.5 0t-3.5 -7q-13 -12 -21 -24q-7 -13 -29 -18q-104 -23 -210 -28q-93 0 -120.5 7.5t-27.5 32.5q0 16 12 38q21 40 86 151q-154 0 -224 -6q-171 -110 -253 -203q-16 -19 -20 -35q-2 -5 -5.5 -5t-3.5 7q0 4 2 17t2 18q0 11 7 19q44 44 253 183q-3 5 -3 13
q0 9 37 9l170 108.5t108 67.5t3 5t-6 3q-92 0 -133 -7q-10 -2 -13 -6q-6 -4 -6 0q3 8 5 20q2 6 11 6h12q15 0 72 -1t105 -1q26 0 84.5 2.5t67.5 2.5q17 1 56 1q24 0 24 -5zM603 416q-166 -91 -300 -182q46 -3 198 -3q87 156 102 185z" />
    <glyph glyph-name="Ccedilla" unicode="&#xc7;" horiz-adv-x="516" 
d="M558 317l-9 -3q5 18 5 34q0 37 -26.5 63t-91.5 26q-47 0 -101 -39q-60 -43 -120.5 -138.5t-60.5 -179.5q0 -82 105 -82q158 0 284 174q3 4 5 4q4 0 4 -14q0 -10 -8 -24q-46 -69 -122 -108.5t-165 -39.5q-147 0 -147 117q0 72 48.5 150.5t112.5 127.5q79 61 172 61
q85 0 143 -34q8 -4 8 -12q-20 -36 -36 -83zM285 -17q-11 -3 -24 -11.5t-13 -16.5q0 -6 16 -14t16 -19t-13 -21q-37 -32 -74 -50q-4 -2 -7 -2q-8 0 -8 6q0 2 5 4q18 5 42.5 18.5t24.5 25.5q0 9 -16 18t-16 17q0 12 22.5 27t41.5 23q4 0 5.5 -1t-2.5 -4z" />
    <glyph glyph-name="Egrave" unicode="&#xc8;" horiz-adv-x="475" 
d="M487 67q1 1 2.5 -0.5t1.5 -3.5q-10 -9 -21 -26q-7 -13 -28 -18q-119 -27 -227 -27q-72 0 -97.5 9.5t-25.5 31.5q0 18 11 38l25.5 44.5l41.5 73t19 34.5q0 5 -17 5q-5 0 -5 3q0 7 12 9q23 3 34 24q83 149 83 159q0 4 -6 4q-74 0 -113 -10l-2 1q1 17 8 23q82 -4 131 -4
q10 0 99 3t125 3q6 0 6 -5q-1 -2 -4.5 -8.5l-7.5 -14t-7 -14.5l-4 1q0 15 -8 17q-53 9 -139 9q-16 0 -24 -10q-42 -56 -106 -170q-4 -9 6 -9q18 -1 57 -1q90 0 150 13l3 -3q-7 -11 -10 -21q-1 -4 -8 -4q-70 2 -118 2q-60 0 -85 -1q-8 0 -11 -6q-44 -77 -65 -127
q-10 -23 -10 -41q0 -47 71 -47q59 0 142.5 18t120.5 46zM441 479q0 -2 -1.5 -2.5t-3.5 1.5l-49 93q-3 6 -3 11q0 3 4 9t6 6q3 0 4 -4q40 -101 43 -114z" />
    <glyph glyph-name="Eacute" unicode="&#xc9;" horiz-adv-x="475" 
d="M487 67q1 1 2.5 -0.5t1.5 -3.5q-10 -9 -21 -26q-7 -13 -28 -18q-119 -27 -227 -27q-72 0 -97.5 9.5t-25.5 31.5q0 18 11 38l25.5 44.5l41.5 73t19 34.5q0 5 -17 5q-5 0 -5 3q0 7 12 9q23 3 34 24q83 149 83 159q0 4 -6 4q-74 0 -113 -10l-2 1q1 17 8 23q82 -4 131 -4
q10 0 99 3t125 3q6 0 6 -5q-1 -2 -4.5 -8.5l-7.5 -14t-7 -14.5l-4 1q0 15 -8 17q-53 9 -139 9q-16 0 -24 -10q-42 -56 -106 -170q-4 -9 6 -9q18 -1 57 -1q90 0 150 13l3 -3q-7 -11 -10 -21q-1 -4 -8 -4q-70 2 -118 2q-60 0 -85 -1q-8 0 -11 -6q-44 -77 -65 -127
q-10 -23 -10 -41q0 -47 71 -47q59 0 142.5 18t120.5 46zM554 603q0 -2 -3 -5q-79 -60 -160 -115q-6 -4 -7 0q0 1 1 2l156 126q4 2 5 2q2 0 5 -3.5t3 -6.5z" />
    <glyph glyph-name="Ecircumflex" unicode="&#xca;" horiz-adv-x="475" 
d="M487 67q1 1 2.5 -0.5t1.5 -3.5q-10 -9 -21 -26q-7 -13 -28 -18q-119 -27 -227 -27q-72 0 -97.5 9.5t-25.5 31.5q0 18 11 38l25.5 44.5l41.5 73t19 34.5q0 5 -17 5q-5 0 -5 3q0 7 12 9q23 3 34 24q83 149 83 159q0 4 -6 4q-74 0 -113 -10l-2 1q1 17 8 23q82 -4 131 -4
q10 0 99 3t125 3q6 0 6 -5q-1 -2 -4.5 -8.5l-7.5 -14t-7 -14.5l-4 1q0 15 -8 17q-53 9 -139 9q-16 0 -24 -10q-42 -56 -106 -170q-4 -9 6 -9q18 -1 57 -1q90 0 150 13l3 -3q-7 -11 -10 -21q-1 -4 -8 -4q-70 2 -118 2q-60 0 -85 -1q-8 0 -11 -6q-44 -77 -65 -127
q-10 -23 -10 -41q0 -47 71 -47q59 0 142.5 18t120.5 46zM496 505q0 -12 -4 -15l-16 -12q-3 0 -3 7q0 9 -3 90q0 6 -4 6q-2 0 -5 -3q-37 -33 -77 -78q-9 -11 -13 -11t-4 5q0 6 9 13q31 27 74 70q21 21 32 28q4 2 5 2q4 0 4 -5q0 -18 2.5 -51.5t2.5 -45.5z" />
    <glyph glyph-name="Edieresis" unicode="&#xcb;" horiz-adv-x="475" 
d="M487 67q1 1 2.5 -0.5t1.5 -3.5q-10 -9 -21 -26q-7 -13 -28 -18q-119 -27 -227 -27q-72 0 -97.5 9.5t-25.5 31.5q0 18 11 38l25.5 44.5l41.5 73t19 34.5q0 5 -17 5q-5 0 -5 3q0 7 12 9q23 3 34 24q83 149 83 159q0 4 -6 4q-74 0 -113 -10l-2 1q1 17 8 23q82 -4 131 -4
q10 0 99 3t125 3q6 0 6 -5q-1 -2 -4.5 -8.5l-7.5 -14t-7 -14.5l-4 1q0 15 -8 17q-53 9 -139 9q-16 0 -24 -10q-42 -56 -106 -170q-4 -9 6 -9q18 -1 57 -1q90 0 150 13l3 -3q-7 -11 -10 -21q-1 -4 -8 -4q-70 2 -118 2q-60 0 -85 -1q-8 0 -11 -6q-44 -77 -65 -127
q-10 -23 -10 -41q0 -47 71 -47q59 0 142.5 18t120.5 46zM485 548q0 -12 -11 -24t-23 -12t-12 12q0 13 10 25t23 12t13 -13zM413 554q0 -12 -11 -24t-23 -12t-12 12q0 13 10 25t23 12t13 -13z" />
    <glyph glyph-name="Igrave" unicode="&#xcc;" horiz-adv-x="245" 
d="M36 3q16 2 28 17q43 52 129 191t104 193q2 6 2 11q0 11 -27 11q-34 0 -55 -5l-3 1q2 8 6 12q98 4 152 12q5 -3 5 -8q0 -2 -6 -4q-10 -3 -23 -25q-121 -226 -226 -384q-15 -21 -37 -25q-27 -4 -47 -2q-2 1 -2 5zM348 489q0 -2 -2 -2.5t-3 1.5l-49 93q-3 6 -3 11q0 3 4 9
t6 6q3 0 4 -4q40 -102 43 -114z" />
    <glyph glyph-name="Iacute" unicode="&#xcd;" horiz-adv-x="245" 
d="M36 3q16 2 28 17q43 52 129 191t104 193q2 6 2 11q0 11 -27 11q-34 0 -55 -5l-3 1q2 8 6 12q98 4 152 12q5 -3 5 -8q0 -2 -6 -4q-10 -3 -23 -25q-121 -226 -226 -384q-15 -21 -37 -25q-27 -4 -47 -2q-2 1 -2 5zM473 603q0 -2 -3 -5q-79 -60 -160 -115q-6 -4 -7 0
q-1 1 1 2l156 126q4 2 5 2q2 0 5 -3.5t3 -6.5z" />
    <glyph glyph-name="Icircumflex" unicode="&#xce;" horiz-adv-x="245" 
d="M36 3q16 2 28 17q43 52 129 191t104 193q2 6 2 11q0 11 -27 11q-34 0 -55 -5l-3 1q2 8 6 12q98 4 152 12q5 -3 5 -8q0 -2 -6 -4q-10 -3 -23 -25q-121 -226 -226 -384q-15 -21 -37 -25q-27 -4 -47 -2q-2 1 -2 5zM416 505q0 -12 -4 -15l-16 -12q-3 0 -3 7q0 9 -3 90
q0 6 -4 6q-2 0 -5 -3q-37 -33 -77 -78q-9 -11 -13 -11t-4 5q0 6 9 13q31 27 74 70q21 21 32 28q4 2 5 2q4 0 4 -5q0 -18 2.5 -51.5t2.5 -45.5z" />
    <glyph glyph-name="Idieresis" unicode="&#xcf;" horiz-adv-x="245" 
d="M36 3q16 2 28 17q43 52 129 191t104 193q2 6 2 11q0 11 -27 11q-34 0 -55 -5l-3 1q2 8 6 12q98 4 152 12q5 -3 5 -8q0 -2 -6 -4q-10 -3 -23 -25q-121 -226 -226 -384q-15 -21 -37 -25q-27 -4 -47 -2q-2 1 -2 5zM427 548q0 -12 -11 -24t-23 -12t-12 12q0 13 10 25t23 12
t13 -13zM355 554q0 -12 -11 -24t-23 -12t-12 12q0 13 10 25t23 12t13 -13z" />
    <glyph glyph-name="Eth" unicode="&#xd0;" horiz-adv-x="563" 
d="M607 298q0 -81 -55.5 -161t-131.5 -114q-70 -31 -159 -31q-46 0 -76.5 7.5t-44 15t-19.5 7.5q-10 0 -29.5 -11t-22.5 -11h-1q-3 0 -3 3t5.5 9.5l15.5 19t18 27.5l17 30l34.5 59.5l38.5 66.5q-5 0 -28 -2t-27 -2q-16 0 -16 17q0 2 2 2l16 -2q4 0 11.5 -0.5t9.5 -0.5
q5 0 20 0.5t19 0.5q104 180 104 191q0 5 -8 5q-22 0 -65 -6.5t-60 -6.5t-17 16q0 13 5 13l7 -3q7 -3 17 -5.5t18 -2.5q18 0 82 3.5t110 3.5q213 0 213 -138zM559 304q0 45 -27.5 74t-64 39t-81.5 10q-23 0 -31 -12q-50 -78 -110 -185q78 2 97 2q22 0 25 -1q3 0 4.5 -4.5
t0 -8.5t-3.5 -4q-5 4 -31 4q-59 0 -100 -2q-54 -96 -83 -157q-4 -8 -4 -13q0 -7 11.5 -17t38.5 -19.5t60 -9.5q70 0 133 30q70 34 118 114.5t48 159.5z" />
    <glyph glyph-name="Ntilde" unicode="&#xd1;" horiz-adv-x="549" 
d="M105 -15h-3q-4 4 -13 20t-9 24q0 14 20 47l101 170q56 91 74 139q4 10 4 17q0 21 -24 21q-25 0 -53 -2q-9 0 -9 14q0 4 3 4q19 -6 53 -6q37 0 69 10q6 0 8 -9q3 -16 12 -50q9 -35 27 -86.5l42.5 -118l33.5 -90.5q5 -18 11 -18q4 0 13 17q134 271 198 370q39 62 80 62
q7 0 17.5 -6.5t13.5 -14.5q0 -2 -3 -2q-55 0 -109 -75q-85 -118 -179 -325l-14.5 -33l-17 -39l-13.5 -30q-4 -7 -6 -7q-4 0 -9 7q-41 147 -123 352q-6 13 -11 13t-13 -12q-101 -156 -150 -266q-21 -48 -21 -97zM610 557q-3 -24 -20.5 -43t-39.5 -19q-20 0 -48.5 27.5
t-41.5 27.5q-24 0 -58 -46q-5 -7 -8.5 -5t2.5 11q22 28 52 50q13 10 26 10q14 0 42 -28.5t47 -28.5q16 0 27 13.5t11 30.5q0 5 4.5 7t4.5 -7z" />
    <glyph glyph-name="Ograve" unicode="&#xd2;" horiz-adv-x="589" 
d="M637 319q-2 -126 -103 -227t-230 -101q-184 0 -184 130q0 60 39.5 133.5t87.5 117.5q82 75 208 75q34 0 64 -6t58 -19.5t44.5 -40t15.5 -62.5zM587 326q0 114 -131 114q-100 0 -172 -81q-44 -49 -80 -120.5t-36 -127.5q0 -111 128 -111q75 0 143.5 52t108 127t39.5 147z
M488 499q0 -2 -2 -2.5t-3 1.5l-49 93q-3 6 -3 11q0 3 4 9t6 6q3 0 4 -4q40 -102 43 -114z" />
    <glyph glyph-name="Oacute" unicode="&#xd3;" horiz-adv-x="589" 
d="M637 319q-2 -126 -103 -227t-230 -101q-184 0 -184 130q0 60 39.5 133.5t87.5 117.5q82 75 208 75q34 0 64 -6t58 -19.5t44.5 -40t15.5 -62.5zM587 326q0 114 -131 114q-100 0 -172 -81q-44 -49 -80 -120.5t-36 -127.5q0 -111 128 -111q75 0 143.5 52t108 127t39.5 147z
M620 613q0 -2 -3 -5q-79 -60 -160 -115q-6 -4 -7 0q0 1 1 2l156 126q4 2 5 2q2 0 5 -3.5t3 -6.5z" />
    <glyph glyph-name="Ocircumflex" unicode="&#xd4;" horiz-adv-x="589" 
d="M637 319q-2 -126 -103 -227t-230 -101q-184 0 -184 130q0 60 39.5 133.5t87.5 117.5q82 75 208 75q34 0 64 -6t58 -19.5t44.5 -40t15.5 -62.5zM587 326q0 114 -131 114q-100 0 -172 -81q-44 -49 -80 -120.5t-36 -127.5q0 -111 128 -111q75 0 143.5 52t108 127t39.5 147z
M567 515q0 -12 -4 -15l-16 -12q-3 0 -3 7q0 9 -3 90q0 6 -4 6q-2 0 -5 -3q-37 -33 -77 -78q-9 -11 -13 -11t-4 5q0 6 9 13q31 27 74 70q21 21 32 28q4 2 5 2q4 0 4 -5q0 -18 2.5 -51.5t2.5 -45.5z" />
    <glyph glyph-name="Otilde" unicode="&#xd5;" horiz-adv-x="589" 
d="M637 319q-2 -126 -103 -227t-230 -101q-184 0 -184 130q0 60 39.5 133.5t87.5 117.5q82 75 208 75q34 0 64 -6t58 -19.5t44.5 -40t15.5 -62.5zM587 326q0 114 -131 114q-100 0 -172 -81q-44 -49 -80 -120.5t-36 -127.5q0 -111 128 -111q75 0 143.5 52t108 127t39.5 147z
M616 557q-3 -24 -20.5 -43t-39.5 -19q-20 0 -48.5 27.5t-41.5 27.5q-24 0 -58 -46q-5 -7 -8.5 -5t2.5 11q22 28 52 50q13 10 26 10q14 0 42 -28.5t47 -28.5q16 0 27 13.5t11 30.5q0 5 4.5 7t4.5 -7z" />
    <glyph glyph-name="Odieresis" unicode="&#xd6;" horiz-adv-x="589" 
d="M637 319q-2 -126 -103 -227t-230 -101q-184 0 -184 130q0 60 39.5 133.5t87.5 117.5q82 75 208 75q34 0 64 -6t58 -19.5t44.5 -40t15.5 -62.5zM587 326q0 114 -131 114q-100 0 -172 -81q-44 -49 -80 -120.5t-36 -127.5q0 -111 128 -111q75 0 143.5 52t108 127t39.5 147z
M577 548q0 -12 -11 -24t-23 -12t-12 12q0 13 10 25t23 12t13 -13zM505 554q0 -12 -11 -24t-23 -12t-12 12q0 13 10 25t23 12t13 -13z" />
    <glyph glyph-name="multiply" unicode="&#xd7;" horiz-adv-x="400" 
d="M361 198q-38 -18 -126 -78q6 -48 24 -82l-25 -7q-13 45 -17 77q-91 -70 -99 -77l-19 16q48 38 114 80q-11 37 -11 85l27 5q0 -61 2 -78q32 24 106 73z" />
    <glyph glyph-name="Oslash" unicode="&#xd8;" horiz-adv-x="589" 
d="M171 20l-42 -41q-12 -12 -20 -7q-9 6 10 22l39 34q-38 32 -38 93q0 60 39.5 133.5t87.5 117.5q82 75 208 75q76 0 125 -27l41 40q12 11 19 7q7 -3 -6 -16l-42 -39q46 -33 45 -93q-2 -126 -103 -227t-230 -101q-88 0 -133 29zM182 50l380 352q-32 38 -106 38
q-100 0 -172 -81q-44 -49 -80 -120.5t-36 -127.5q0 -38 14 -61zM189 38q30 -38 107 -38q75 0 143.5 52t108 127t39.5 147q0 39 -17 65z" />
    <glyph glyph-name="Ugrave" unicode="&#xd9;" horiz-adv-x="617" 
d="M746 438q-12 -2 -21 -12q-85 -104 -152 -239q-49 -98 -49 -141q0 -46 43 -46q12 0 27.5 4t27 9t20.5 9.5t10 4.5q5 0 6 -4.5t-4 -5.5q-72 -32 -122 -32q-66 0 -66 51q0 19 10 43t20 41t10 18q0 2 -1 2.5t-2 -1.5q-70 -79 -146.5 -114.5t-133.5 -35.5q-43 0 -75 20.5
t-32 62.5q0 30 20 67q21 38 79.5 130.5t79.5 131.5q4 8 4 12q0 9 -15 9q-55 0 -73 -1q-5 3 -5 8t7 5q4 0 32.5 -1.5t47.5 -1.5q37 0 66 4t34 4t5 -3q-1 -4 -6 -6q-24 -4 -34 -16q-67 -84 -160 -249q-25 -44 -25 -82q0 -32 20.5 -51t59.5 -19q79 0 156.5 56t129.5 135
q21 33 64 112.5t46 85.5q14 24 35 31q45 15 60 15q7 0 6 -6q-1 -4 -4 -4zM551 489q0 -2 -1.5 -2.5t-3.5 1.5l-49 93q-3 6 -3 11q0 3 4 9t6 6q3 0 4 -4q40 -102 43 -114z" />
    <glyph glyph-name="Uacute" unicode="&#xda;" horiz-adv-x="617" 
d="M746 438q-12 -2 -21 -12q-85 -104 -152 -239q-49 -98 -49 -141q0 -46 43 -46q12 0 27.5 4t27 9t20.5 9.5t10 4.5q5 0 6 -4.5t-4 -5.5q-72 -32 -122 -32q-66 0 -66 51q0 19 10 43t20 41t10 18q0 2 -1 2.5t-2 -1.5q-70 -79 -146.5 -114.5t-133.5 -35.5q-43 0 -75 20.5
t-32 62.5q0 30 20 67q21 38 79.5 130.5t79.5 131.5q4 8 4 12q0 9 -15 9q-55 0 -73 -1q-5 3 -5 8t7 5q4 0 32.5 -1.5t47.5 -1.5q37 0 66 4t34 4t5 -3q-1 -4 -6 -6q-24 -4 -34 -16q-67 -84 -160 -249q-25 -44 -25 -82q0 -32 20.5 -51t59.5 -19q79 0 156.5 56t129.5 135
q21 33 64 112.5t46 85.5q14 24 35 31q45 15 60 15q7 0 6 -6q-1 -4 -4 -4zM686 603q0 -2 -3 -5q-79 -60 -160 -115q-6 -4 -7 0q0 1 1 2l156 126q4 2 5 2q2 0 5 -3.5t3 -6.5z" />
    <glyph glyph-name="Ucircumflex" unicode="&#xdb;" horiz-adv-x="617" 
d="M746 438q-12 -2 -21 -12q-85 -104 -152 -239q-49 -98 -49 -141q0 -46 43 -46q12 0 27.5 4t27 9t20.5 9.5t10 4.5q5 0 6 -4.5t-4 -5.5q-72 -32 -122 -32q-66 0 -66 51q0 19 10 43t20 41t10 18q0 2 -1 2.5t-2 -1.5q-70 -79 -146.5 -114.5t-133.5 -35.5q-43 0 -75 20.5
t-32 62.5q0 30 20 67q21 38 79.5 130.5t79.5 131.5q4 8 4 12q0 9 -15 9q-55 0 -73 -1q-5 3 -5 8t7 5q4 0 32.5 -1.5t47.5 -1.5q37 0 66 4t34 4t5 -3q-1 -4 -6 -6q-24 -4 -34 -16q-67 -84 -160 -249q-25 -44 -25 -82q0 -32 20.5 -51t59.5 -19q79 0 156.5 56t129.5 135
q21 33 64 112.5t46 85.5q14 24 35 31q45 15 60 15q7 0 6 -6q-1 -4 -4 -4zM605 505q0 -12 -4 -15l-16 -12q-3 0 -3 7q0 9 -3 90q0 6 -4 6q-2 0 -5 -3q-37 -33 -77 -78q-9 -11 -13 -11t-4 5q0 6 9 13q31 27 74 70q21 21 32 28q4 2 5 2q4 0 4 -5q0 -18 2.5 -51.5t2.5 -45.5z
" />
    <glyph glyph-name="Udieresis" unicode="&#xdc;" horiz-adv-x="617" 
d="M746 438q-12 -2 -21 -12q-85 -104 -152 -239q-49 -98 -49 -141q0 -46 43 -46q12 0 27.5 4t27 9t20.5 9.5t10 4.5q5 0 6 -4.5t-4 -5.5q-72 -32 -122 -32q-66 0 -66 51q0 19 10 43t20 41t10 18q0 2 -1 2.5t-2 -1.5q-70 -79 -146.5 -114.5t-133.5 -35.5q-43 0 -75 20.5
t-32 62.5q0 30 20 67q21 38 79.5 130.5t79.5 131.5q4 8 4 12q0 9 -15 9q-55 0 -73 -1q-5 3 -5 8t7 5q4 0 32.5 -1.5t47.5 -1.5q37 0 66 4t34 4t5 -3q-1 -4 -6 -6q-24 -4 -34 -16q-67 -84 -160 -249q-25 -44 -25 -82q0 -32 20.5 -51t59.5 -19q79 0 156.5 56t129.5 135
q21 33 64 112.5t46 85.5q14 24 35 31q45 15 60 15q7 0 6 -6q-1 -4 -4 -4zM606 538q0 -12 -11 -24t-23 -12t-12 12q0 13 10 25t23 12t13 -13zM534 544q0 -12 -11 -24t-23 -12t-12 12q0 13 10 25t23 12t13 -13z" />
    <glyph glyph-name="Yacute" unicode="&#xdd;" horiz-adv-x="401" 
d="M744 445l-3 -3q-6 2 -22 2q-55 0 -174 -79t-210 -167q-30 -30 -40 -47q-63 -110 -72 -143q-2 -9 -13 -8q-31 2 -36 0.5t-25 -14.5q-3 -1 -3.5 3t2.5 7q20 15 52.5 64.5t52.5 93.5q29 62 29 122q0 59 -26.5 97t-84.5 38q-67 0 -101 -47q-4 -4 -8.5 -3.5t0.5 8.5
q58 72 152 72q55 0 82 -39.5t27 -99.5q0 -14 -2.5 -34.5t-5 -36t-2.5 -16.5q-1 -5 1.5 -7.5t6.5 1.5l90.5 70.5l106 83l88.5 65.5q60 43 101 43q11 0 21.5 -8.5t15.5 -17.5zM597 593q0 -2 -3 -5q-79 -60 -160 -115q-6 -4 -7 0q0 1 1 2l156 126q4 2 5 2q2 0 5 -3.5t3 -6.5z
" />
    <glyph glyph-name="Thorn" unicode="&#xde;" horiz-adv-x="417" 
d="M479 251q0 46 -36 67.5t-88 21.5q-18 0 -30 -2t-17.5 -4.5t-7.5 -2.5q-3 0 -3 2q0 -1 8 15l30 60q12 24 12 25q0 5 -8 5l-66 -6q-36 -4 -66 -4q-5 0 -6.5 -3t0.5 -5.5t6 -2.5t28.5 1t29.5 1q20 0 20 -14q0 -25 -109 -227q-84 -156 -84 -164q0 -14 18 -16q26 -2 88 -2
q7 0 0 7q-10 0 -24 2q-23 6 -23 22q0 22 100 215l30 59q15 30 74 30q76 0 76 -72q0 -63 -50 -106t-115 -43q-22 0 -36 6q-6 2 -6 -1.5t3 -5.5q14 -7 42 -7q74 -2 142 39.5t68 109.5z" />
    <glyph glyph-name="germandbls" unicode="&#xdf;" horiz-adv-x="239" 
d="M455 535q0 -26 -28 -64t-138 -156q-5 -6 -13 -14.5l-12 -12.5l-10.5 -11t-9.5 -10.5t-7 -9t-6 -9t-4 -8t-3 -8.5t-1 -8q0 -30 7 -61q6 -38 6 -59q0 -34 -43.5 -71.5t-93.5 -37.5q-29 0 -46 3q-130 -236 -217.5 -338.5t-187.5 -102.5q-53 0 -82 35q-1 3 0.5 5t4.5 0
q25 -22 78 -22q45 0 84 17t72 46.5t71 86.5t72 119t83 161q-27 18 -27 42q0 28 35 79q5 3 5 -2q-19 -30 -19 -60q0 -29 16 -40q72 161 157 302q49 82 127 161q71 72 103 72q12 0 19.5 -6.5t7.5 -17.5zM413 505q0 22 -20 22q-24 0 -56.5 -38.5t-53.5 -74.5l-133.5 -240.5
t-88.5 -163.5q15 -7 39 -7q45 0 69.5 26.5t24.5 60.5q0 24 -3.5 51.5t-3.5 50.5q0 28 29 57q197 197 197 256z" />
    <glyph glyph-name="agrave" unicode="&#xe0;" horiz-adv-x="285" 
d="M393 137q-52 -65 -111 -112t-101 -47q-36 0 -36 35q0 32 34 88q-31 -41 -69 -74t-64 -33q-21 0 -21 21q0 53 70 129t147 76q9 17 17 20l28 8l2 -1q-5 -5 -19 -28q12 0 30 -3q8 -4 4 -7q-1 -1 -2 -1q-16 4 -36 4q-89 -158 -89 -199q0 -21 23 -21q31 0 84 42.5t103 105.5
q2 3 4 1.5t2 -4.5zM238 212l-1 1q-60 0 -116.5 -75.5t-56.5 -116.5q0 -8 6 -8q13 0 48.5 31t61.5 69q11 17 58 99zM241 279q0 -2 -1.5 -2.5t-3.5 1.5l-49 93q-3 6 -3 11q0 3 4 9t6 6q3 0 4 -4q40 -101 43 -114z" />
    <glyph glyph-name="aacute" unicode="&#xe1;" horiz-adv-x="285" 
d="M393 137q-52 -65 -111 -112t-101 -47q-36 0 -36 35q0 32 34 88q-31 -41 -69 -74t-64 -33q-21 0 -21 21q0 53 70 129t147 76q9 17 17 20l28 8l2 -1q-5 -5 -19 -28q12 0 30 -3q8 -4 4 -7q-1 -1 -2 -1q-16 4 -36 4q-89 -158 -89 -199q0 -21 23 -21q31 0 84 42.5t103 105.5
q2 3 4 1.5t2 -4.5zM238 212l-1 1q-60 0 -116.5 -75.5t-56.5 -116.5q0 -8 6 -8q13 0 48.5 31t61.5 69q11 17 58 99zM348 393q0 -2 -3 -5q-79 -60 -160 -115q-6 -4 -7 0q-1 1 1 2l156 126q4 2 5 2q2 0 5 -3.5t3 -6.5z" />
    <glyph glyph-name="acircumflex" unicode="&#xe2;" horiz-adv-x="285" 
d="M393 137q-52 -65 -111 -112t-101 -47q-36 0 -36 35q0 32 34 88q-31 -41 -69 -74t-64 -33q-21 0 -21 21q0 53 70 129t147 76q9 17 17 20l28 8l2 -1q-5 -5 -19 -28q12 0 30 -3q8 -4 4 -7q-1 -1 -2 -1q-16 4 -36 4q-89 -158 -89 -199q0 -21 23 -21q31 0 84 42.5t103 105.5
q2 3 4 1.5t2 -4.5zM238 212l-1 1q-60 0 -116.5 -75.5t-56.5 -116.5q0 -8 6 -8q13 0 48.5 31t61.5 69q11 17 58 99zM311 295q0 -12 -4 -15l-16 -12q-3 0 -3 7q0 9 -3 90q0 6 -4 6q-2 0 -5 -3q-37 -33 -77 -78q-9 -11 -13 -11t-4 5q0 6 9 13q31 27 74 70q21 21 32 28q4 2 5 2
q4 0 4 -5q0 -18 2.5 -51.5t2.5 -45.5z" />
    <glyph glyph-name="atilde" unicode="&#xe3;" horiz-adv-x="285" 
d="M393 137q-52 -65 -111 -112t-101 -47q-36 0 -36 35q0 32 34 88q-31 -41 -69 -74t-64 -33q-21 0 -21 21q0 53 70 129t147 76q9 17 17 20l28 8l2 -1q-5 -5 -19 -28q12 0 30 -3q8 -4 4 -7q-1 -1 -2 -1q-16 4 -36 4q-89 -158 -89 -199q0 -21 23 -21q31 0 84 42.5t103 105.5
q2 3 4 1.5t2 -4.5zM238 212l-1 1q-60 0 -116.5 -75.5t-56.5 -116.5q0 -8 6 -8q13 0 48.5 31t61.5 69q11 17 58 99zM356 357q-3 -24 -20.5 -43t-39.5 -19q-20 0 -48.5 27.5t-41.5 27.5q-24 0 -58 -46q-5 -7 -8.5 -5t2.5 11q22 28 52 50q13 10 26 10q14 0 42 -28.5t47 -28.5
q16 0 27 13.5t11 30.5q0 5 4.5 7t4.5 -7z" />
    <glyph glyph-name="adieresis" unicode="&#xe4;" horiz-adv-x="285" 
d="M393 137q-52 -65 -111 -112t-101 -47q-36 0 -36 35q0 32 34 88q-31 -41 -69 -74t-64 -33q-21 0 -21 21q0 53 70 129t147 76q9 17 17 20l28 8l2 -1q-5 -5 -19 -28q12 0 30 -3q8 -4 4 -7q-1 -1 -2 -1q-16 4 -36 4q-89 -158 -89 -199q0 -21 23 -21q31 0 84 42.5t103 105.5
q2 3 4 1.5t2 -4.5zM238 212l-1 1q-60 0 -116.5 -75.5t-56.5 -116.5q0 -8 6 -8q13 0 48.5 31t61.5 69q11 17 58 99zM332 348q0 -12 -11 -24t-23 -12t-12 12q0 13 10 25t23 12t13 -13zM260 354q0 -12 -11 -24t-23 -12t-12 12q0 13 10 25t23 12t13 -13z" />
    <glyph glyph-name="aring" unicode="&#xe5;" horiz-adv-x="285" 
d="M393 137q-52 -65 -111 -112t-101 -47q-36 0 -36 35q0 32 34 88q-31 -41 -69 -74t-64 -33q-21 0 -21 21q0 53 70 129t147 76q9 17 17 20l28 8l2 -1q-5 -5 -19 -28q12 0 30 -3q8 -4 4 -7q-1 -1 -2 -1q-16 4 -36 4q-89 -158 -89 -199q0 -21 23 -21q31 0 84 42.5t103 105.5
q2 3 4 1.5t2 -4.5zM238 212l-1 1q-60 0 -116.5 -75.5t-56.5 -116.5q0 -8 6 -8q13 0 48.5 31t61.5 69q11 17 58 99zM333 362q0 -27 -19.5 -47.5t-52.5 -20.5q-22 0 -35 11.5t-13 31.5q0 24 18.5 46t52.5 22q49 0 49 -43zM319 360q0 39 -36 39q-27 0 -41.5 -17.5t-14.5 -42.5
q0 -18 11 -28.5t27 -10.5q25 0 39.5 19t14.5 41z" />
    <glyph glyph-name="ae" unicode="&#xe6;" horiz-adv-x="307" 
d="M189 143q-47 -69 -89.5 -108t-67.5 -40q-22 0 -22 23q0 24 36.5 74t99.5 94q48 32 78 32l24 40q3 4 6 -5q1 -2 1 -3q0 -3 -19 -54q33 33 68 36q25 0 25 -19q0 -30 -33 -59t-90 -29q-17 -41 -17 -69q0 -45 37 -45q43 0 92 37t83 85q1 2 4 1t3 -4q-41 -56 -99.5 -96.5
t-112.5 -40.5q-29 0 -39 26q-1 2 -4 2t-8.5 -3.5t-10.5 -8.5q-3 -2 -5 -1q24 42 60 135zM298 208q0 13 -12 13q-18 0 -40 -25.5t-36 -61.5q6 -2 15 -2q29 0 51 23t22 53zM220 210q-2 1 -7 1q-39 0 -101 -71t-62 -112q0 -11 11 -11q18 0 67.5 56.5t91.5 136.5z" />
    <glyph glyph-name="ccedilla" unicode="&#xe7;" horiz-adv-x="214" 
d="M310 134q-83 -101 -154 -129q-28 -11 -51 -11q-55 0 -55 46q0 18 8 38q19 46 53.5 83t74.5 54q12 5 20 5q37 0 37 -29q0 -15 -7 -23q-6 -6 -20 -17l-3 1q3 8 3 17q0 11 -8 19.5t-23 8.5q-37 0 -67 -45.5t-30 -101.5q0 -20 11 -31t29 -11q30 0 78 34t99 97q7 7 8 1
q0 -3 -3 -6zM127 -4q-11 -3 -24 -11.5t-13 -16.5q0 -6 16 -14t16 -19t-13 -21q-37 -32 -74 -50q-4 -2 -7 -2q-8 0 -8 6q0 2 5 4q18 5 42.5 18.5t24.5 25.5q0 8 -16 17t-16 18q0 12 22.5 27t41.5 23q4 0 5.5 -1t-2.5 -4z" />
    <glyph glyph-name="egrave" unicode="&#xe8;" horiz-adv-x="205" 
d="M273 119q-39 -49 -96.5 -87.5t-110.5 -38.5q-47 0 -47 42q0 57 52.5 121t102.5 64q25 0 25 -18q0 -28 -33 -55t-90 -27q-17 -29 -17 -68q0 -41 37 -41q42 0 90 35t80 76q2 2 4.5 1t2.5 -4zM168 197q0 13 -13 13q-18 0 -38.5 -24.5t-36.5 -55.5q6 -2 15 -2q29 0 51 20.5
t22 48.5zM216 279q0 -2 -2 -2.5t-3 1.5l-49 93q-3 6 -3 11q0 3 4 9t6 6q3 0 4 -4q40 -101 43 -114z" />
    <glyph glyph-name="eacute" unicode="&#xe9;" horiz-adv-x="205" 
d="M273 119q-39 -49 -96.5 -87.5t-110.5 -38.5q-47 0 -47 42q0 57 52.5 121t102.5 64q25 0 25 -18q0 -28 -33 -55t-90 -27q-17 -29 -17 -68q0 -41 37 -41q42 0 90 35t80 76q2 2 4.5 1t2.5 -4zM168 197q0 13 -13 13q-18 0 -38.5 -24.5t-36.5 -55.5q6 -2 15 -2q29 0 51 20.5
t22 48.5zM329 393q0 -2 -3 -5q-79 -60 -160 -115q-6 -4 -7 0q-1 1 1 2l156 126q4 2 5 2q2 0 5 -3.5t3 -6.5z" />
    <glyph glyph-name="ecircumflex" unicode="&#xea;" horiz-adv-x="205" 
d="M273 119q-39 -49 -96.5 -87.5t-110.5 -38.5q-47 0 -47 42q0 57 52.5 121t102.5 64q25 0 25 -18q0 -28 -33 -55t-90 -27q-17 -29 -17 -68q0 -41 37 -41q42 0 90 35t80 76q2 2 4.5 1t2.5 -4zM168 197q0 13 -13 13q-18 0 -38.5 -24.5t-36.5 -55.5q6 -2 15 -2q29 0 51 20.5
t22 48.5zM274 295q0 -12 -4 -15l-16 -12q-3 0 -3 7q0 9 -3 90q0 6 -4 6q-2 0 -5 -3q-37 -33 -77 -78q-9 -11 -13 -11t-4 5q0 6 9 13q31 27 74 70q21 21 32 28q4 2 5 2q4 0 4 -5q0 -18 2.5 -51.5t2.5 -45.5z" />
    <glyph glyph-name="edieresis" unicode="&#xeb;" horiz-adv-x="205" 
d="M273 119q-39 -49 -96.5 -87.5t-110.5 -38.5q-47 0 -47 42q0 57 52.5 121t102.5 64q25 0 25 -18q0 -28 -33 -55t-90 -27q-17 -29 -17 -68q0 -41 37 -41q42 0 90 35t80 76q2 2 4.5 1t2.5 -4zM168 197q0 13 -13 13q-18 0 -38.5 -24.5t-36.5 -55.5q6 -2 15 -2q29 0 51 20.5
t22 48.5zM292 348q0 -12 -11 -24t-23 -12t-12 12q0 13 10 25t23 12t13 -13zM220 354q0 -12 -11 -24t-23 -12t-12 12q0 13 10 25t23 12t13 -13z" />
    <glyph glyph-name="igrave" unicode="&#xec;" horiz-adv-x="181" 
d="M187 279q0 -2 -1.5 -2.5t-3.5 1.5l-49 93q-3 6 -3 11q0 3 4 9t6 6q3 0 4 -4q40 -101 43 -114zM281 131q-49 -62 -112 -104q-41 -27 -79 -27q-44 0 -44 34q0 23 28.5 74t53.5 87q5 7 17 13t17 6t5 -3q0 -5 -5 -12q-28 -43 -51.5 -92t-23.5 -70q0 -23 24 -23
q36 0 86.5 41.5t79.5 80.5q6 6 6 2q0 -3 -2 -7z" />
    <glyph glyph-name="iacute" unicode="&#xed;" horiz-adv-x="181" 
d="M304 393q0 -2 -3 -5q-79 -60 -160 -115q-6 -4 -7 0q0 1 1 2l156 126q4 2 5 2q2 0 5 -3.5t3 -6.5zM281 131q-49 -62 -112 -104q-41 -27 -79 -27q-44 0 -44 34q0 23 28.5 74t53.5 87q5 7 17 13t17 6t5 -3q0 -5 -5 -12q-28 -43 -51.5 -92t-23.5 -70q0 -23 24 -23
q36 0 86.5 41.5t79.5 80.5q6 6 6 2q0 -3 -2 -7z" />
    <glyph glyph-name="icircumflex" unicode="&#xee;" horiz-adv-x="181" 
d="M243 295q0 -12 -4 -15l-16 -12q-3 0 -3 7q0 9 -3 90q0 6 -4 6q-2 0 -5 -3q-37 -33 -77 -78q-9 -11 -13 -11t-4 5q0 6 9 13q31 27 74 70q21 21 32 28q4 2 5 2q4 0 4 -5q0 -18 2.5 -51.5t2.5 -45.5zM281 131q-49 -62 -112 -104q-41 -27 -79 -27q-44 0 -44 34q0 23 28.5 74
t53.5 87q5 7 17 13t17 6t5 -3q0 -5 -5 -12q-28 -43 -51.5 -92t-23.5 -70q0 -23 24 -23q36 0 86.5 41.5t79.5 80.5q6 6 6 2q0 -3 -2 -7z" />
    <glyph glyph-name="idieresis" unicode="&#xef;" horiz-adv-x="181" 
d="M255 348q0 -12 -11 -24t-23 -12t-12 12q0 13 10 25t23 12t13 -13zM183 354q0 -12 -11 -24t-23 -12t-12 12q0 13 10 25t23 12t13 -13zM281 131q-49 -62 -112 -104q-41 -27 -79 -27q-44 0 -44 34q0 23 28.5 74t53.5 87q5 7 17 13t17 6t5 -3q0 -5 -5 -12q-28 -43 -51.5 -92
t-23.5 -70q0 -23 24 -23q36 0 86.5 41.5t79.5 80.5q6 6 6 2q0 -3 -2 -7z" />
    <glyph glyph-name="eth" unicode="&#xf0;" horiz-adv-x="234" 
d="M129 443q-54 -13 -68 -19q-7 -3 -8 -2q0 1 3 5l9 11l60 12q-38 64 -80 113l-5 5t-4.5 5t-1.5 3q0 3 14.5 5.5t22.5 2.5t11 -3q50 -77 74 -125q54 12 78 21q8 3 8 -2q0 -10 -10 -12q-32 -5 -72 -14q75 -144 75 -241q0 -58 -25.5 -112.5t-63.5 -80.5q-31 -20 -61 -20
q-39 0 -39 37q0 48 49 114t113 89q5 2 5 9q0 23 -24 80t-60 119zM211 229q-50 -22 -90.5 -90.5t-40.5 -108.5q0 -24 19 -24q40 0 78.5 73t38.5 137q0 13 -5 13z" />
    <glyph glyph-name="ntilde" unicode="&#xf1;" horiz-adv-x="262" 
d="M363 129q-41 -57 -96 -99.5t-103 -42.5q-32 0 -32 21q0 17 15.5 47.5t38 69t31.5 59.5q2 5 0 8.5t-6 0.5q-22 -14 -56.5 -45t-53.5 -52l-26.5 -44.5l-29.5 -48.5q-4 -6 -6 -6q-5 0 -8.5 10t-3.5 15q0 9 40 59q47 96 62 131q3 5 9 5t11 -5t5 -11q0 -2 -6.5 -13.5
l-17.5 -31t-19 -37.5q120 108 142 108q4 0 7.5 -4.5t3.5 -8.5t-5 -12q-30 -44 -61 -100t-31 -81q0 -21 21 -21q32 0 86.5 44.5t83.5 90.5q3 3 6 1t-1 -7zM341 357q-3 -24 -20.5 -43t-39.5 -19q-20 0 -48.5 27.5t-41.5 27.5q-24 0 -58 -46q-5 -7 -8.5 -5t2.5 11q22 28 52 50
q13 10 26 10q14 0 42 -28.5t47 -28.5q16 0 27 13.5t11 30.5q0 5 4.5 7t4.5 -7z" />
    <glyph glyph-name="ograve" unicode="&#xf2;" horiz-adv-x="250" 
d="M381 170q-45 -60 -97 -60q-40 0 -60 34q-17 -40 -48 -82t-69 -61q-18 -8 -30 -8q-36 0 -36 32t21 70t45 64q49 52 106 58q5 29 20 31t19 5q3 2 6 0.5t1 -5.5q-14 -23 -14 -65q0 -64 47 -64q44 0 82 54q3 6 7 2q3 -2 0 -5zM216 163q-4 16 -4 44q0 5 -4 5q-40 0 -93 -89
q-34 -58 -33 -96q0 -19 14 -19q31 0 73.5 60.5t46.5 94.5zM238 279q0 -2 -2 -2.5t-3 1.5l-49 93q-3 6 -3 11q0 3 4 9t6 6q3 0 4 -4q40 -101 43 -114z" />
    <glyph glyph-name="oacute" unicode="&#xf3;" horiz-adv-x="250" 
d="M381 170q-45 -60 -97 -60q-40 0 -60 34q-17 -40 -48 -82t-69 -61q-18 -8 -30 -8q-36 0 -36 32t21 70t45 64q49 52 106 58q5 29 20 31t19 5q3 2 6 0.5t1 -5.5q-14 -23 -14 -65q0 -64 47 -64q44 0 82 54q3 6 7 2q3 -2 0 -5zM216 163q-4 16 -4 44q0 5 -4 5q-40 0 -93 -89
q-34 -58 -33 -96q0 -19 14 -19q31 0 73.5 60.5t46.5 94.5zM336 393q0 -2 -3 -5q-79 -60 -160 -115q-6 -4 -7 0q0 1 1 2l156 126q4 2 5 2q2 0 5 -3.5t3 -6.5z" />
    <glyph glyph-name="ocircumflex" unicode="&#xf4;" horiz-adv-x="250" 
d="M381 170q-45 -60 -97 -60q-40 0 -60 34q-17 -40 -48 -82t-69 -61q-18 -8 -30 -8q-36 0 -36 32t21 70t45 64q49 52 106 58q5 29 20 31t19 5q3 2 6 0.5t1 -5.5q-14 -23 -14 -65q0 -64 47 -64q44 0 82 54q3 6 7 2q3 -2 0 -5zM216 163q-4 16 -4 44q0 5 -4 5q-40 0 -93 -89
q-34 -58 -33 -96q0 -19 14 -19q31 0 73.5 60.5t46.5 94.5zM304 295q0 -12 -4 -15l-16 -12q-3 0 -3 7q0 9 -3 90q0 6 -4 6q-2 0 -5 -3q-37 -33 -77 -78q-9 -11 -13 -11t-4 5q0 6 9 13q31 27 74 70q21 21 32 28q4 2 5 2q4 0 4 -5q0 -18 2.5 -51.5t2.5 -45.5z" />
    <glyph glyph-name="otilde" unicode="&#xf5;" horiz-adv-x="250" 
d="M381 170q-45 -60 -97 -60q-40 0 -60 34q-17 -40 -48 -82t-69 -61q-18 -8 -30 -8q-36 0 -36 32t21 70t45 64q49 52 106 58q5 29 20 31t19 5q3 2 6 0.5t1 -5.5q-14 -23 -14 -65q0 -64 47 -64q44 0 82 54q3 6 7 2q3 -2 0 -5zM216 163q-4 16 -4 44q0 5 -4 5q-40 0 -93 -89
q-34 -58 -33 -96q0 -19 14 -19q31 0 73.5 60.5t46.5 94.5zM356 357q-3 -24 -20.5 -43t-39.5 -19q-20 0 -48.5 27.5t-41.5 27.5q-24 0 -58 -46q-5 -7 -8.5 -5t2.5 11q22 28 52 50q13 10 26 10q14 0 42 -28.5t47 -28.5q16 0 27 13.5t11 30.5q0 5 4.5 7t4.5 -7z" />
    <glyph glyph-name="odieresis" unicode="&#xf6;" horiz-adv-x="250" 
d="M381 170q-45 -60 -97 -60q-40 0 -60 34q-17 -40 -48 -82t-69 -61q-18 -8 -30 -8q-36 0 -36 32t21 70t45 64q49 52 106 58q5 29 20 31t19 5q3 2 6 0.5t1 -5.5q-14 -23 -14 -65q0 -64 47 -64q44 0 82 54q3 6 7 2q3 -2 0 -5zM216 163q-4 16 -4 44q0 5 -4 5q-40 0 -93 -89
q-34 -58 -33 -96q0 -19 14 -19q31 0 73.5 60.5t46.5 94.5zM313 348q0 -12 -11 -24t-23 -12t-12 12q0 13 10 25t23 12t13 -13zM241 354q0 -12 -11 -24t-23 -12t-12 12q0 13 10 25t23 12t13 -13z" />
    <glyph glyph-name="divide" unicode="&#xf7;" horiz-adv-x="400" 
d="M309 200q0 -8 -8 -16.5t-17 -8.5q-17 0 -17 15q0 9 8.5 17.5t18.5 8.5q15 0 15 -16zM379 144l-13 -25q-190 0 -239 9l19 24q36 -12 89 -12q14 0 144 4zM234 65q0 -9 -8.5 -17t-17.5 -8q-16 0 -16 13q0 9 8 18t18 9q16 0 16 -15z" />
    <glyph glyph-name="oslash" unicode="&#xf8;" horiz-adv-x="235" 
d="M61 2q-8 -8 -19 -21.5t-12 -14.5q-6 -7 -8 -2q-1 3 3 9l31 37q-6 11 -6 26q0 32 20 69q24 44 101 94q39 25 45 25q2 0 5 -3q5 -10 9 -14q7 9 34 40q7 8 8 3q1 -3 -3 -8l-34 -39q18 -15 75 -15q31 0 65 9q3 0 4 -1.5t-2 -2.5q-1 -1 -2 -1q-30 -10 -77 -10q-36 0 -64 3
q-7 -87 -76 -154q-39 -36 -72 -36q-14 0 -25 7zM75 30l135 155q-3 15 -15 15q-30 0 -77 -51t-43 -119zM78 22q7 -15 22 -15q39 0 75 60t36 106v4z" />
    <glyph glyph-name="ugrave" unicode="&#xf9;" horiz-adv-x="257" 
d="M355 120q-40 -57 -93 -103.5t-95 -46.5q-36 0 -36 37q0 21 11 46q-1 -1 -5 -6.5t-5.5 -7t-6 -7t-7 -7.5t-7 -6.5t-8 -6.5l-8.5 -5t-9.5 -4.5t-10 -2.5t-10.5 -1q-25 0 -25 27q0 32 85 179q5 10 9 10q6 0 14 -8t8 -12q0 -3 -6 -12q-78 -119 -78 -156q0 -15 11 -15
q25 0 69 68q44 80 66 117q5 7 8 7q4 0 9 -9t5 -20q0 -8 -4 -15q-7 -11 -24.5 -35t-27 -38.5t-18 -38t-8.5 -46.5q0 -22 21 -22q28 0 77 41t93 104q6 2 6 -5zM221 279q0 -2 -1.5 -2.5t-3.5 1.5l-49 93q-3 6 -3 11q0 3 4 9t6 6q3 0 4 -4q40 -101 43 -114z" />
    <glyph glyph-name="uacute" unicode="&#xfa;" horiz-adv-x="257" 
d="M355 120q-40 -57 -93 -103.5t-95 -46.5q-36 0 -36 37q0 21 11 46q-1 -1 -5 -6.5t-5.5 -7t-6 -7t-7 -7.5t-7 -6.5t-8 -6.5l-8.5 -5t-9.5 -4.5t-10 -2.5t-10.5 -1q-25 0 -25 27q0 32 85 179q5 10 9 10q6 0 14 -8t8 -12q0 -3 -6 -12q-78 -119 -78 -156q0 -15 11 -15
q25 0 69 68q44 80 66 117q5 7 8 7q4 0 9 -9t5 -20q0 -8 -4 -15q-7 -11 -24.5 -35t-27 -38.5t-18 -38t-8.5 -46.5q0 -22 21 -22q28 0 77 41t93 104q6 2 6 -5zM348 393q0 -2 -3 -5q-79 -60 -160 -115q-6 -4 -7 0q-1 1 1 2l156 126q4 2 5 2q2 0 5 -3.5t3 -6.5z" />
    <glyph glyph-name="ucircumflex" unicode="&#xfb;" horiz-adv-x="257" 
d="M355 120q-40 -57 -93 -103.5t-95 -46.5q-36 0 -36 37q0 21 11 46q-1 -1 -5 -6.5t-5.5 -7t-6 -7t-7 -7.5t-7 -6.5t-8 -6.5l-8.5 -5t-9.5 -4.5t-10 -2.5t-10.5 -1q-25 0 -25 27q0 32 85 179q5 10 9 10q6 0 14 -8t8 -12q0 -3 -6 -12q-78 -119 -78 -156q0 -15 11 -15
q25 0 69 68q44 80 66 117q5 7 8 7q4 0 9 -9t5 -20q0 -8 -4 -15q-7 -11 -24.5 -35t-27 -38.5t-18 -38t-8.5 -46.5q0 -22 21 -22q28 0 77 41t93 104q6 2 6 -5zM287 295q0 -12 -4 -15l-16 -12q-3 0 -3 7q0 9 -3 90q0 6 -4 6q-2 0 -5 -3q-37 -33 -77 -78q-9 -11 -13 -11t-4 5
q0 6 9 13q31 27 74 70q21 21 32 28q4 2 5 2q4 0 4 -5q0 -18 2.5 -51.5t2.5 -45.5z" />
    <glyph glyph-name="udieresis" unicode="&#xfc;" horiz-adv-x="257" 
d="M355 120q-40 -57 -93 -103.5t-95 -46.5q-36 0 -36 37q0 21 11 46q-1 -1 -5 -6.5t-5.5 -7t-6 -7t-7 -7.5t-7 -6.5t-8 -6.5l-8.5 -5t-9.5 -4.5t-10 -2.5t-10.5 -1q-25 0 -25 27q0 32 85 179q5 10 9 10q6 0 14 -8t8 -12q0 -3 -6 -12q-78 -119 -78 -156q0 -15 11 -15
q25 0 69 68q44 80 66 117q5 7 8 7q4 0 9 -9t5 -20q0 -8 -4 -15q-7 -11 -24.5 -35t-27 -38.5t-18 -38t-8.5 -46.5q0 -22 21 -22q28 0 77 41t93 104q6 2 6 -5zM305 348q0 -12 -11 -24t-23 -12t-12 12q0 13 10 25t23 12t13 -13zM233 354q0 -12 -11 -24t-23 -12t-12 12
q0 13 10 25t23 12t13 -13z" />
    <glyph glyph-name="yacute" unicode="&#xfd;" horiz-adv-x="227" 
d="M64 11q-30 0 -30 24q0 4 1 9.5t4.5 12.5t6 13.5t8.5 16.5l10 16.5l12 19.5l12.5 20l14.5 22l15 23q9 10 12 12q3 0 8.5 1t10 2t5.5 1q4 0 4 -3l-27 -46l-24 -40.5t-17.5 -30.5t-12.5 -27.5t-4 -19.5q0 -12 11 -12q10 0 30 11t29 21q5 5 14 20.5l26.5 48l28.5 52.5
q29 52 40 52q11 -7 11 -26q0 -14 -94 -135l-54 -84l-55.5 -87.5t-54.5 -81t-58.5 -78t-58.5 -63.5t-64 -53t-65.5 -32t-71.5 -13q-75 0 -75 63q0 15 5 30q1 4 4 4q1 0 1 -3q0 -30 22 -50.5t69 -20.5q34 0 70.5 16t67 39.5t66.5 63.5t61 73t58.5 85l52 82.5l47.5 80.5
q1 2 1 3q-1 1 -4 -2q-37 -30 -69 -30zM367 393q0 -2 -3 -5q-79 -60 -160 -115q-6 -4 -7 0q-1 1 1 2l156 126q4 2 5 2q2 0 5 -3.5t3 -6.5z" />
    <glyph glyph-name="thorn" unicode="&#xfe;" horiz-adv-x="220" 
d="M336 157q-88 -112 -240 -147q-20 -5 -73 -14l-155 -273q-5 -9 -28 -17t-102 -26q-4 -1 -5 2t3 5q66 21 101 58q56 60 171 250q-7 3 -7 12q0 6 17 9l46 75q137 225 209 363q9 16 9 30q0 21 -37 21q-14 0 -33 -4q-4 -1 -4 2q-1 4 4 5q59 14 89 14q8 0 15.5 -5.5t7.5 -16.5
q0 -10 -10 -27l-185 -304q61 68 92 68q23 0 23 -26q0 -30 -47.5 -90t-136.5 -102q177 19 270 142q1 4 5 0q1 -1 1 -4zM203 191q0 16 -12 16q-11 0 -41 -26t-52 -57q-27 -39 -65 -108q61 17 115.5 77.5t54.5 97.5z" />
    <glyph glyph-name="ydieresis" unicode="&#xff;" horiz-adv-x="227" 
d="M64 11q-30 0 -30 24q0 4 1 9.5t4.5 12.5t6 13.5t8.5 16.5l10 16.5l12 19.5l12.5 20l14.5 22l15 23q9 10 12 12q3 0 8.5 1t10 2t5.5 1q4 0 4 -3l-27 -46l-24 -40.5t-17.5 -30.5t-12.5 -27.5t-4 -19.5q0 -12 11 -12q10 0 30 11t29 21q5 5 14 20.5l26.5 48l28.5 52.5
q29 52 40 52q11 -7 11 -26q0 -14 -94 -135l-54 -84l-55.5 -87.5t-54.5 -81t-58.5 -78t-58.5 -63.5t-64 -53t-65.5 -32t-71.5 -13q-75 0 -75 63q0 15 5 30q1 4 4 4q1 0 1 -3q0 -30 22 -50.5t69 -20.5q34 0 70.5 16t67 39.5t66.5 63.5t61 73t58.5 85l52 82.5l47.5 80.5
q1 2 1 3q-1 1 -4 -2q-37 -30 -69 -30zM295 348q0 -12 -11 -24t-23 -12t-12 12q0 13 10 25t23 12t13 -13zM223 354q0 -12 -11 -24t-23 -12t-12 12q0 13 10 25t23 12t13 -13z" />
    <glyph glyph-name="Amacron" unicode="&#x100;" horiz-adv-x="486" 
d="M555 535l-3 -15l-88 -2l5 15zM220 214v1q2 -14 103 -14q67 0 80 -4q10 -3 11.5 -2.5t3.5 7.5q5 24 14 74l16 92t8 45q3 9 -1 8q-2 0 -9 -5q-162 -129 -226 -202zM6 -85l-11 52q1 26 39 70q123 141 246.5 254t184.5 155q5 3 24.5 9t23.5 10q6 6 7 0q0 -3 -2 -7
q-17 -26 -24 -67q-6 -24 -30 -159.5t-25 -164.5q-1 -47 30 -47q3 0 7 1t10 2t10 2q8 1 8.5 -1.5t-7.5 -4.5q-4 -1 -39 -11t-50 -13q-15 0 -20 20q3 13 11 68.5t9 65.5q0 12 -11 23.5t-30 15.5q-18 4 -75 4q-66 0 -93 3q-133 -132 -177 -225q-8 -17 -10 -52q0 -7 -6 -3z" />
    <glyph glyph-name="amacron" unicode="&#x101;" horiz-adv-x="285" 
d="M393 137q-52 -65 -111 -112t-101 -47q-36 0 -36 35q0 32 34 88q-31 -41 -69 -74t-64 -33q-21 0 -21 21q0 53 70 129t147 76q9 17 17 20l28 8l2 -1q-5 -5 -19 -28q12 0 30 -3q8 -4 4 -7q-1 -1 -2 -1q-16 4 -36 4q-89 -158 -89 -199q0 -21 23 -21q31 0 84 42.5t103 105.5
q2 3 4 1.5t2 -4.5zM238 212l-1 1q-60 0 -116.5 -75.5t-56.5 -116.5q0 -8 6 -8q13 0 48.5 31t61.5 69q11 17 58 99zM289 335l-3 -15l-88 -2l5 15z" />
    <glyph glyph-name="Abreve" unicode="&#x102;" horiz-adv-x="486" 
d="M220 214v1q2 -14 103 -14q67 0 80 -4q10 -3 11.5 -2.5t3.5 7.5q5 24 14 74l16 92t8 45q3 9 -1 8q-2 0 -9 -5q-162 -129 -226 -202zM6 -85l-11 52q1 26 39 70q123 141 246.5 254t184.5 155q5 3 24.5 9t23.5 10q6 6 7 0q0 -3 -2 -7q-17 -26 -24 -67q-6 -24 -30 -159.5
t-25 -164.5q-1 -47 30 -47q3 0 7 1t10 2t10 2q8 1 8.5 -1.5t-7.5 -4.5q-4 -1 -39 -11t-50 -13q-15 0 -20 20q3 13 11 68.5t9 65.5q0 12 -11 23.5t-30 15.5q-18 4 -75 4q-66 0 -93 3q-133 -132 -177 -225q-8 -17 -10 -52q0 -7 -6 -3zM588 565q0 -1 -8 -13q-33 -42 -75 -42
q-22 0 -35.5 13.5t-13.5 36.5q0 14 18 14q4 0 4 -6q0 -44 39 -44q34 0 55 35q8 12 11 12q5 0 5 -6z" />
    <glyph glyph-name="abreve" unicode="&#x103;" horiz-adv-x="285" 
d="M393 137q-52 -65 -111 -112t-101 -47q-36 0 -36 35q0 32 34 88q-31 -41 -69 -74t-64 -33q-21 0 -21 21q0 53 70 129t147 76q9 17 17 20l28 8l2 -1q-5 -5 -19 -28q12 0 30 -3q8 -4 4 -7q-1 -1 -2 -1q-16 4 -36 4q-89 -158 -89 -199q0 -21 23 -21q31 0 84 42.5t103 105.5
q2 3 4 1.5t2 -4.5zM238 212l-1 1q-60 0 -116.5 -75.5t-56.5 -116.5q0 -8 6 -8q13 0 48.5 31t61.5 69q11 17 58 99zM330 345q0 -1 -8 -13q-33 -42 -75 -42q-22 0 -35.5 13.5t-13.5 36.5q0 14 18 14q4 0 4 -6q0 -44 39 -44q34 0 55 35q8 12 11 12q5 0 5 -6z" />
    <glyph glyph-name="Aogonek" unicode="&#x104;" horiz-adv-x="531" 
d="M439 10q0 -2 -4 -3q-31 -11 -50.5 -30.5t-19.5 -37.5q0 -13 10 -21.5t24 -8.5q2 0 6 1t6 1q5 0 1 -4q-1 -2 -3 -2q-17 -5 -33 -5q-19 0 -31 8t-12 21q0 16 20 35q15 14 45 31t38 17q3 0 3 -2zM220 214v1q2 -14 103 -14q67 0 80 -4q10 -3 11.5 -2.5t3.5 7.5q5 24 14 74
l16 92t8 45q3 9 -1 8q-2 0 -9 -5q-162 -129 -226 -202zM6 -85l-11 52q1 26 39 70q123 141 246.5 254t184.5 155q5 3 24.5 9t23.5 10q6 6 7 0q0 -3 -2 -7q-17 -26 -24 -67q-6 -24 -30 -159.5t-25 -164.5q-1 -47 30 -47q3 0 7 1t10 2t10 2q8 1 8.5 -1.5t-7.5 -4.5
q-4 -1 -39 -11t-50 -13q-15 0 -20 20q3 13 11 68.5t9 65.5q0 12 -11 23.5t-30 15.5q-18 4 -75 4q-66 0 -93 3q-133 -132 -177 -225q-8 -17 -10 -52q0 -7 -6 -3z" />
    <glyph glyph-name="aogonek" unicode="&#x105;" horiz-adv-x="285" 
d="M393 137q-52 -65 -111 -112t-101 -47q-36 0 -36 35q0 32 34 88q-31 -41 -69 -74t-64 -33q-21 0 -21 21q0 53 70 129t147 76q9 17 17 20l28 8l2 -1q-5 -5 -19 -28q12 0 30 -3q8 -4 4 -7q-1 -1 -2 -1q-16 4 -36 4q-89 -158 -89 -199q0 -21 23 -21q31 0 84 42.5t103 105.5
q2 3 4 1.5t2 -4.5zM238 212l-1 1q-60 0 -116.5 -75.5t-56.5 -116.5q0 -8 6 -8q13 0 48.5 31t61.5 69q11 17 58 99zM184 -19q0 -2 -4 -3q-31 -11 -50.5 -30.5t-19.5 -37.5q0 -13 10 -21.5t24 -8.5q2 0 6 1t6 1q5 0 1 -4q-1 -2 -3 -2q-17 -5 -33 -5q-19 0 -31 8t-12 21
q0 16 20 35q15 14 45 31t38 17q3 0 3 -2z" />
    <glyph glyph-name="Cacute" unicode="&#x106;" horiz-adv-x="516" 
d="M558 317l-9 -3q5 18 5 34q0 37 -26.5 63t-91.5 26q-47 0 -101 -39q-60 -43 -120.5 -138.5t-60.5 -179.5q0 -82 105 -82q158 0 284 174q3 4 5 4q4 0 4 -14q0 -10 -8 -24q-46 -69 -122 -108.5t-165 -39.5q-147 0 -147 117q0 72 48.5 150.5t112.5 127.5q79 61 172 61
q85 0 143 -34q8 -4 8 -12q-20 -36 -36 -83zM617 603q0 -2 -3 -5q-79 -60 -160 -115q-6 -4 -7 0q0 1 1 2l156 126q4 2 5 2q2 0 5 -3.5t3 -6.5z" />
    <glyph glyph-name="cacute" unicode="&#x107;" horiz-adv-x="214" 
d="M310 134q-83 -101 -154 -129q-28 -11 -51 -11q-55 0 -55 46q0 18 8 38q19 46 53.5 83t74.5 54q12 5 20 5q37 0 37 -29q0 -15 -7 -23q-6 -6 -20 -17l-3 1q3 8 3 17q0 11 -8 19.5t-23 8.5q-37 0 -67 -45.5t-30 -101.5q0 -20 11 -31t29 -11q30 0 78 34t99 97q7 7 8 1
q0 -3 -3 -6zM347 393q0 -2 -3 -5q-79 -60 -160 -115q-6 -4 -7 0q0 1 1 2l156 126q4 2 5 2q2 0 5 -3.5t3 -6.5z" />
    <glyph glyph-name="Ccircumflex" unicode="&#x108;" horiz-adv-x="516" 
d="M558 317l-9 -3q5 18 5 34q0 37 -26.5 63t-91.5 26q-47 0 -101 -39q-60 -43 -120.5 -138.5t-60.5 -179.5q0 -82 105 -82q158 0 284 174q3 4 5 4q4 0 4 -14q0 -10 -8 -24q-46 -69 -122 -108.5t-165 -39.5q-147 0 -147 117q0 72 48.5 150.5t112.5 127.5q79 61 172 61
q85 0 143 -34q8 -4 8 -12q-20 -36 -36 -83zM553 515q0 -12 -4 -15l-16 -12q-3 0 -3 7q0 9 -3 90q0 6 -4 6q-2 0 -5 -3q-37 -33 -77 -78q-9 -11 -13 -11t-4 5q0 6 9 13q31 27 74 70q21 21 32 28q4 2 5 2q4 0 4 -5q0 -18 2.5 -51.5t2.5 -45.5z" />
    <glyph glyph-name="ccircumflex" unicode="&#x109;" horiz-adv-x="214" 
d="M310 134q-83 -101 -154 -129q-28 -11 -51 -11q-55 0 -55 46q0 18 8 38q19 46 53.5 83t74.5 54q12 5 20 5q37 0 37 -29q0 -15 -7 -23q-6 -6 -20 -17l-3 1q3 8 3 17q0 11 -8 19.5t-23 8.5q-37 0 -67 -45.5t-30 -101.5q0 -20 11 -31t29 -11q30 0 78 34t99 97q7 7 8 1
q0 -3 -3 -6zM280 295q0 -12 -4 -15l-16 -12q-3 0 -3 7q0 9 -3 90q0 6 -4 6q-2 0 -5 -3q-37 -33 -77 -78q-9 -11 -13 -11t-4 5q0 6 9 13q31 27 74 70q21 21 32 28q4 2 5 2q4 0 4 -5q0 -18 2.5 -51.5t2.5 -45.5z" />
    <glyph glyph-name="Cdotaccent" unicode="&#x10a;" horiz-adv-x="516" 
d="M558 317l-9 -3q5 18 5 34q0 37 -26.5 63t-91.5 26q-47 0 -101 -39q-60 -43 -120.5 -138.5t-60.5 -179.5q0 -82 105 -82q158 0 284 174q3 4 5 4q4 0 4 -14q0 -10 -8 -24q-46 -69 -122 -108.5t-165 -39.5q-147 0 -147 117q0 72 48.5 150.5t112.5 127.5q79 61 172 61
q85 0 143 -34q8 -4 8 -12q-20 -36 -36 -83zM497 524q0 -11 -10 -20.5t-21 -9.5q-16 0 -16 18q0 12 8 20t20 8q19 0 19 -16z" />
    <glyph glyph-name="cdotaccent" unicode="&#x10b;" horiz-adv-x="214" 
d="M310 134q-83 -101 -154 -129q-28 -11 -51 -11q-55 0 -55 46q0 18 8 38q19 46 53.5 83t74.5 54q12 5 20 5q37 0 37 -29q0 -15 -7 -23q-6 -6 -20 -17l-3 1q3 8 3 17q0 11 -8 19.5t-23 8.5q-37 0 -67 -45.5t-30 -101.5q0 -20 11 -31t29 -11q30 0 78 34t99 97q7 7 8 1
q0 -3 -3 -6zM235 334q0 -11 -10 -20.5t-21 -9.5q-16 0 -16 18q0 12 8 20t20 8q19 0 19 -16z" />
    <glyph glyph-name="Ccaron" unicode="&#x10c;" horiz-adv-x="516" 
d="M558 317l-9 -3q5 18 5 34q0 37 -26.5 63t-91.5 26q-47 0 -101 -39q-60 -43 -120.5 -138.5t-60.5 -179.5q0 -82 105 -82q158 0 284 174q3 4 5 4q4 0 4 -14q0 -10 -8 -24q-46 -69 -122 -108.5t-165 -39.5q-147 0 -147 117q0 72 48.5 150.5t112.5 127.5q79 61 172 61
q85 0 143 -34q8 -4 8 -12q-20 -36 -36 -83zM577 606q0 -6 -8 -12q-31 -26 -75 -70q-29 -29 -36 -29q-5 0 -5 5q0 8 -3.5 48t-3.5 51q0 8 5 12q1 0 5 3.5t8 6t5 2.5q3 0 3 -7q0 -19 1 -53t1 -37q0 -6 4 -6q2 0 5 3q38 32 76 78q9 12 13 12q5 0 5 -7z" />
    <glyph glyph-name="ccaron" unicode="&#x10d;" horiz-adv-x="214" 
d="M310 134q-83 -101 -154 -129q-28 -11 -51 -11q-55 0 -55 46q0 18 8 38q19 46 53.5 83t74.5 54q12 5 20 5q37 0 37 -29q0 -15 -7 -23q-6 -6 -20 -17l-3 1q3 8 3 17q0 11 -8 19.5t-23 8.5q-37 0 -67 -45.5t-30 -101.5q0 -20 11 -31t29 -11q30 0 78 34t99 97q7 7 8 1
q0 -3 -3 -6zM322 386q0 -6 -8 -12q-31 -26 -75 -70q-29 -29 -36 -29q-5 0 -5 5q0 8 -3.5 48t-3.5 51q0 8 5 12q1 0 5 3.5t8 6t5 2.5q3 0 3 -7q0 -19 1 -53t1 -37q0 -6 4 -6q2 0 5 3q38 32 76 78q9 12 13 12q5 0 5 -7z" />
    <glyph glyph-name="Dcaron" unicode="&#x10e;" horiz-adv-x="573" 
d="M565 309q0 53 -39 88.5t-133 35.5q-25 0 -32 -12q-111 -174 -204 -361q-4 -8 -4 -12q0 -6 6 -12q35 -36 107 -36q123 0 211 90t88 219zM71 -3l-6 5q25 28 41 58q184 321 204 365q0 5 -8 5q-22 0 -63.5 -6.5t-62.5 -6.5q-18 0 -18 16q0 14 5 14l7 -3q7 -3 17.5 -6t18.5 -3
q27 0 97 5q11 0 31 1t36 1.5t31 0.5q44 0 78 -5t67.5 -19t52 -43.5t18.5 -72.5q0 -83 -56.5 -164t-133.5 -115q-74 -32 -161 -32q-78 0 -126 25q-10 5 -17 5q-20 0 -52 -25zM562 595q0 -6 -8 -12q-31 -26 -75 -70q-29 -29 -36 -29q-5 0 -5 5q0 7 -3.5 48t-3.5 51q0 8 5 12
q1 0 5 3.5t8 6t5 2.5q3 0 3 -7q0 -19 1 -53t1 -37q0 -6 4 -6q2 0 5 3q38 32 76 78q9 12 13 12q5 0 5 -7z" />
    <glyph glyph-name="dcaron" unicode="&#x10f;" horiz-adv-x="269" 
d="M682 665q0 -4 -6 -13t-8 -16t-7 -7q-2 0 -13.5 5t-29.5 5q-36 0 -65 -18q-63 -41 -120 -123q-126 -181 -198 -321.5t-72 -188.5q0 -39 32 -39q83 0 169 174q3 4 6.5 2.5t-0.5 -7.5q-38 -79 -84.5 -128.5t-92.5 -49.5q-53 0 -53 52q0 40 39 119q-55 -66 -84.5 -91.5
t-49.5 -25.5q-24 0 -24 27q0 22 19 52q39 63 85 99.5t110 48.5q95 166 188 282q97 121 173 157q34 16 59 16q27 0 27 -11zM227 206q-59 -1 -95 -48q-70 -87 -70 -130q0 -9 10 -9q17 0 69.5 59t85.5 128zM582 561q0 16 -5.5 27.5t-11.5 11.5q-5 0 -18 -6q-8 -4 -8 -8
q0 -2 9 -16t9 -29q0 -24 -19 -48t-44 -39q-4 -3 -3 -4.5t5 -0.5q32 19 59 50t27 62z" />
    <glyph glyph-name="Dcroat" unicode="&#x110;" horiz-adv-x="573" 
d="M71 -3l-6 5q25 28 41 58l89 155q-9 0 -29 -2t-27 -2q-16 0 -16 17q0 2 2 2h3q3 -1 8.5 -1.5t13 -1t20.5 -0.5t28 1h5q87 151 107 197q0 5 -8 5q-22 0 -63.5 -6.5t-62.5 -6.5q-18 0 -18 16q0 14 5 14l7 -3q7 -3 17.5 -6t18.5 -3q27 0 97 5q11 0 31 1t36 1.5t31 0.5
q44 0 78 -5t67.5 -19t52 -43.5t18.5 -72.5q0 -83 -56.5 -164t-133.5 -115q-74 -32 -161 -32q-78 0 -126 25q-10 5 -17 5q-20 0 -52 -25zM565 309q0 53 -39 88.5t-133 35.5q-25 0 -32 -12q-53 -81 -114 -191q90 2 104 2q10 0 13.5 -0.5t5.5 -2t2 -6.5q0 -9 -4 -9q-5 4 -30 4
q-42 0 -98 -2q-52 -93 -83 -156q-4 -8 -4 -12q0 -6 6 -12q35 -36 107 -36q123 0 211 90t88 219z" />
    <glyph glyph-name="dcroat" unicode="&#x111;" horiz-adv-x="280" 
d="M682 665q0 -4 -6 -13t-8 -16t-7 -7q-2 0 -13.5 5t-29.5 5q-36 0 -65 -18q-63 -41 -120 -123q-48 -69 -105 -159q8 0 26 1t30 1.5t15 0.5q8 0 4 -7q-2 -5 -6 -5q-56 0 -76 -2q-75 -123 -116.5 -215.5t-41.5 -128.5q0 -38 32 -38q87 0 179 177q3 4 6.5 2.5t-0.5 -7.5
q-40 -79 -89.5 -130t-97.5 -51q-53 0 -53 51q0 44 39 123q-55 -66 -84.5 -91.5t-49.5 -25.5q-24 0 -24 27q0 22 19 52q39 63 85 99.5t110 48.5l63 106q-61 -4 -113 -11q-4 0 -5.5 1.5t0 4.5t3.5 4q3 3 18 5q9 1 104 7q50 79 118 165q97 121 173 157q34 16 59 16q27 0 27 -11
zM227 206q-59 -1 -95 -48q-70 -87 -70 -130q0 -9 10 -9q17 0 69.5 59t85.5 128z" />
    <glyph glyph-name="Emacron" unicode="&#x112;" horiz-adv-x="475" 
d="M487 67q1 1 2.5 -0.5t1.5 -3.5q-10 -9 -21 -26q-7 -13 -28 -18q-119 -27 -227 -27q-72 0 -97.5 9.5t-25.5 31.5q0 18 11 38l25.5 44.5l41.5 73t19 34.5q0 5 -17 5q-5 0 -5 3q0 7 12 9q23 3 34 24q83 149 83 159q0 4 -6 4q-74 0 -113 -10l-2 1q1 17 8 23q82 -4 131 -4
q10 0 99 3t125 3q6 0 6 -5q-1 -2 -4.5 -8.5l-7.5 -14t-7 -14.5l-4 1q0 15 -8 17q-53 9 -139 9q-16 0 -24 -10q-42 -56 -106 -170q-4 -9 6 -9q18 -1 57 -1q90 0 150 13l3 -3q-7 -11 -10 -21q-1 -4 -8 -4q-70 2 -118 2q-60 0 -85 -1q-8 0 -11 -6q-44 -77 -65 -127
q-10 -23 -10 -41q0 -47 71 -47q59 0 142.5 18t120.5 46zM460 525l-3 -15l-88 -2l5 15z" />
    <glyph glyph-name="emacron" unicode="&#x113;" horiz-adv-x="205" 
d="M273 119q-39 -49 -96.5 -87.5t-110.5 -38.5q-47 0 -47 42q0 57 52.5 121t102.5 64q25 0 25 -18q0 -28 -33 -55t-90 -27q-17 -29 -17 -68q0 -41 37 -41q42 0 90 35t80 76q2 2 4.5 1t2.5 -4zM168 197q0 13 -13 13q-18 0 -38.5 -24.5t-36.5 -55.5q6 -2 15 -2q29 0 51 20.5
t22 48.5zM256 335l-3 -15l-88 -2l5 15z" />
    <glyph glyph-name="Ebreve" unicode="&#x114;" horiz-adv-x="475" 
d="M487 67q1 1 2.5 -0.5t1.5 -3.5q-10 -9 -21 -26q-7 -13 -28 -18q-119 -27 -227 -27q-72 0 -97.5 9.5t-25.5 31.5q0 18 11 38l25.5 44.5l41.5 73t19 34.5q0 5 -17 5q-5 0 -5 3q0 7 12 9q23 3 34 24q83 149 83 159q0 4 -6 4q-74 0 -113 -10l-2 1q1 17 8 23q82 -4 131 -4
q10 0 99 3t125 3q6 0 6 -5q-1 -2 -4.5 -8.5l-7.5 -14t-7 -14.5l-4 1q0 15 -8 17q-53 9 -139 9q-16 0 -24 -10q-42 -56 -106 -170q-4 -9 6 -9q18 -1 57 -1q90 0 150 13l3 -3q-7 -11 -10 -21q-1 -4 -8 -4q-70 2 -118 2q-60 0 -85 -1q-8 0 -11 -6q-44 -77 -65 -127
q-10 -23 -10 -41q0 -47 71 -47q59 0 142.5 18t120.5 46zM501 555q0 -1 -8 -13q-33 -42 -75 -42q-22 0 -35.5 13.5t-13.5 36.5q0 14 18 14q4 0 4 -6q0 -44 39 -44q34 0 55 35q8 12 11 12q5 0 5 -6z" />
    <glyph glyph-name="ebreve" unicode="&#x115;" horiz-adv-x="205" 
d="M273 119q-39 -49 -96.5 -87.5t-110.5 -38.5q-47 0 -47 42q0 57 52.5 121t102.5 64q25 0 25 -18q0 -28 -33 -55t-90 -27q-17 -29 -17 -68q0 -41 37 -41q42 0 90 35t80 76q2 2 4.5 1t2.5 -4zM168 197q0 13 -13 13q-18 0 -38.5 -24.5t-36.5 -55.5q6 -2 15 -2q29 0 51 20.5
t22 48.5zM280 345q0 -1 -8 -13q-33 -42 -75 -42q-22 0 -35.5 13.5t-13.5 36.5q0 14 18 14q4 0 4 -6q0 -44 39 -44q34 0 55 35q8 12 11 12q5 0 5 -6z" />
    <glyph glyph-name="Edotaccent" unicode="&#x116;" horiz-adv-x="475" 
d="M487 67q1 1 2.5 -0.5t1.5 -3.5q-10 -9 -21 -26q-7 -13 -28 -18q-119 -27 -227 -27q-72 0 -97.5 9.5t-25.5 31.5q0 18 11 38l25.5 44.5l41.5 73t19 34.5q0 5 -17 5q-5 0 -5 3q0 7 12 9q23 3 34 24q83 149 83 159q0 4 -6 4q-74 0 -113 -10l-2 1q1 17 8 23q82 -4 131 -4
q10 0 99 3t125 3q6 0 6 -5q-1 -2 -4.5 -8.5l-7.5 -14t-7 -14.5l-4 1q0 15 -8 17q-53 9 -139 9q-16 0 -24 -10q-42 -56 -106 -170q-4 -9 6 -9q18 -1 57 -1q90 0 150 13l3 -3q-7 -11 -10 -21q-1 -4 -8 -4q-70 2 -118 2q-60 0 -85 -1q-8 0 -11 -6q-44 -77 -65 -127
q-10 -23 -10 -41q0 -47 71 -47q59 0 142.5 18t120.5 46zM451 534q0 -11 -10 -20.5t-21 -9.5q-16 0 -16 18q0 12 8 20t20 8q19 0 19 -16z" />
    <glyph glyph-name="edotaccent" unicode="&#x117;" horiz-adv-x="205" 
d="M273 119q-39 -49 -96.5 -87.5t-110.5 -38.5q-47 0 -47 42q0 57 52.5 121t102.5 64q25 0 25 -18q0 -28 -33 -55t-90 -27q-17 -29 -17 -68q0 -41 37 -41q42 0 90 35t80 76q2 2 4.5 1t2.5 -4zM168 197q0 13 -13 13q-18 0 -38.5 -24.5t-36.5 -55.5q6 -2 15 -2q29 0 51 20.5
t22 48.5zM247 334q0 -11 -10 -20.5t-21 -9.5q-16 0 -16 18q0 12 8 20t20 8q19 0 19 -16z" />
    <glyph glyph-name="Eogonek" unicode="&#x118;" horiz-adv-x="475" 
d="M487 67q1 1 2.5 -0.5t1.5 -3.5q-10 -9 -21 -26q-7 -13 -28 -18q-119 -27 -227 -27q-72 0 -97.5 9.5t-25.5 31.5q0 18 11 38l25.5 44.5l41.5 73t19 34.5q0 5 -17 5q-5 0 -5 3q0 7 12 9q23 3 34 24q83 149 83 159q0 4 -6 4q-74 0 -113 -10l-2 1q1 17 8 23q82 -4 131 -4
q10 0 99 3t125 3q6 0 6 -5q-1 -2 -4.5 -8.5l-7.5 -14t-7 -14.5l-4 1q0 15 -8 17q-53 9 -139 9q-16 0 -24 -10q-42 -56 -106 -170q-4 -9 6 -9q18 -1 57 -1q90 0 150 13l3 -3q-7 -11 -10 -21q-1 -4 -8 -4q-70 2 -118 2q-60 0 -85 -1q-8 0 -11 -6q-44 -77 -65 -127
q-10 -23 -10 -41q0 -47 71 -47q59 0 142.5 18t120.5 46zM424 17q0 -2 -4 -3q-31 -11 -50.5 -30.5t-19.5 -37.5q0 -13 10 -21.5t24 -8.5q2 0 6 1t6 1q5 0 1 -4q-1 -2 -3 -2q-17 -5 -33 -5q-19 0 -31 8t-12 21q0 16 20 35q15 14 45 31t38 17q3 0 3 -2z" />
    <glyph glyph-name="eogonek" unicode="&#x119;" horiz-adv-x="205" 
d="M273 119q-39 -49 -96.5 -87.5t-110.5 -38.5q-47 0 -47 42q0 57 52.5 121t102.5 64q25 0 25 -18q0 -28 -33 -55t-90 -27q-17 -29 -17 -68q0 -41 37 -41q42 0 90 35t80 76q2 2 4.5 1t2.5 -4zM168 197q0 13 -13 13q-18 0 -38.5 -24.5t-36.5 -55.5q6 -2 15 -2q29 0 51 20.5
t22 48.5zM148 5q0 -2 -4 -3q-31 -11 -50.5 -30.5t-19.5 -37.5q0 -13 10 -21.5t24 -8.5q2 0 6 1t6 1q5 0 1 -4q-1 -2 -3 -2q-17 -5 -33 -5q-19 0 -31 8t-12 21q0 16 20 35q15 14 45 31t38 17q3 0 3 -2z" />
    <glyph glyph-name="Ecaron" unicode="&#x11a;" horiz-adv-x="475" 
d="M487 67q1 1 2.5 -0.5t1.5 -3.5q-10 -9 -21 -26q-7 -13 -28 -18q-119 -27 -227 -27q-72 0 -97.5 9.5t-25.5 31.5q0 18 11 38l25.5 44.5l41.5 73t19 34.5q0 5 -17 5q-5 0 -5 3q0 7 12 9q23 3 34 24q83 149 83 159q0 4 -6 4q-74 0 -113 -10l-2 1q1 17 8 23q82 -4 131 -4
q10 0 99 3t125 3q6 0 6 -5q-1 -2 -4.5 -8.5l-7.5 -14t-7 -14.5l-4 1q0 15 -8 17q-53 9 -139 9q-16 0 -24 -10q-42 -56 -106 -170q-4 -9 6 -9q18 -1 57 -1q90 0 150 13l3 -3q-7 -11 -10 -21q-1 -4 -8 -4q-70 2 -118 2q-60 0 -85 -1q-8 0 -11 -6q-44 -77 -65 -127
q-10 -23 -10 -41q0 -47 71 -47q59 0 142.5 18t120.5 46zM499 591q0 -6 -8 -12q-31 -26 -75 -70q-29 -29 -36 -29q-5 0 -5 5q0 7 -3.5 48t-3.5 51q0 8 5 12q1 0 5 3.5t8 6t5 2.5q3 0 3 -7q0 -19 1 -53t1 -37q0 -6 4 -6q2 0 5 3q38 32 76 78q9 12 13 12q5 0 5 -7z" />
    <glyph glyph-name="ecaron" unicode="&#x11b;" horiz-adv-x="205" 
d="M273 119q-39 -49 -96.5 -87.5t-110.5 -38.5q-47 0 -47 42q0 57 52.5 121t102.5 64q25 0 25 -18q0 -28 -33 -55t-90 -27q-17 -29 -17 -68q0 -41 37 -41q42 0 90 35t80 76q2 2 4.5 1t2.5 -4zM168 197q0 13 -13 13q-18 0 -38.5 -24.5t-36.5 -55.5q6 -2 15 -2q29 0 51 20.5
t22 48.5zM316 386q0 -6 -8 -12q-31 -26 -75 -70q-29 -29 -36 -29q-5 0 -5 5q0 8 -3.5 48t-3.5 51q0 8 5 12q1 0 5 3.5t8 6t5 2.5q3 0 3 -7q0 -19 1 -53t1 -37q0 -6 4 -6q2 0 5 3q38 32 76 78q9 12 13 12q5 0 5 -7z" />
    <glyph glyph-name="Gcircumflex" unicode="&#x11c;" horiz-adv-x="569" 
d="M111 -254l-1 7l3 2q24 -12 56 -12q127 0 281 278q4 7 32 59q0 8 -6 2q-113 -95 -217 -95q-72 0 -110 30.5t-38 83.5q0 24 13 63t38.5 86.5t75 93t111.5 71.5q71 28 152 28q40 0 80 -10t56 -30q-7 -30 -29 -84l-7 -2l-1 3q4 16 4 25q0 36 -39 61.5t-93 25.5
q-96 0 -175 -79q-50 -49 -96.5 -132.5t-46.5 -143.5q0 -82 105 -82q83 0 164.5 62t105.5 127q5 10 3.5 15t-11.5 5l-90 -7l-3 1l3 11q118 0 181 16q4 -3 0 -9q-15 -4 -21.5 -9.5t-13.5 -19.5q-134 -266 -199 -340q-97 -111 -209 -111q-32 0 -58 10zM576 505q0 -12 -4 -15
l-16 -12q-3 0 -3 7q0 9 -3 90q0 6 -4 6q-2 0 -5 -3q-37 -33 -77 -78q-9 -11 -13 -11t-4 5q0 6 9 13q31 27 74 70q21 21 32 28q4 2 5 2q4 0 4 -5q0 -18 2.5 -51.5t2.5 -45.5z" />
    <glyph glyph-name="gcircumflex" unicode="&#x11d;" horiz-adv-x="237" 
d="M290 267q0 -9 -5 -18q-120 -225 -311 -534q-148 -242 -369 -242q-157 0 -157 150q0 28 7 47q1 5 5 3q2 0 2 -4q-6 -18 -6 -37q0 -66 54.5 -101t141.5 -35q196 0 339 273l191 352q-49 -67 -80 -99.5t-53 -32.5q-21 0 -21 25q0 34 47.5 103.5t97.5 93.5q24 12 48 12
q7 0 11 -1l34 58q6 13 13 13q4 0 7.5 -9t3.5 -17zM226 208q-4 1 -15 1q-32 0 -48 -13q-44 -36 -70 -91.5t-26 -81.5q0 -11 6 -11q14 0 66.5 64.5t86.5 131.5zM297 345q0 -12 -4 -15l-16 -12q-3 0 -3 7q0 9 -3 90q0 6 -4 6q-2 0 -5 -3q-37 -33 -77 -78q-9 -11 -13 -11t-4 5
q0 6 9 13q31 27 74 70q21 21 32 28q4 2 5 2q4 0 4 -5q0 -18 2.5 -51.5t2.5 -45.5z" />
    <glyph glyph-name="Gbreve" unicode="&#x11e;" horiz-adv-x="569" 
d="M111 -254l-1 7l3 2q24 -12 56 -12q127 0 281 278q4 7 32 59q0 8 -6 2q-113 -95 -217 -95q-72 0 -110 30.5t-38 83.5q0 24 13 63t38.5 86.5t75 93t111.5 71.5q71 28 152 28q40 0 80 -10t56 -30q-7 -30 -29 -84l-7 -2l-1 3q4 16 4 25q0 36 -39 61.5t-93 25.5
q-96 0 -175 -79q-50 -49 -96.5 -132.5t-46.5 -143.5q0 -82 105 -82q83 0 164.5 62t105.5 127q5 10 3.5 15t-11.5 5l-90 -7l-3 1l3 11q118 0 181 16q4 -3 0 -9q-15 -4 -21.5 -9.5t-13.5 -19.5q-134 -266 -199 -340q-97 -111 -209 -111q-32 0 -58 10zM585 545q0 -1 -8 -13
q-33 -42 -75 -42q-22 0 -35.5 13.5t-13.5 36.5q0 14 18 14q4 0 4 -6q0 -44 39 -44q34 0 55 35q8 12 11 12q5 0 5 -6z" />
    <glyph glyph-name="gbreve" unicode="&#x11f;" horiz-adv-x="237" 
d="M290 267q0 -9 -5 -18q-120 -225 -311 -534q-148 -242 -369 -242q-157 0 -157 150q0 28 7 47q1 5 5 3q2 0 2 -4q-6 -18 -6 -37q0 -66 54.5 -101t141.5 -35q196 0 339 273l191 352q-49 -67 -80 -99.5t-53 -32.5q-21 0 -21 25q0 34 47.5 103.5t97.5 93.5q24 12 48 12
q7 0 11 -1l34 58q6 13 13 13q4 0 7.5 -9t3.5 -17zM226 208q-4 1 -15 1q-32 0 -48 -13q-44 -36 -70 -91.5t-26 -81.5q0 -11 6 -11q14 0 66.5 64.5t86.5 131.5zM316 375q0 -1 -8 -13q-33 -42 -75 -42q-22 0 -35.5 13.5t-13.5 36.5q0 14 18 14q4 0 4 -6q0 -44 39 -44
q34 0 55 35q8 12 11 12q5 0 5 -6z" />
    <glyph glyph-name="Gdotaccent" unicode="&#x120;" horiz-adv-x="569" 
d="M111 -254l-1 7l3 2q24 -12 56 -12q127 0 281 278q4 7 32 59q0 8 -6 2q-113 -95 -217 -95q-72 0 -110 30.5t-38 83.5q0 24 13 63t38.5 86.5t75 93t111.5 71.5q71 28 152 28q40 0 80 -10t56 -30q-7 -30 -29 -84l-7 -2l-1 3q4 16 4 25q0 36 -39 61.5t-93 25.5
q-96 0 -175 -79q-50 -49 -96.5 -132.5t-46.5 -143.5q0 -82 105 -82q83 0 164.5 62t105.5 127q5 10 3.5 15t-11.5 5l-90 -7l-3 1l3 11q118 0 181 16q4 -3 0 -9q-15 -4 -21.5 -9.5t-13.5 -19.5q-134 -266 -199 -340q-97 -111 -209 -111q-32 0 -58 10zM526 534q0 -11 -10 -20.5
t-21 -9.5q-16 0 -16 18q0 12 8 20t20 8q19 0 19 -16z" />
    <glyph glyph-name="gdotaccent" unicode="&#x121;" horiz-adv-x="237" 
d="M290 267q0 -9 -5 -18q-120 -225 -311 -534q-148 -242 -369 -242q-157 0 -157 150q0 28 7 47q1 5 5 3q2 0 2 -4q-6 -18 -6 -37q0 -66 54.5 -101t141.5 -35q196 0 339 273l191 352q-49 -67 -80 -99.5t-53 -32.5q-21 0 -21 25q0 34 47.5 103.5t97.5 93.5q24 12 48 12
q7 0 11 -1l34 58q6 13 13 13q4 0 7.5 -9t3.5 -17zM226 208q-4 1 -15 1q-32 0 -48 -13q-44 -36 -70 -91.5t-26 -81.5q0 -11 6 -11q14 0 66.5 64.5t86.5 131.5zM256 344q0 -11 -10 -20.5t-21 -9.5q-16 0 -16 18q0 12 8 20t20 8q19 0 19 -16z" />
    <glyph glyph-name="Gcommaaccent" unicode="&#x122;" horiz-adv-x="569" 
d="M482 479q2 0 11 8q15 13 15 16q0 1 -6 12t-6 24q0 47 62 86q0 5 -3 6q-2 0 -4 -1q-27 -15 -57 -48q-29 -32 -29 -68q0 -15 6 -25t11 -10zM111 -254l-1 7l3 2q24 -12 56 -12q127 0 281 278q4 7 32 59q0 8 -6 2q-113 -95 -217 -95q-72 0 -110 30.5t-38 83.5q0 24 13 63
t38.5 86.5t75 93t111.5 71.5q71 28 152 28q40 0 80 -10t56 -30q-7 -30 -29 -84l-7 -2l-1 3q4 16 4 25q0 36 -39 61.5t-93 25.5q-96 0 -175 -79q-50 -49 -96.5 -132.5t-46.5 -143.5q0 -82 105 -82q83 0 164.5 62t105.5 127q5 10 3.5 15t-11.5 5l-90 -7l-3 1l3 11
q118 0 181 16q4 -3 0 -9q-15 -4 -21.5 -9.5t-13.5 -19.5q-134 -266 -199 -340q-97 -111 -209 -111q-32 0 -58 10z" />
    <glyph glyph-name="gcommaaccent" unicode="&#x123;" horiz-adv-x="237" 
d="M205 347q0 -16 5.5 -27.5t11.5 -11.5q2 0 16 12q10 9 10 12q0 2 -6 12.5t-6 23.5q0 24 17.5 46.5t42.5 37.5q4 3 2 6t-7 1q-32 -19 -59 -50t-27 -62zM290 267q0 -9 -5 -18q-120 -225 -311 -534q-148 -242 -369 -242q-157 0 -157 150q0 28 7 47q1 5 5 3q2 0 2 -4
q-6 -18 -6 -37q0 -66 54.5 -101t141.5 -35q196 0 339 273l191 352q-49 -67 -80 -99.5t-53 -32.5q-21 0 -21 25q0 34 47.5 103.5t97.5 93.5q24 12 48 12q7 0 11 -1l34 58q6 13 13 13q4 0 7.5 -9t3.5 -17zM226 208q-4 1 -15 1q-32 0 -48 -13q-44 -36 -70 -91.5t-26 -81.5
q0 -11 6 -11q14 0 66.5 64.5t86.5 131.5z" />
    <glyph glyph-name="Hcircumflex" unicode="&#x124;" horiz-adv-x="572" 
d="M62 -11l-3 2l141 214q-12 18 -15 27q1 5 10 5h17q7 0 10 8q77 142 77 161q0 11 -5.5 14.5t-19.5 3.5q-30 0 -51 -3q-6 0 -6 6t8 6q55 0 141 8q10 0 3 -13q-19 -26 -43 -67q-44 -77 -65 -119q-6 -11 2 -11q60 -2 78 -2q83 0 160 9q9 1 15 11q71 137 109 198q5 7 13 11
q24 13 74.5 33t66.5 20q12 0 12 -5q0 -4 -10 -4q-11 0 -35 -7.5t-40 -21.5q-24 -20 -45 -48q-60 -84 -108 -183q-68 -142 -68 -188q0 -39 40 -39q35 0 67 22q3 0 3.5 -2.5t-2.5 -6.5q-62 -29 -127 -32q-33 1 -33 37q0 17 6 36q16 47 46 111q4 8 4 17q0 24 -44 24
q-104 0 -196 -14q-9 -1 -18 -15l-23.5 -39.5l-28 -47.5t-23 -42t-21.5 -47q-4 -10 -14 -10q-30 0 -59 -17zM566 495q0 -12 -4 -15l-16 -12q-3 0 -3 7q0 9 -3 90q0 6 -4 6q-2 0 -5 -3q-37 -33 -77 -78q-9 -11 -13 -11t-4 5q0 6 9 13q31 27 74 70q21 21 32 28q4 2 5 2
q4 0 4 -5q0 -18 2.5 -51.5t2.5 -45.5z" />
    <glyph glyph-name="hcircumflex" unicode="&#x125;" horiz-adv-x="266" 
d="M475 608q0 -12 -4 -15l-16 -12q-3 0 -3 7q0 34 -1 52q-131 -116 -320 -489q24 21 61.5 46.5t57.5 25.5q9 0 9 -7q0 -6 -9 -18q-23 -32 -50 -84.5t-27 -77.5q0 -32 30 -32q25 0 68 32.5t93 99.5q2 2 4 2t2 -4q-43 -60 -100 -106t-98 -46q-17 0 -27 9.5t-10 26.5
q0 23 35.5 91t35.5 78q0 5 -3 5q-11 0 -35 -19.5t-56 -61.5q-38 -66 -55 -100q-8 -16 -15 -16q-21 0 -21 12q0 5 3 11q67 124 163 276l86 134.5t82.5 115t94.5 107.5q-1 10 -1 27q0 6 -4 6q-2 0 -5 -3q-37 -33 -77 -78q-9 -11 -13 -11t-4 5t9 13q31 27 74 70q21 21 32 28
q4 2 5 2q4 0 4 -5q0 -6 0.5 -18t0.5 -17q75 64 142 64q34 0 61 -17.5t27 -57.5q0 -38 -7 -37q-2 1 -2 4q0 24 -22 51t-74 27q-63 0 -124 -47q3 -29 3 -49z" />
    <glyph glyph-name="Hbar" unicode="&#x126;" horiz-adv-x="572" 
d="M62 -11l-3 2l136 206q-12 18 -15 27q1 5 10 5h17q7 0 10 8q2 5 15 27.5t21 38.5q0 7 -15 8q-14 3 -14 7q0 7 9 7h28q3 0 7 7q31 60 31 74q0 11 -5.5 14.5t-19.5 3.5q-30 0 -51 -3q-6 0 -6 6t8 6q55 0 141 8q10 0 3 -13q-19 -26 -43 -67q-3 -4 -22 -38l36 -1q69 1 218 8
q37 70 67 117q5 7 13 11q24 13 74.5 33t66.5 20q12 0 12 -5q0 -4 -10 -4q-11 0 -35 -7.5t-40 -21.5q-24 -20 -45 -48q-19 -26 -59 -92q3 0 12 1t13 2q7 0 6 -6q-1 -3 -5 -4q-5 0 -16 -1t-16 -2q-34 -58 -48 -89q-63 -131 -63 -180q0 -39 40 -39q35 0 67 22q3 0 3.5 -2.5
t-2.5 -6.5q-62 -29 -127 -32q-33 1 -33 37q0 17 7 40t22 56.5t18 42.5q4 8 4 17q0 24 -44 24q-104 0 -196 -14q-9 -1 -18 -15l-22.5 -38.5l-26.5 -45.5l-21 -38.5t-21 -45.5q-4 -10 -14 -10q-30 0 -59 -17zM553 320q-204 -10 -259 -14q-28 -52 -38 -72q-6 -11 2 -11
q60 -2 78 -2q84 0 160 9q9 1 15 11q28 54 42 79z" />
    <glyph glyph-name="hbar" unicode="&#x127;" horiz-adv-x="266" 
d="M701 659q0 -38 -7 -37q-2 1 -2 4q0 23 -22 47t-74 24q-36 0 -70.5 -14t-78.5 -51t-98.5 -111.5t-118.5 -185.5q100 5 114 5q9 0 5 -8q-2 -5 -7 -4q-51 0 -119 -4q-39 -68 -92 -173q24 21 61.5 46.5t57.5 25.5q9 0 9 -7q0 -6 -9 -18q-23 -32 -50 -84.5t-27 -77.5
q0 -32 30 -32q25 0 68 32.5t93 99.5q2 2 4 2t2 -4q-43 -60 -100 -106t-98 -46q-17 0 -27 9.5t-10 26.5q0 23 35.5 91t35.5 78q0 5 -3 5q-11 0 -35 -19.5t-56 -61.5q-38 -66 -55 -100q-8 -16 -15 -16q-21 0 -21 12q0 5 3 11q67 124 163 276q2 3 17 28q-10 0 -22.5 -1.5
t-22 -2.5t-10.5 -1q-4 0 -5.5 2t-0.5 4t4 4t16 4q19 2 49 3l75.5 116.5t76.5 105t83 94t81.5 59.5t84.5 25q34 0 61 -17.5t27 -57.5z" />
    <glyph glyph-name="Itilde" unicode="&#x128;" horiz-adv-x="245" 
d="M36 3q16 2 28 17q43 52 129 191t104 193q2 6 2 11q0 11 -27 11q-34 0 -55 -5l-3 1q2 8 6 12q98 4 152 12q5 -3 5 -8q0 -2 -6 -4q-10 -3 -23 -25q-121 -226 -226 -384q-15 -21 -37 -25q-27 -4 -47 -2q-2 1 -2 5zM446 557q-3 -24 -20.5 -43t-39.5 -19q-20 0 -48.5 27.5
t-41.5 27.5q-24 0 -58 -46q-5 -7 -8.5 -5t2.5 11q22 28 52 50q13 10 26 10q14 0 42 -28.5t47 -28.5q16 0 27 13.5t11 30.5q0 5 4.5 7t4.5 -7z" />
    <glyph glyph-name="itilde" unicode="&#x129;" horiz-adv-x="181" 
d="M281 131q-49 -62 -112 -104q-41 -27 -79 -27q-44 0 -44 34q0 23 28.5 74t53.5 87q5 7 17 13t17 6t5 -3q0 -5 -5 -12q-28 -43 -51.5 -92t-23.5 -70q0 -23 24 -23q36 0 86.5 41.5t79.5 80.5q6 6 6 2q0 -3 -2 -7zM287 357q-3 -24 -20.5 -43t-39.5 -19q-20 0 -48.5 27.5
t-41.5 27.5q-24 0 -58 -46q-5 -7 -8.5 -5t2.5 11q22 28 52 50q13 10 26 10q14 0 42 -28.5t47 -28.5q16 0 27 13.5t11 30.5q0 5 4.5 7t4.5 -7z" />
    <glyph glyph-name="Imacron" unicode="&#x12a;" horiz-adv-x="245" 
d="M36 3q16 2 28 17q43 52 129 191t104 193q2 6 2 11q0 11 -27 11q-34 0 -55 -5l-3 1q2 8 6 12q98 4 152 12q5 -3 5 -8q0 -2 -6 -4q-10 -3 -23 -25q-121 -226 -226 -384q-15 -21 -37 -25q-27 -4 -47 -2q-2 1 -2 5zM404 535l-3 -15l-88 -2l5 15z" />
    <glyph glyph-name="imacron" unicode="&#x12b;" horiz-adv-x="181" 
d="M281 131q-49 -62 -112 -104q-41 -27 -79 -27q-44 0 -44 34q0 23 28.5 74t53.5 87q5 7 17 13t17 6t5 -3q0 -5 -5 -12q-28 -43 -51.5 -92t-23.5 -70q0 -23 24 -23q36 0 86.5 41.5t79.5 80.5q6 6 6 2q0 -3 -2 -7zM236 335l-3 -15l-88 -2l5 15z" />
    <glyph glyph-name="Iogonek" unicode="&#x12e;" horiz-adv-x="245" 
d="M36 3q16 2 28 17q43 52 129 191t104 193q2 6 2 11q0 11 -27 11q-34 0 -55 -5l-3 1q2 8 6 12q98 4 152 12q5 -3 5 -8q0 -2 -6 -4q-10 -3 -23 -25q-121 -226 -226 -384q-15 -21 -37 -25q-27 -4 -47 -2q-2 1 -2 5zM109 10q0 -2 -4 -3q-31 -11 -50.5 -30.5t-19.5 -37.5
q0 -13 10 -21.5t24 -8.5q2 0 6 1t6 1q5 0 1 -4q-1 -2 -3 -2q-17 -5 -33 -5q-19 0 -31 8t-12 21q0 16 20 35q15 14 45 31t38 17q3 0 3 -2z" />
    <glyph glyph-name="iogonek" unicode="&#x12f;" horiz-adv-x="181" 
d="M236 354q0 -12 -11 -24t-23 -12t-12 12q0 13 10 25t23 12t13 -13zM281 131q-49 -62 -112 -104q-41 -27 -79 -27q-44 0 -44 34q0 23 28.5 74t53.5 87q5 7 17 13t17 6t5 -3q0 -5 -5 -12q-28 -43 -51.5 -92t-23.5 -70q0 -23 24 -23q36 0 86.5 41.5t79.5 80.5q6 6 6 2
q0 -3 -2 -7zM109 4q0 -2 -4 -3q-31 -11 -50.5 -30.5t-19.5 -37.5q0 -13 10 -21.5t24 -8.5q2 0 6 1t6 1q5 0 1 -4q-1 -2 -3 -2q-17 -5 -33 -5q-19 0 -31 8t-12 21q0 16 20 35q15 14 45 31t38 17q3 0 3 -2z" />
    <glyph glyph-name="Idotaccent" unicode="&#x130;" horiz-adv-x="245" 
d="M36 3q16 2 28 17q43 52 129 191t104 193q2 6 2 11q0 11 -27 11q-34 0 -55 -5l-3 1q2 8 6 12q98 4 152 12q5 -3 5 -8q0 -2 -6 -4q-10 -3 -23 -25q-121 -226 -226 -384q-15 -21 -37 -25q-27 -4 -47 -2q-2 1 -2 5zM393 534q0 -11 -10 -20.5t-21 -9.5q-16 0 -16 18q0 12 8 20
t20 8q19 0 19 -16z" />
    <glyph glyph-name="dotlessi" unicode="&#x131;" horiz-adv-x="181" 
d="M281 131q-49 -62 -112 -104q-41 -27 -79 -27q-44 0 -44 34q0 23 28.5 74t53.5 87q5 7 17 13t17 6t5 -3q0 -5 -5 -12q-28 -43 -51.5 -92t-23.5 -70q0 -23 24 -23q36 0 86.5 41.5t79.5 80.5q6 6 6 2q0 -3 -2 -7z" />
    <glyph glyph-name="Jcircumflex" unicode="&#x134;" horiz-adv-x="345" 
d="M444 515q0 -12 -4 -15l-16 -12q-3 0 -3 7q0 9 -3 90q0 6 -4 6q-2 0 -5 -3q-37 -33 -77 -78q-9 -11 -13 -11t-4 5q0 6 9 13q31 27 74 70q21 21 32 28q4 2 5 2q4 0 4 -5q0 -18 2.5 -51.5t2.5 -45.5zM508 445q4 -1 4 -5t-4 -4q-8 1 -18 1q-15 0 -23 -9q-10 -13 -23 -34
t-21 -36l-25.5 -47t-22.5 -42q-65 -115 -93 -159q-37 -62 -81 -104q-37 -35 -65.5 -56t-76 -39.5t-99.5 -18.5q-45 0 -77 13q-10 4 -9 14q0 10 2 46l7 2q9 -63 95 -63q84 0 152 68q59 58 144 202q87 146 134 251q3 10 -5 10q-44 0 -95 -10.5t-83 -27.5q-18 -10 -31 -29
t-13 -41q0 -8 2 -14q1 -3 -2 -3q-16 11 -16 40q0 19 18 39t56 32q78 24 269 24z" />
    <glyph glyph-name="jcircumflex" unicode="&#x135;" horiz-adv-x="195" 
d="M232 295q0 -12 -4 -15l-16 -12q-3 0 -3 7q0 9 -3 90q0 6 -4 6q-2 0 -5 -3q-37 -33 -77 -78q-9 -11 -13 -11t-4 5q0 6 9 13q31 27 74 70q21 21 32 28q4 2 5 2q4 0 4 -5q0 -18 2.5 -51.5t2.5 -45.5zM283 126q0 -52 -59 -106q-54 -51 -147.5 -128l-135.5 -114
q-26 -23 -60 -68t-72 -79q-2 -2 -6 -2q-10 0 -10 24q0 10 4 15q19 27 64.5 64.5t69.5 80.5q78 140 180 360q4 10 4 14q0 9 -8 9q-1 0 -7 -1.5l-14 -3.5t-14 -2q-2 0 -3.5 2t0 4t4.5 3q25 4 44 10.5t28 10t14 3.5q10 0 10 -11q0 -6 -4 -14q-15 -27 -55 -106t-67 -126
l-111 -180q10 9 90 72t135.5 115.5t89.5 102.5q24 35 24 65q0 14 -6 22q-3 6 0 6q2 0 5 -2q13 -10 13 -40z" />
    <glyph glyph-name="Kcommaaccent" unicode="&#x136;" horiz-adv-x="502" 
d="M269 -78q0 16 -5.5 27.5t-11.5 11.5q-2 0 -16 -12q-10 -9 -10 -12q0 -2 6 -12.5t6 -23.5q0 -24 -17.5 -46.5t-42.5 -37.5q-4 -3 -2 -6t7 -1q32 19 59 50t27 62zM60 -20q-6 0 -6 3q35 42 83 119q106 173 178 322l1 1v2q0 3 -5 3q-19 0 -55.5 -3t-50.5 -3q-11 0 -11 6
q0 3 7 14.5t10 11.5q0 -8 10 -11q13 -4 52 -6q3 0 12 -0.5t14 -0.5q59 0 125 5q3 -5 -1 -9q-15 0 -39 -2q-7 0 -12 -8l-122 -201q-4 -7 -1.5 -8.5t7.5 2.5q108 64 194 122q10 6 51 33.5l76 51t39 24.5h4q8 -5 25 -9q1 -3 -1 -5q-42 -14 -217 -123q-84 -52 -128 -85
q-4 -3 -4 -6q125 -166 236 -269q62 -57 104.5 -78t95.5 -21q87 0 142 38q8 5 8 -2q0 -2 -4 -5q-63 -41 -165 -41q-155 0 -300 162q-96 109 -164 200q-4 7 -11 -3l-101 -178q-7 -12 -10 -25q-14 2 -20 2q-26 0 -46 -20z" />
    <glyph glyph-name="kcommaaccent" unicode="&#x137;" horiz-adv-x="300" 
d="M596 596q0 -8 -6 -23t-7 -24q0 -4 -3 -5q-4 -1 -4 4q0 2 1 5.5t1 5.5q0 23 -19.5 34.5t-43.5 11.5q-69 0 -132 -65q-68 -71 -140 -189q-114 -188 -157 -273q-3 -7 -3 -8q1 -1 8 6q18 18 74 68q-1 4 -1 13q0 14 32 25l3 -9q112 95 122 95q6 0 11 -13q0 -6 -10 -9
q-21 -7 -59.5 -34.5t-64.5 -50.5q6 -69 32 -120q10 -21 34 -21q27 0 67 38.5t71 84.5q3 6 7 1q3 -2 0 -5q-75 -102 -132 -132q-24 -12 -41 -12q-27 0 -40 27t-29 112q-93 -90 -118 -136q-3 -5 -8 -5q-6 0 -10.5 8t-4.5 16q0 6 1 8q10 14 53 91t95 161q86 138 171 236
q85 97 158 115q26 6 38 6q19 0 36.5 -10t17.5 -28zM144 -78q0 16 -5.5 27.5t-11.5 11.5q-2 0 -16 -12q-10 -9 -10 -12q0 -2 6 -12.5t6 -23.5q0 -24 -17.5 -46.5t-42.5 -37.5q-4 -3 -2 -6t7 -1q32 19 59 50t27 62z" />
    <glyph glyph-name="Lacute" unicode="&#x139;" horiz-adv-x="440" 
d="M448 436q-16 4 -32 4q-5 0 -9 -1t-7 -2t-7 -4l-6 -4.5t-5.5 -6l-5 -6.5l-5.5 -7.5t-5 -6.5q-28 -40 -52 -81l-112 -195q-40 -67 -100 -100q-7 -3 -7 -6t8 -3q193 18 253 18q45 0 60 -3q16 -4 16 -14q0 -16 -13 -42q-2 0 -2 4q0 14 -9 17q-44 16 -148 16q-167 0 -238 -21
q-10 2 -10 11q0 6 8 6q40 0 56 10q28 17 66 80q30 49 93 165t87 156q4 8 16 12q46 18 109 18q4 -2 4 -7t-3 -7zM547 593q0 -2 -3 -5q-79 -60 -160 -115q-6 -4 -7 0q-1 1 1 2l156 126q4 2 5 2q2 0 5 -3.5t3 -6.5z" />
    <glyph glyph-name="lacute" unicode="&#x13a;" horiz-adv-x="203" 
d="M523 652q0 -22 -25 -71t-66.5 -108t-108 -121t-138.5 -101q-2 -3 -13 -21.5t-17 -29.5l-17.5 -31.5t-18.5 -35.5l-14.5 -32.5t-11 -32t-3.5 -25.5q0 -32 29 -32q77 0 186 131q8 8 8 2q0 -3 -3 -6q-45 -56 -102 -99t-110 -43q-49 0 -49 43q0 14 9.5 38.5t27 56l32 55.5
l34 55.5l22.5 36.5q88 152 137 228q38 59 81 95q36 30 68 48t45 18q18 0 18 -18zM478 626q0 16 -13 16q-11 0 -27.5 -16.5t-56.5 -69.5q-36 -47 -188 -292q115 64 200 178t85 184zM469 716q0 -2 -3 -5q-79 -60 -160 -115q-6 -4 -7 0q-1 1 1 2l156 126q4 2 5 2q2 0 5 -3.5
t3 -6.5z" />
    <glyph glyph-name="Lcommaaccent" unicode="&#x13b;" horiz-adv-x="440" 
d="M448 436q-16 4 -32 4q-5 0 -9 -1t-7 -2t-7 -4l-6 -4.5t-5.5 -6l-5 -6.5l-5.5 -7.5t-5 -6.5q-28 -40 -52 -81l-112 -195q-40 -67 -100 -100q-7 -3 -7 -6t8 -3q193 18 253 18q45 0 60 -3q16 -4 16 -14q0 -16 -13 -42q-2 0 -2 4q0 14 -9 17q-44 16 -148 16q-167 0 -238 -21
q-10 2 -10 11q0 6 8 6q40 0 56 10q28 17 66 80q30 49 93 165t87 156q4 8 16 12q46 18 109 18q4 -2 4 -7t-3 -7zM263 -78q0 16 -5.5 27.5t-11.5 11.5q-2 0 -16 -12q-10 -9 -10 -12q0 -2 6 -12.5t6 -23.5q0 -24 -17.5 -46.5t-42.5 -37.5q-4 -3 -2 -6t7 -1q32 19 59 50t27 62z
" />
    <glyph glyph-name="lcommaaccent" unicode="&#x13c;" horiz-adv-x="203" 
d="M523 652q0 -22 -25 -71t-66.5 -108t-108 -121t-138.5 -101q-2 -3 -13 -21.5t-17 -29.5l-17.5 -31.5t-18.5 -35.5l-14.5 -32.5t-11 -32t-3.5 -25.5q0 -32 29 -32q77 0 186 131q8 8 8 2q0 -3 -3 -6q-45 -56 -102 -99t-110 -43q-49 0 -49 43q0 14 9.5 38.5t27 56l32 55.5
l34 55.5l22.5 36.5q88 152 137 228q38 59 81 95q36 30 68 48t45 18q18 0 18 -18zM478 626q0 16 -13 16q-11 0 -27.5 -16.5t-56.5 -69.5q-36 -47 -188 -292q115 64 200 178t85 184zM115 -78q0 16 -5.5 27.5t-11.5 11.5q-2 0 -16 -12q-10 -9 -10 -12q0 -2 6 -12.5t6 -23.5
q0 -24 -17.5 -46.5t-42.5 -37.5q-4 -3 -2 -6t7 -1q32 19 59 50t27 62z" />
    <glyph glyph-name="Lcaron" unicode="&#x13d;" horiz-adv-x="440" 
d="M448 436q-16 4 -32 4q-5 0 -9 -1t-7 -2t-7 -4l-6 -4.5t-5.5 -6l-5 -6.5l-5.5 -7.5t-5 -6.5q-28 -40 -52 -81l-112 -195q-40 -67 -100 -100q-7 -3 -7 -6t8 -3q193 18 253 18q45 0 60 -3q16 -4 16 -14q0 -16 -13 -42q-2 0 -2 4q0 14 -9 17q-44 16 -148 16q-167 0 -238 -21
q-10 2 -10 11q0 6 8 6q40 0 56 10q28 17 66 80q30 49 93 165t87 156q4 8 16 12q46 18 109 18q4 -2 4 -7t-3 -7zM436 370q0 16 -5.5 27.5t-11.5 11.5q-2 0 -16 -12q-10 -9 -10 -12q0 -2 6 -12.5t6 -23.5q0 -24 -17.5 -46.5t-42.5 -37.5q-4 -3 -2 -6t7 -1q32 19 59 50t27 62z
" />
    <glyph glyph-name="lcaron" unicode="&#x13e;" horiz-adv-x="210" 
d="M469 604q-29 -1 -44 -6t-34 -26q-48 -51 -145 -217l-38 -65l-23 -39q-2 -3 -13 -21.5t-17 -29.5l-17.5 -31.5t-18.5 -35.5l-14.5 -32.5t-11 -32t-3.5 -25.5q0 -32 29 -32q77 0 186 131q8 8 8 2q0 -3 -3 -6q-45 -56 -102 -99t-110 -43q-49 0 -49 43q0 11 7.5 32t17.5 41
t26.5 49.5l26.5 46.5l26 43.5t18 29.5q130 225 193 282q42 38 89 54q10 4 18 -6q2 -2 2 -4.5t-4 -2.5zM436 525q0 16 -5.5 27.5t-11.5 11.5q-5 0 -18 -6q-8 -4 -8 -8q0 -2 9 -16t9 -29q0 -24 -19 -48t-44 -39q-4 -3 -3 -4.5t5 -0.5q32 19 59 50t27 62z" />
    <glyph glyph-name="Ldot" unicode="&#x13f;" horiz-adv-x="440" 
d="M448 436q-16 4 -32 4q-5 0 -9 -1t-7 -2t-7 -4l-6 -4.5t-5.5 -6l-5 -6.5l-5.5 -7.5t-5 -6.5q-28 -40 -52 -81l-112 -195q-40 -67 -100 -100q-7 -3 -7 -6t8 -3q193 18 253 18q45 0 60 -3q16 -4 16 -14q0 -16 -13 -42q-2 0 -2 4q0 14 -9 17q-44 16 -148 16q-167 0 -238 -21
q-10 2 -10 11q0 6 8 6q40 0 56 10q28 17 66 80q30 49 93 165t87 156q4 8 16 12q46 18 109 18q4 -2 4 -7t-3 -7zM409 247q0 -11 -10 -20.5t-21 -9.5q-16 0 -16 18q0 12 8 20t20 8q19 0 19 -16z" />
    <glyph glyph-name="ldot" unicode="&#x140;" horiz-adv-x="210" 
d="M469 604q-29 -1 -44 -6t-34 -26q-48 -51 -145 -217l-38 -65l-23 -39q-2 -3 -13 -21.5t-17 -29.5l-17.5 -31.5t-18.5 -35.5l-14.5 -32.5t-11 -32t-3.5 -25.5q0 -32 29 -32q77 0 186 131q8 8 8 2q0 -3 -3 -6q-45 -56 -102 -99t-110 -43q-49 0 -49 43q0 11 7.5 32t17.5 41
t26.5 49.5l26.5 46.5l26 43.5t18 29.5q130 225 193 282q42 38 89 54q10 4 18 -6q2 -2 2 -4.5t-4 -2.5zM342 334q0 -11 -10 -20.5t-21 -9.5q-16 0 -16 18q0 12 8 20t20 8q19 0 19 -16z" />
    <glyph glyph-name="Lslash" unicode="&#x141;" horiz-adv-x="440" 
d="M448 436q-16 4 -32 4q-5 0 -9 -1t-7 -2t-7 -4l-6 -4.5t-5.5 -6l-5 -6.5l-5.5 -7.5t-5 -6.5q-28 -40 -52 -81l-54 -94l123 34q9 0 8 -12q0 -4 -2 -4t-4 1q-1 1 -134 -35l-49 -85q-40 -67 -100 -100q-7 -3 -7 -6t8 -3q193 18 253 18q45 0 60 -3q16 -4 16 -14q0 -16 -13 -42
q-2 0 -2 4q0 14 -9 17q-44 16 -148 16q-167 0 -238 -21q-10 2 -10 11q0 6 8 6q40 0 56 10q28 17 66 80q32 52 56 97q-8 -3 -15.5 -5.5l-13.5 -4.5t-11 -4l-9 -3.5l-6.5 -2.5t-3.5 -2h-1q-6 0 -10.5 5.5t-4.5 8.5q2 2 3 2q9 0 79 22q75 139 117 208q4 8 16 12q46 18 109 18
q4 -2 4 -7t-3 -7z" />
    <glyph glyph-name="lslash" unicode="&#x142;" horiz-adv-x="217" 
d="M570 609q-12 39 -60 39q-41 0 -77 -27t-95 -112l-47 -70q86 16 89 16q9 0 9 -12q0 -8 -5 -3q-11 0 -103 -18q-192 -304 -192 -370q0 -42 44 -42q38 0 89 38.5t89 85.5q5 6 7 3.5t-2 -9.5q-113 -133 -207 -133q-25 0 -44.5 12t-19.5 37q0 33 61 144.5t142 227.5l-33.5 -7
l-28.5 -6t-12 -2q-5 0 -9.5 3.5t-4.5 8.5l100 20q62 88 119 150q78 82 148 82q66 0 66 -32q0 -5 -8.5 -14.5t-14.5 -9.5z" />
    <glyph glyph-name="Nacute" unicode="&#x143;" horiz-adv-x="549" 
d="M105 -15h-3q-4 4 -13 20t-9 24q0 14 20 47l101 170q56 91 74 139q4 10 4 17q0 21 -24 21q-25 0 -53 -2q-9 0 -9 14q0 4 3 4q19 -6 53 -6q37 0 69 10q6 0 8 -9q3 -16 12 -50q9 -35 27 -86.5l42.5 -118l33.5 -90.5q5 -18 11 -18q4 0 13 17q134 271 198 370q39 62 80 62
q7 0 17.5 -6.5t13.5 -14.5q0 -2 -3 -2q-55 0 -109 -75q-85 -118 -179 -325l-14.5 -33l-17 -39l-13.5 -30q-4 -7 -6 -7q-4 0 -9 7q-41 147 -123 352q-6 13 -11 13t-13 -12q-101 -156 -150 -266q-21 -48 -21 -97zM642 593q0 -2 -3 -5q-79 -60 -160 -115q-6 -4 -7 0q0 1 1 2
l156 126q4 2 5 2q2 0 5 -3.5t3 -6.5z" />
    <glyph glyph-name="nacute" unicode="&#x144;" horiz-adv-x="262" 
d="M363 129q-41 -57 -96 -99.5t-103 -42.5q-32 0 -32 21q0 17 15.5 47.5t38 69t31.5 59.5q2 5 0 8.5t-6 0.5q-22 -14 -56.5 -45t-53.5 -52l-26.5 -44.5l-29.5 -48.5q-4 -6 -6 -6q-5 0 -8.5 10t-3.5 15q0 9 40 59q47 96 62 131q3 5 9 5t11 -5t5 -11q0 -2 -6.5 -13.5
l-17.5 -31t-19 -37.5q120 108 142 108q4 0 7.5 -4.5t3.5 -8.5t-5 -12q-30 -44 -61 -100t-31 -81q0 -21 21 -21q32 0 86.5 44.5t83.5 90.5q3 3 6 1t-1 -7zM369 393q0 -2 -3 -5q-79 -60 -160 -115q-6 -4 -7 0q-1 1 1 2l156 126q4 2 5 2q2 0 5 -3.5t3 -6.5z" />
    <glyph glyph-name="Ncommaaccent" unicode="&#x145;" horiz-adv-x="549" 
d="M105 -15h-3q-4 4 -13 20t-9 24q0 14 20 47l101 170q56 91 74 139q4 10 4 17q0 21 -24 21q-25 0 -53 -2q-9 0 -9 14q0 4 3 4q19 -6 53 -6q37 0 69 10q6 0 8 -9q3 -16 12 -50q9 -35 27 -86.5l42.5 -118l33.5 -90.5q5 -18 11 -18q4 0 13 17q134 271 198 370q39 62 80 62
q7 0 17.5 -6.5t13.5 -14.5q0 -2 -3 -2q-55 0 -109 -75q-85 -118 -179 -325l-14.5 -33l-17 -39l-13.5 -30q-4 -7 -6 -7q-4 0 -9 7q-41 147 -123 352q-6 13 -11 13t-13 -12q-101 -156 -150 -266q-21 -48 -21 -97zM279 -78q0 16 -5.5 27.5t-11.5 11.5q-2 0 -16 -12
q-10 -9 -10 -12q0 -2 6 -12.5t6 -23.5q0 -24 -17.5 -46.5t-42.5 -37.5q-4 -3 -2 -6t7 -1q32 19 59 50t27 62z" />
    <glyph glyph-name="ncommaaccent" unicode="&#x146;" horiz-adv-x="262" 
d="M363 129q-41 -57 -96 -99.5t-103 -42.5q-32 0 -32 21q0 17 15.5 47.5t38 69t31.5 59.5q2 5 0 8.5t-6 0.5q-22 -14 -56.5 -45t-53.5 -52l-26.5 -44.5l-29.5 -48.5q-4 -6 -6 -6q-5 0 -8.5 10t-3.5 15q0 9 40 59q47 96 62 131q3 5 9 5t11 -5t5 -11q0 -2 -6.5 -13.5
l-17.5 -31t-19 -37.5q120 108 142 108q4 0 7.5 -4.5t3.5 -8.5t-5 -12q-30 -44 -61 -100t-31 -81q0 -21 21 -21q32 0 86.5 44.5t83.5 90.5q3 3 6 1t-1 -7zM103 -78q0 16 -5.5 27.5t-11.5 11.5q-2 0 -16 -12q-10 -9 -10 -12q0 -2 6 -12.5t6 -23.5q0 -24 -17.5 -46.5
t-42.5 -37.5q-4 -3 -2 -6t7 -1q32 19 59 50t27 62z" />
    <glyph glyph-name="Ncaron" unicode="&#x147;" horiz-adv-x="549" 
d="M105 -15h-3q-4 4 -13 20t-9 24q0 14 20 47l101 170q56 91 74 139q4 10 4 17q0 21 -24 21q-25 0 -53 -2q-9 0 -9 14q0 4 3 4q19 -6 53 -6q37 0 69 10q6 0 8 -9q3 -16 12 -50q9 -35 27 -86.5l42.5 -118l33.5 -90.5q5 -18 11 -18q4 0 13 17q134 271 198 370q39 62 80 62
q7 0 17.5 -6.5t13.5 -14.5q0 -2 -3 -2q-55 0 -109 -75q-85 -118 -179 -325l-14.5 -33l-17 -39l-13.5 -30q-4 -7 -6 -7q-4 0 -9 7q-41 147 -123 352q-6 13 -11 13t-13 -12q-101 -156 -150 -266q-21 -48 -21 -97zM616 586q0 -6 -8 -12q-31 -26 -75 -70q-29 -29 -36 -29
q-5 0 -5 5q0 8 -3.5 48t-3.5 51q0 8 5 12q1 0 5 3.5t8 6t5 2.5q3 0 3 -7q0 -19 1 -53t1 -37q0 -6 4 -6q2 0 5 3q38 32 76 78q9 12 13 12q5 0 5 -7z" />
    <glyph glyph-name="ncaron" unicode="&#x148;" horiz-adv-x="262" 
d="M363 129q-41 -57 -96 -99.5t-103 -42.5q-32 0 -32 21q0 17 15.5 47.5t38 69t31.5 59.5q2 5 0 8.5t-6 0.5q-22 -14 -56.5 -45t-53.5 -52l-26.5 -44.5l-29.5 -48.5q-4 -6 -6 -6q-5 0 -8.5 10t-3.5 15q0 9 40 59q47 96 62 131q3 5 9 5t11 -5t5 -11q0 -2 -6.5 -13.5
l-17.5 -31t-19 -37.5q120 108 142 108q4 0 7.5 -4.5t3.5 -8.5t-5 -12q-30 -44 -61 -100t-31 -81q0 -21 21 -21q32 0 86.5 44.5t83.5 90.5q3 3 6 1t-1 -7zM332 386q0 -6 -8 -12q-31 -26 -75 -70q-29 -29 -36 -29q-5 0 -5 5q0 8 -3.5 48t-3.5 51q0 8 5 12q1 0 5 3.5t8 6t5 2.5
q3 0 3 -7q0 -19 1 -53t1 -37q0 -6 4 -6q2 0 5 3q38 32 76 78q9 12 13 12q5 0 5 -7z" />
    <glyph glyph-name="Omacron" unicode="&#x14c;" horiz-adv-x="589" 
d="M637 319q-2 -126 -103 -227t-230 -101q-184 0 -184 130q0 60 39.5 133.5t87.5 117.5q82 75 208 75q34 0 64 -6t58 -19.5t44.5 -40t15.5 -62.5zM587 326q0 114 -131 114q-100 0 -172 -81q-44 -49 -80 -120.5t-36 -127.5q0 -111 128 -111q75 0 143.5 52t108 127t39.5 147z
M539 535l-3 -15l-88 -2l5 15z" />
    <glyph glyph-name="omacron" unicode="&#x14d;" horiz-adv-x="250" 
d="M381 170q-45 -60 -97 -60q-40 0 -60 34q-17 -40 -48 -82t-69 -61q-18 -8 -30 -8q-36 0 -36 32t21 70t45 64q49 52 106 58q5 29 20 31t19 5q3 2 6 0.5t1 -5.5q-14 -23 -14 -65q0 -64 47 -64q44 0 82 54q3 6 7 2q3 -2 0 -5zM216 163q-4 16 -4 44q0 5 -4 5q-40 0 -93 -89
q-34 -58 -33 -96q0 -19 14 -19q31 0 73.5 60.5t46.5 94.5zM295 335l-3 -15l-88 -2l5 15z" />
    <glyph glyph-name="Obreve" unicode="&#x14e;" horiz-adv-x="589" 
d="M637 319q-2 -126 -103 -227t-230 -101q-184 0 -184 130q0 60 39.5 133.5t87.5 117.5q82 75 208 75q34 0 64 -6t58 -19.5t44.5 -40t15.5 -62.5zM587 326q0 114 -131 114q-100 0 -172 -81q-44 -49 -80 -120.5t-36 -127.5q0 -111 128 -111q75 0 143.5 52t108 127t39.5 147z
M585 565q0 -1 -8 -13q-33 -42 -75 -42q-22 0 -35.5 13.5t-13.5 36.5q0 14 18 14q4 0 4 -6q0 -44 39 -44q34 0 55 35q8 12 11 12q5 0 5 -6z" />
    <glyph glyph-name="obreve" unicode="&#x14f;" horiz-adv-x="250" 
d="M381 170q-45 -60 -97 -60q-40 0 -60 34q-17 -40 -48 -82t-69 -61q-18 -8 -30 -8q-36 0 -36 32t21 70t45 64q49 52 106 58q5 29 20 31t19 5q3 2 6 0.5t1 -5.5q-14 -23 -14 -65q0 -64 47 -64q44 0 82 54q3 6 7 2q3 -2 0 -5zM216 163q-4 16 -4 44q0 5 -4 5q-40 0 -93 -89
q-34 -58 -33 -96q0 -19 14 -19q31 0 73.5 60.5t46.5 94.5zM324 345q0 -1 -8 -13q-33 -42 -75 -42q-22 0 -35.5 13.5t-13.5 36.5q0 14 18 14q4 0 4 -6q0 -44 39 -44q34 0 55 35q8 12 11 12q5 0 5 -6z" />
    <glyph glyph-name="Ohungarumlaut" unicode="&#x150;" horiz-adv-x="589" 
d="M637 319q-2 -126 -103 -227t-230 -101q-184 0 -184 130q0 60 39.5 133.5t87.5 117.5q82 75 208 75q34 0 64 -6t58 -19.5t44.5 -40t15.5 -62.5zM587 326q0 114 -131 114q-100 0 -172 -81q-44 -49 -80 -120.5t-36 -127.5q0 -111 128 -111q75 0 143.5 52t108 127t39.5 147z
M621 586q0 -4 -6 -11q-46 -48 -74 -73q-3 -2 -4 -2q-2 2 1 5q4 7 68 92q3 3 6 3q9 0 9 -14zM560 588q0 -6 -7 -13l-74 -75q-2 -2 -3.5 -0.5t0.5 3.5q9 15 21 31l27.5 35t23.5 30q2 3 5 3q7 0 7 -14z" />
    <glyph glyph-name="ohungarumlaut" unicode="&#x151;" horiz-adv-x="250" 
d="M381 170q-45 -60 -97 -60q-40 0 -60 34q-17 -40 -48 -82t-69 -61q-18 -8 -30 -8q-36 0 -36 32t21 70t45 64q49 52 106 58q5 29 20 31t19 5q3 2 6 0.5t1 -5.5q-14 -23 -14 -65q0 -64 47 -64q44 0 82 54q3 6 7 2q3 -2 0 -5zM216 163q-4 16 -4 44q0 5 -4 5q-40 0 -93 -89
q-34 -58 -33 -96q0 -19 14 -19q31 0 73.5 60.5t46.5 94.5zM346 366q0 -4 -6 -11q-46 -48 -74 -73q-3 -2 -4 -2q-2 2 1 5q4 7 68 92q3 3 6 3q9 0 9 -14zM285 368q0 -6 -7 -13l-74 -75q-2 -2 -3.5 -0.5t0.5 3.5q9 15 21 31l27.5 35t23.5 30q1 3 5 3q7 0 7 -14z" />
    <glyph glyph-name="OE" unicode="&#x152;" horiz-adv-x="842" 
d="M570 311q0 26 -4 44.5t-16 39t-39 31.5t-69 11q-71 0 -136.5 -63t-100 -140t-34.5 -132q0 -48 30.5 -76.5t93.5 -28.5q74 0 147.5 54.5t111.5 165.5q16 48 16 94zM612 236q19 -2 67 -2q97 0 144 10q3 1 4.5 -0.5t0.5 -3.5q-4 -6 -7 -16q-1 -4 -8 -4h-1q-68 2 -117 2
q-60 0 -84 -1q-8 0 -11 -6q-15 -24 -43 -84t-28 -85q0 -45 67 -45q79 0 179 27q58 16 93 39q7 2 8 0t-3 -6q-13 -12 -21 -24q-7 -13 -29 -18q-104 -23 -210 -28q-77 0 -109 6.5t-32 30.5q0 17 17 48q-94 -91 -206 -91q-82 0 -122.5 28.5t-40.5 102.5q0 39 23 93t62.5 107.5
t103 90.5t134.5 37q94 0 129 -34.5t35 -93.5q0 -13 -1 -20l22.5 44l25 48.5t11.5 26.5q2 7 -2 13q0 5 10 5q26 0 102.5 2.5t111.5 2.5q24 0 24 -5q0 -3 -3 -8q-4 -5 -10 -19q-4 -11 -9 1q-2 5 -9 7q-53 9 -158 9q-39 -56 -110 -187z" />
    <glyph glyph-name="oe" unicode="&#x153;" horiz-adv-x="357" 
d="M179 55q-22 -28 -52 -45t-50 -17q-36 0 -36 43q0 34 33 88q30 43 117 93q10 -2 1 -8q-52 -26 -83 -75t-31 -96q0 -13 5 -22.5t12 -9.5q36 0 73 55t37 101q0 24 -6 36q2 6 28 14q6 2 6 -2q6 -31 -5 -65q27 38 57.5 56.5t51.5 18.5q20 0 20 -17q0 -29 -50.5 -72t-93.5 -61
q-2 -7 -2 -19q0 -17 14.5 -29.5t42.5 -12.5q40 0 86.5 25.5t89.5 77.5q4 4 5 0.5t-2 -6.5q-96 -112 -202 -112q-34 0 -51 9.5t-17 36.5q0 7 2 15zM215 78q48 24 84 63t36 58q0 10 -7.5 11.5t-21.5 -6.5q-28 -17 -54 -53t-37 -73z" />
    <glyph glyph-name="Racute" unicode="&#x154;" horiz-adv-x="512" 
d="M567 603q0 -2 -3 -5q-79 -60 -160 -115q-6 -4 -7 0q-1 1 1 2l156 126q4 2 5 2q2 0 5 -3.5t3 -6.5zM155 328q-1 -1 -3.5 0t-2.5 2q8 22 11 40q0 10 12 17q54 30 123 45q58 12 123 12q166 0 166 -80q0 -47 -57 -90.5t-144 -52.5q-9 -1 -6 -8q46 -85 128 -199
q50 -68 115 -111.5t138 -43.5q60 0 119 31q6 4 6 -2q0 -4 -4 -5q-73 -38 -142 -38q-109 0 -175.5 44.5t-139.5 156.5l-104 175q0 4 3 4q93 0 149.5 34t56.5 100q0 30 -23.5 52t-75.5 22q-24 0 -36 -13q-32 -37 -123 -195.5t-120 -222.5q-1 -2 -4 -2q-12 2 -20 2
q-16 0 -27 -2q-12 -7 -23 -19q-2 0 -4 1.5t-1 2.5q151 220 264 431q5 12 -5 12q-55 -3 -116 -36q-34 -19 -58 -64z" />
    <glyph glyph-name="racute" unicode="&#x155;" horiz-adv-x="195" 
d="M271 204q-14 -16 -21 -32q-2 -3 -4 -3q-1 0 -4 4.5t-11 9.5t-20 5q-24 0 -57 -29q-23 -20 -39.5 -42.5t-41.5 -65l-31 -52.5q-2 -3 -6 -3q-2 0 -8.5 6t-6.5 9q0 6 7 18l41.5 72l41.5 71.5t21 37.5q4 9 7 9t10.5 -5.5t7.5 -13.5q0 -4 -5.5 -14t-12.5 -21t-8 -14
q-3 -5 -1 -5t5 3q23 24 57.5 46.5t56.5 22.5q9 0 15.5 -4.5t6.5 -9.5zM352 393q0 -2 -3 -5q-79 -60 -160 -115q-6 -4 -7 0q0 1 1 2l156 126q4 2 5 2q2 0 5 -3.5t3 -6.5z" />
    <glyph glyph-name="Rcommaaccent" unicode="&#x156;" horiz-adv-x="512" 
d="M155 328q-1 -1 -3.5 0t-2.5 2q8 22 11 40q0 10 12 17q54 30 123 45q58 12 123 12q166 0 166 -80q0 -47 -57 -90.5t-144 -52.5q-9 -1 -6 -8q46 -85 128 -199q50 -68 115 -111.5t138 -43.5q60 0 119 31q6 4 6 -2q0 -4 -4 -5q-73 -38 -142 -38q-109 0 -175.5 44.5
t-139.5 156.5l-104 175q0 4 3 4q93 0 149.5 34t56.5 100q0 30 -23.5 52t-75.5 22q-24 0 -36 -13q-32 -37 -123 -195.5t-120 -222.5q-1 -2 -4 -2q-12 2 -20 2q-16 0 -27 -2q-12 -7 -23 -19q-2 0 -4 1.5t-1 2.5q151 220 264 431q5 12 -5 12q-55 -3 -116 -36q-34 -19 -58 -64z
M296 -78q0 16 -5.5 27.5t-11.5 11.5q-2 0 -16 -12q-10 -9 -10 -12q0 -2 6 -12.5t6 -23.5q0 -24 -17.5 -46.5t-42.5 -37.5q-4 -3 -2 -6t7 -1q32 19 59 50t27 62z" />
    <glyph glyph-name="rcommaaccent" unicode="&#x157;" horiz-adv-x="195" 
d="M271 204q-14 -16 -21 -32q-2 -3 -4 -3q-1 0 -4 4.5t-11 9.5t-20 5q-24 0 -57 -29q-23 -20 -39.5 -42.5t-41.5 -65l-31 -52.5q-2 -3 -6 -3q-2 0 -8.5 6t-6.5 9q0 6 7 18l41.5 72l41.5 71.5t21 37.5q4 9 7 9t10.5 -5.5t7.5 -13.5q0 -4 -5.5 -14t-12.5 -21t-8 -14
q-3 -5 -1 -5t5 3q23 24 57.5 46.5t56.5 22.5q9 0 15.5 -4.5t6.5 -9.5zM70 -78q0 16 -5.5 27.5t-11.5 11.5q-2 0 -16 -12q-10 -9 -10 -12q0 -2 6 -12.5t6 -23.5q0 -24 -17.5 -46.5t-42.5 -37.5q-4 -3 -2 -6t7 -1q32 19 59 50t27 62z" />
    <glyph glyph-name="Rcaron" unicode="&#x158;" horiz-adv-x="512" 
d="M155 328q-1 -1 -3.5 0t-2.5 2q8 22 11 40q0 10 12 17q54 30 123 45q58 12 123 12q166 0 166 -80q0 -47 -57 -90.5t-144 -52.5q-9 -1 -6 -8q46 -85 128 -199q50 -68 115 -111.5t138 -43.5q60 0 119 31q6 4 6 -2q0 -4 -4 -5q-73 -38 -142 -38q-109 0 -175.5 44.5
t-139.5 156.5l-104 175q0 4 3 4q93 0 149.5 34t56.5 100q0 30 -23.5 52t-75.5 22q-24 0 -36 -13q-32 -37 -123 -195.5t-120 -222.5q-1 -2 -4 -2q-12 2 -20 2q-16 0 -27 -2q-12 -7 -23 -19q-2 0 -4 1.5t-1 2.5q151 220 264 431q5 12 -5 12q-55 -3 -116 -36q-34 -19 -58 -64z
M563 596q0 -6 -8 -12q-31 -26 -75 -70q-29 -29 -36 -29q-5 0 -5 5q0 8 -3.5 48t-3.5 51q0 8 5 12q1 0 5 3.5t8 6t5 2.5q3 0 3 -7q0 -19 1 -53t1 -37q0 -6 4 -6q2 0 5 3q38 32 76 78q9 12 13 12q5 0 5 -7z" />
    <glyph glyph-name="rcaron" unicode="&#x159;" horiz-adv-x="195" 
d="M271 204q-14 -16 -21 -32q-2 -3 -4 -3q-1 0 -4 4.5t-11 9.5t-20 5q-24 0 -57 -29q-23 -20 -39.5 -42.5t-41.5 -65l-31 -52.5q-2 -3 -6 -3q-2 0 -8.5 6t-6.5 9q0 6 7 18l41.5 72l41.5 71.5t21 37.5q4 9 7 9t10.5 -5.5t7.5 -13.5q0 -4 -5.5 -14t-12.5 -21t-8 -14
q-3 -5 -1 -5t5 3q23 24 57.5 46.5t56.5 22.5q9 0 15.5 -4.5t6.5 -9.5zM324 386q0 -6 -8 -12q-31 -26 -75 -70q-29 -29 -36 -29q-5 0 -5 5q0 8 -3.5 48t-3.5 51q0 8 5 12q1 0 5 3.5t8 6t5 2.5q3 0 3 -7q0 -19 1 -53t1 -37q0 -6 4 -6q2 0 5 3q38 32 76 78q9 12 13 12q5 0 5 -7
z" />
    <glyph glyph-name="Sacute" unicode="&#x15a;" horiz-adv-x="416" 
d="M482 406q-29 -25 -38 -45q-4 -1 -6 3q6 12 6 20q0 28 -24.5 44t-56.5 16q-38 0 -74 -21.5t-36 -69.5q0 -11 2.5 -20.5t8 -18.5t10 -15t14.5 -14.5l14 -12t16 -12t14 -10.5q41 -31 57.5 -52t16.5 -49q0 -69 -61 -112.5t-139 -43.5q-82 0 -127 31q-11 8 -13 13q17 30 26 68
q0 2 3 2q4 0 4 -5q-4 -12 -4 -23q0 -30 34 -54t84 -24q56 0 100 30.5t44 92.5q0 46 -56 88l-24 17t-23 17t-17 15.5t-15 18t-8 19.5t-4 25q0 58 59 96t118 38q29 0 54.5 -10t36.5 -27q4 -5 4 -15zM546 603q0 -2 -3 -5q-79 -60 -160 -115q-6 -4 -7 0q0 1 1 2l156 126q4 2 5 2
q2 0 5 -3.5t3 -6.5z" />
    <glyph glyph-name="sacute" unicode="&#x15b;" horiz-adv-x="179" 
d="M193 183q-3 -5 -5 -1q-6 13 -25 13q-16 0 -29 -8.5t-13 -23.5q0 -10 19 -37q22 -32 22 -49q0 -45 -35 -65.5t-66 -20.5q-61 0 -67 41q18 12 21 16q2 0 3 -4q5 -19 19.5 -31.5t32.5 -12.5q63 0 63 51q0 20 -16 44q-18 29 -18 42q0 24 30 51.5t59 27.5q16 0 16 -10
q-8 -12 -11 -23zM337 393q0 -2 -3 -5q-79 -60 -160 -115q-6 -4 -7 0q-1 1 1 2l156 126q4 2 5 2q2 0 5 -3.5t3 -6.5z" />
    <glyph glyph-name="Scircumflex" unicode="&#x15c;" horiz-adv-x="416" 
d="M482 406q-29 -25 -38 -45q-4 -1 -6 3q6 12 6 20q0 28 -24.5 44t-56.5 16q-38 0 -74 -21.5t-36 -69.5q0 -11 2.5 -20.5t8 -18.5t10 -15t14.5 -14.5l14 -12t16 -12t14 -10.5q41 -31 57.5 -52t16.5 -49q0 -69 -61 -112.5t-139 -43.5q-82 0 -127 31q-11 8 -13 13q17 30 26 68
q0 2 3 2q4 0 4 -5q-4 -12 -4 -23q0 -30 34 -54t84 -24q56 0 100 30.5t44 92.5q0 46 -56 88l-24 17t-23 17t-17 15.5t-15 18t-8 19.5t-4 25q0 58 59 96t118 38q29 0 54.5 -10t36.5 -27q4 -5 4 -15zM467 525q0 -12 -4 -15l-16 -12q-3 0 -3 7q0 9 -3 90q0 6 -4 6q-2 0 -5 -3
q-37 -33 -77 -78q-9 -11 -13 -11t-4 5q0 6 9 13q31 27 74 70q21 21 32 28q4 2 5 2q4 0 4 -5q0 -18 2.5 -51.5t2.5 -45.5z" />
    <glyph glyph-name="scircumflex" unicode="&#x15d;" horiz-adv-x="179" 
d="M193 183q-3 -5 -5 -1q-6 13 -25 13q-16 0 -29 -8.5t-13 -23.5q0 -10 19 -37q22 -32 22 -49q0 -45 -35 -65.5t-66 -20.5q-61 0 -67 41q18 12 21 16q2 0 3 -4q5 -19 19.5 -31.5t32.5 -12.5q63 0 63 51q0 20 -16 44q-18 29 -18 42q0 24 30 51.5t59 27.5q16 0 16 -10
q-8 -12 -11 -23zM259 295q0 -12 -4 -15l-16 -12q-3 0 -3 7q0 9 -3 90q0 6 -4 6q-2 0 -5 -3q-37 -33 -77 -78q-9 -11 -13 -11t-4 5q0 6 9 13q31 27 74 70q21 21 32 28q4 2 5 2q4 0 4 -5q0 -18 2.5 -51.5t2.5 -45.5z" />
    <glyph glyph-name="Scedilla" unicode="&#x15e;" horiz-adv-x="416" 
d="M482 406q-29 -25 -38 -45q-4 -1 -6 3q6 12 6 20q0 28 -24.5 44t-56.5 16q-38 0 -74 -21.5t-36 -69.5q0 -11 2.5 -20.5t8 -18.5t10 -15t14.5 -14.5l14 -12t16 -12t14 -10.5q41 -31 57.5 -52t16.5 -49q0 -69 -61 -112.5t-139 -43.5q-82 0 -127 31q-11 8 -13 13q17 30 26 68
q0 2 3 2q4 0 4 -5q-4 -12 -4 -23q0 -30 34 -54t84 -24q56 0 100 30.5t44 92.5q0 46 -56 88l-24 17t-23 17t-17 15.5t-15 18t-8 19.5t-4 25q0 58 59 96t118 38q29 0 54.5 -10t36.5 -27q4 -5 4 -15zM246 -3q-11 -3 -24 -11.5t-13 -16.5q0 -6 16 -14t16 -19t-13 -21
q-37 -32 -74 -50q-4 -2 -7 -2q-8 0 -8 6q0 2 5 4q18 5 42.5 18.5t24.5 25.5q0 9 -16 18t-16 17q0 12 22.5 27t41.5 23q4 0 5.5 -1t-2.5 -4z" />
    <glyph glyph-name="scedilla" unicode="&#x15f;" horiz-adv-x="179" 
d="M193 183q-3 -5 -5 -1q-6 13 -25 13q-16 0 -29 -8.5t-13 -23.5q0 -10 19 -37q22 -32 22 -49q0 -45 -35 -65.5t-66 -20.5q-61 0 -67 41q18 12 21 16q2 0 3 -4q5 -19 19.5 -31.5t32.5 -12.5q63 0 63 51q0 20 -16 44q-18 29 -18 42q0 24 30 51.5t59 27.5q16 0 16 -10
q-8 -12 -11 -23zM83 -7q-11 -3 -24 -11.5t-13 -16.5q0 -6 16 -14t16 -19t-13 -21q-37 -32 -74 -50q-4 -2 -7 -2q-8 0 -8 6q0 2 5 4q18 5 42.5 18.5t24.5 25.5q0 9 -16 18t-16 17q0 12 22.5 27t41.5 23q4 0 5.5 -1t-2.5 -4z" />
    <glyph glyph-name="Scaron" unicode="&#x160;" horiz-adv-x="416" 
d="M482 406q-29 -25 -38 -45q-4 -1 -6 3q6 12 6 20q0 28 -24.5 44t-56.5 16q-38 0 -74 -21.5t-36 -69.5q0 -11 2.5 -20.5t8 -18.5t10 -15t14.5 -14.5l14 -12t16 -12t14 -10.5q41 -31 57.5 -52t16.5 -49q0 -69 -61 -112.5t-139 -43.5q-82 0 -127 31q-11 8 -13 13q17 30 26 68
q0 2 3 2q4 0 4 -5q-4 -12 -4 -23q0 -30 34 -54t84 -24q56 0 100 30.5t44 92.5q0 46 -56 88l-24 17t-23 17t-17 15.5t-15 18t-8 19.5t-4 25q0 58 59 96t118 38q29 0 54.5 -10t36.5 -27q4 -5 4 -15zM509 606q0 -6 -8 -12q-31 -26 -75 -70q-29 -29 -36 -29q-5 0 -5 5
q0 8 -3.5 48t-3.5 51q0 8 5 12q1 0 5 3.5t8 6t5 2.5q3 0 3 -7q0 -19 1 -53t1 -37q0 -6 4 -6q2 0 5 3q38 32 76 78q9 12 13 12q5 0 5 -7z" />
    <glyph glyph-name="scaron" unicode="&#x161;" horiz-adv-x="179" 
d="M193 183q-3 -5 -5 -1q-6 13 -25 13q-16 0 -29 -8.5t-13 -23.5q0 -10 19 -37q22 -32 22 -49q0 -45 -35 -65.5t-66 -20.5q-61 0 -67 41q18 12 21 16q2 0 3 -4q5 -19 19.5 -31.5t32.5 -12.5q63 0 63 51q0 20 -16 44q-18 29 -18 42q0 24 30 51.5t59 27.5q16 0 16 -10
q-8 -12 -11 -23zM300 386q0 -6 -8 -12q-31 -26 -75 -70q-29 -29 -36 -29q-5 0 -5 5q0 8 -3.5 48t-3.5 51q0 8 5 12q1 0 5 3.5t8 6t5 2.5q3 0 3 -7q0 -19 1 -53t1 -37q0 -6 4 -6q2 0 5 3q38 32 76 78q9 12 13 12q5 0 5 -7z" />
    <glyph glyph-name="Tcommaaccent" unicode="&#x162;" horiz-adv-x="398" 
d="M398 431h-33q-117 0 -173.5 -28.5t-97.5 -125.5q-3 -7 -7 1q-1 1 -2 4q45 139 125 155q22 4 118 4q20 0 58 -0.5t58 -0.5q121 0 171 27q45 25 45 58q0 7 -2 11q0 4 3 4q4 -1 14 -18.5t10 -21.5q0 -32 -43.5 -48.5t-92.5 -18.5q-11 0 -35.5 -0.5t-34.5 -1.5q-14 0 -21 -10
q-87 -131 -190 -318q-20 -36 -21 -58q0 -19 13.5 -30t53.5 -11q18 0 24 1q3 -4 -3 -8q-35 -3 -77 -3q-25 0 -38.5 1.5t-25.5 9.5t-12 24q0 14 15 39q124 201 206 354q5 9 -5 9zM255 -78q0 16 -5.5 27.5t-11.5 11.5q-2 0 -16 -12q-10 -9 -10 -12q0 -2 6 -12.5t6 -23.5
q0 -24 -17.5 -46.5t-42.5 -37.5q-4 -3 -2 -6t7 -1q32 19 59 50t27 62z" />
    <glyph glyph-name="tcommaaccent" unicode="&#x163;" horiz-adv-x="198" 
d="M282 365q-23 -7 -33 -21q-45 -63 -86 -137h124q3 -1 3 -3.5t-2 -3.5q-51 0 -133 -6q-58 -103 -58 -146q0 -36 33 -36q31 0 80 31q3 3 6 -0.5t-2 -5.5q-65 -42 -122 -42q-40 0 -40 42q0 38 71 155q-7 0 -18.5 -1t-20.5 -2t-11 -1q-5 0 -5 4q4 7 13 14l51 1l85 139
q28 13 65 26q5 0 3 -5q-1 -1 -3 -2zM118 -78q0 16 -5.5 27.5t-11.5 11.5q-2 0 -16 -12q-10 -9 -10 -12q0 -2 6 -12.5t6 -23.5q0 -24 -17.5 -46.5t-42.5 -37.5q-4 -3 -2 -6t7 -1q32 19 59 50t27 62z" />
    <glyph glyph-name="Tcaron" unicode="&#x164;" horiz-adv-x="398" 
d="M398 431h-33q-117 0 -173.5 -28.5t-97.5 -125.5q-3 -7 -7 1q-1 1 -2 4q45 139 125 155q22 4 118 4q20 0 58 -0.5t58 -0.5q121 0 171 27q45 25 45 58q0 7 -2 11q0 4 3 4q4 -1 14 -18.5t10 -21.5q0 -32 -43.5 -48.5t-92.5 -18.5q-11 0 -35.5 -0.5t-34.5 -1.5q-14 0 -21 -10
q-87 -131 -190 -318q-20 -36 -21 -58q0 -19 13.5 -30t53.5 -11q18 0 24 1q3 -4 -3 -8q-35 -3 -77 -3q-25 0 -38.5 1.5t-25.5 9.5t-12 24q0 14 15 39q124 201 206 354q5 9 -5 9zM583 596q0 -6 -8 -12q-31 -26 -75 -70q-29 -29 -36 -29q-5 0 -5 5q0 8 -3.5 48t-3.5 51
q0 8 5 12q1 0 5 3.5t8 6t5 2.5q3 0 3 -7q0 -19 1 -53t1 -37q0 -6 4 -6q2 0 5 3q38 32 76 78q9 12 13 12q5 0 5 -7z" />
    <glyph glyph-name="tcaron" unicode="&#x165;" horiz-adv-x="231" 
d="M248 338q-46 -58 -85 -131h124q3 -1 3 -3.5t-2 -3.5q-51 0 -133 -6q-58 -103 -58 -146q0 -36 33 -36q31 0 80 31q3 3 6 -0.5t-2 -5.5q-65 -42 -122 -42q-40 0 -40 42q0 38 71 155q-7 0 -18.5 -1t-20.5 -2t-11 -1q-5 0 -5 4q4 7 13 14l51 1q1 3 27.5 45.5t36.5 62.5
q5 10 -4 10q-6 0 -6 3q0 2 5 3q34 5 54 13q5 0 3 -6zM320 373q0 16 -5.5 27.5t-11.5 11.5q-2 0 -16 -12q-10 -9 -10 -12q0 -2 6 -12.5t6 -23.5q0 -24 -17.5 -46.5t-42.5 -37.5q-4 -3 -2 -6t7 -1q32 19 59 50t27 62z" />
    <glyph glyph-name="Tbar" unicode="&#x166;" horiz-adv-x="398" 
d="M398 431h-33q-117 0 -173.5 -28.5t-97.5 -125.5q-3 -7 -7 1q-1 1 -2 4q45 139 125 155q22 4 118 4q20 0 58 -0.5t58 -0.5h43q80 1 128 27q45 25 45 59q0 5 -1 7q-1 1 -1 3q0 4 3 4q1 0 3 -2q12 -13 18 -26q3 -4 3 -12q0 -6 -4 -14q-30 -51 -132 -54h-35.5t-34.5 -1
q-14 0 -21 -10q-68 -102 -128 -207h69q27 0 46 -1q5 0 2 -4.5t-12 -4.5q-20 0 -52.5 -0.5t-58.5 -0.5l-56 -100q-20 -36 -21 -58q0 -19 13.5 -30t53.5 -11q18 0 24 1q3 -4 -3 -8q-35 -3 -77 -3q-25 0 -38.5 1.5t-25.5 9.5t-12 24q0 14 15 39l81 135q-21 0 -38 -0.5t-27.5 -1
t-17 -1t-9.5 -0.5l-4 -1q-9 0 1 8q9 7 102 7q60 100 118 208q5 9 -5 9z" />
    <glyph glyph-name="tbar" unicode="&#x167;" horiz-adv-x="198" 
d="M279 356q-23 -7 -33 -21q-43 -60 -80 -127h114q3 -1 3 -3.5t-2 -3.5q-41 0 -123 -6l-26 -47h114q3 -1 3 -3.5t-2 -3.5q-39 0 -121 -6q-32 -64 -32 -96q0 -36 33 -36q31 0 80 31q3 3 6 -0.5t-2 -5.5q-65 -42 -122 -42q-40 0 -40 42q0 27 42 105q-7 0 -18.5 -1t-20 -2
t-10.5 -1q-5 0 -5 4q4 7 13 14l49 1l27 45q-6 0 -20 -1t-24 -2t-12 -1q-5 0 -5 4q4 7 13 14l57 1l79 129q28 13 65 26q5 0 3 -5q-1 -1 -3 -2z" />
    <glyph glyph-name="Utilde" unicode="&#x168;" horiz-adv-x="617" 
d="M746 438q-12 -2 -21 -12q-85 -104 -152 -239q-49 -98 -49 -141q0 -46 43 -46q12 0 27.5 4t27 9t20.5 9.5t10 4.5q5 0 6 -4.5t-4 -5.5q-72 -32 -122 -32q-66 0 -66 51q0 19 10 43t20 41t10 18q0 2 -1 2.5t-2 -1.5q-70 -79 -146.5 -114.5t-133.5 -35.5q-43 0 -75 20.5
t-32 62.5q0 30 20 67q21 38 79.5 130.5t79.5 131.5q4 8 4 12q0 9 -15 9q-55 0 -73 -1q-5 3 -5 8t7 5q4 0 32.5 -1.5t47.5 -1.5q37 0 66 4t34 4t5 -3q-1 -4 -6 -6q-24 -4 -34 -16q-67 -84 -160 -249q-25 -44 -25 -82q0 -32 20.5 -51t59.5 -19q79 0 156.5 56t129.5 135
q21 33 64 112.5t46 85.5q14 24 35 31q45 15 60 15q7 0 6 -6q-1 -4 -4 -4zM660 557q-3 -24 -20.5 -43t-39.5 -19q-20 0 -48.5 27.5t-41.5 27.5q-24 0 -58 -46q-5 -7 -8.5 -5t2.5 11q22 28 52 50q13 10 26 10q14 0 42 -28.5t47 -28.5q16 0 27 13.5t11 30.5q0 5 4.5 7t4.5 -7z
" />
    <glyph glyph-name="utilde" unicode="&#x169;" horiz-adv-x="257" 
d="M355 120q-40 -57 -93 -103.5t-95 -46.5q-36 0 -36 37q0 21 11 46q-1 -1 -5 -6.5t-5.5 -7t-6 -7t-7 -7.5t-7 -6.5t-8 -6.5l-8.5 -5t-9.5 -4.5t-10 -2.5t-10.5 -1q-25 0 -25 27q0 32 85 179q5 10 9 10q6 0 14 -8t8 -12q0 -3 -6 -12q-78 -119 -78 -156q0 -15 11 -15
q25 0 69 68q44 80 66 117q5 7 8 7q4 0 9 -9t5 -20q0 -8 -4 -15q-7 -11 -24.5 -35t-27 -38.5t-18 -38t-8.5 -46.5q0 -22 21 -22q28 0 77 41t93 104q6 2 6 -5zM325 357q-3 -24 -20.5 -43t-39.5 -19q-20 0 -48.5 27.5t-41.5 27.5q-24 0 -58 -46q-5 -7 -8.5 -5t2.5 11
q22 28 52 50q13 10 26 10q14 0 42 -28.5t47 -28.5q16 0 27 13.5t11 30.5q0 5 4.5 7t4.5 -7z" />
    <glyph glyph-name="Umacron" unicode="&#x16a;" horiz-adv-x="617" 
d="M746 438q-12 -2 -21 -12q-85 -104 -152 -239q-49 -98 -49 -141q0 -46 43 -46q12 0 27.5 4t27 9t20.5 9.5t10 4.5q5 0 6 -4.5t-4 -5.5q-72 -32 -122 -32q-66 0 -66 51q0 19 10 43t20 41t10 18q0 2 -1 2.5t-2 -1.5q-70 -79 -146.5 -114.5t-133.5 -35.5q-43 0 -75 20.5
t-32 62.5q0 30 20 67q21 38 79.5 130.5t79.5 131.5q4 8 4 12q0 9 -15 9q-55 0 -73 -1q-5 3 -5 8t7 5q4 0 32.5 -1.5t47.5 -1.5q37 0 66 4t34 4t5 -3q-1 -4 -6 -6q-24 -4 -34 -16q-67 -84 -160 -249q-25 -44 -25 -82q0 -32 20.5 -51t59.5 -19q79 0 156.5 56t129.5 135
q21 33 64 112.5t46 85.5q14 24 35 31q45 15 60 15q7 0 6 -6q-1 -4 -4 -4zM582 535l-3 -15l-88 -2l5 15z" />
    <glyph glyph-name="umacron" unicode="&#x16b;" horiz-adv-x="257" 
d="M355 120q-40 -57 -93 -103.5t-95 -46.5q-36 0 -36 37q0 21 11 46q-1 -1 -5 -6.5t-5.5 -7t-6 -7t-7 -7.5t-7 -6.5t-8 -6.5l-8.5 -5t-9.5 -4.5t-10 -2.5t-10.5 -1q-25 0 -25 27q0 32 85 179q5 10 9 10q6 0 14 -8t8 -12q0 -3 -6 -12q-78 -119 -78 -156q0 -15 11 -15
q25 0 69 68q44 80 66 117q5 7 8 7q4 0 9 -9t5 -20q0 -8 -4 -15q-7 -11 -24.5 -35t-27 -38.5t-18 -38t-8.5 -46.5q0 -22 21 -22q28 0 77 41t93 104q6 2 6 -5zM267 335l-3 -15l-88 -2l5 15z" />
    <glyph glyph-name="Ubreve" unicode="&#x16c;" horiz-adv-x="617" 
d="M746 438q-12 -2 -21 -12q-85 -104 -152 -239q-49 -98 -49 -141q0 -46 43 -46q12 0 27.5 4t27 9t20.5 9.5t10 4.5q5 0 6 -4.5t-4 -5.5q-72 -32 -122 -32q-66 0 -66 51q0 19 10 43t20 41t10 18q0 2 -1 2.5t-2 -1.5q-70 -79 -146.5 -114.5t-133.5 -35.5q-43 0 -75 20.5
t-32 62.5q0 30 20 67q21 38 79.5 130.5t79.5 131.5q4 8 4 12q0 9 -15 9q-55 0 -73 -1q-5 3 -5 8t7 5q4 0 32.5 -1.5t47.5 -1.5q37 0 66 4t34 4t5 -3q-1 -4 -6 -6q-24 -4 -34 -16q-67 -84 -160 -249q-25 -44 -25 -82q0 -32 20.5 -51t59.5 -19q79 0 156.5 56t129.5 135
q21 33 64 112.5t46 85.5q14 24 35 31q45 15 60 15q7 0 6 -6q-1 -4 -4 -4zM615 545q0 -1 -8 -13q-33 -42 -75 -42q-22 0 -35.5 13.5t-13.5 36.5q0 14 18 14q4 0 4 -6q0 -44 39 -44q34 0 55 35q8 12 11 12q5 0 5 -6z" />
    <glyph glyph-name="ubreve" unicode="&#x16d;" horiz-adv-x="257" 
d="M355 120q-40 -57 -93 -103.5t-95 -46.5q-36 0 -36 37q0 21 11 46q-1 -1 -5 -6.5t-5.5 -7t-6 -7t-7 -7.5t-7 -6.5t-8 -6.5l-8.5 -5t-9.5 -4.5t-10 -2.5t-10.5 -1q-25 0 -25 27q0 32 85 179q5 10 9 10q6 0 14 -8t8 -12q0 -3 -6 -12q-78 -119 -78 -156q0 -15 11 -15
q25 0 69 68q44 80 66 117q5 7 8 7q4 0 9 -9t5 -20q0 -8 -4 -15q-7 -11 -24.5 -35t-27 -38.5t-18 -38t-8.5 -46.5q0 -22 21 -22q28 0 77 41t93 104q6 2 6 -5zM310 345q0 -1 -8 -13q-33 -42 -75 -42q-22 0 -35.5 13.5t-13.5 36.5q0 14 18 14q4 0 4 -6q0 -44 39 -44q34 0 55 35
q8 12 11 12q5 0 5 -6z" />
    <glyph glyph-name="Uring" unicode="&#x16e;" horiz-adv-x="617" 
d="M746 438q-12 -2 -21 -12q-85 -104 -152 -239q-49 -98 -49 -141q0 -46 43 -46q12 0 27.5 4t27 9t20.5 9.5t10 4.5q5 0 6 -4.5t-4 -5.5q-72 -32 -122 -32q-66 0 -66 51q0 19 10 43t20 41t10 18q0 2 -1 2.5t-2 -1.5q-70 -79 -146.5 -114.5t-133.5 -35.5q-43 0 -75 20.5
t-32 62.5q0 30 20 67q21 38 79.5 130.5t79.5 131.5q4 8 4 12q0 9 -15 9q-55 0 -73 -1q-5 3 -5 8t7 5q4 0 32.5 -1.5t47.5 -1.5q37 0 66 4t34 4t5 -3q-1 -4 -6 -6q-24 -4 -34 -16q-67 -84 -160 -249q-25 -44 -25 -82q0 -32 20.5 -51t59.5 -19q79 0 156.5 56t129.5 135
q21 33 64 112.5t46 85.5q14 24 35 31q45 15 60 15q7 0 6 -6q-1 -4 -4 -4zM607 562q0 -27 -19.5 -47.5t-52.5 -20.5q-22 0 -35 11.5t-13 31.5q0 24 18.5 46t52.5 22q49 0 49 -43zM593 560q0 39 -36 39q-27 0 -41.5 -17.5t-14.5 -42.5q0 -18 11 -28.5t27 -10.5q25 0 39.5 19
t14.5 41z" />
    <glyph glyph-name="uring" unicode="&#x16f;" horiz-adv-x="257" 
d="M355 120q-40 -57 -93 -103.5t-95 -46.5q-36 0 -36 37q0 21 11 46q-1 -1 -5 -6.5t-5.5 -7t-6 -7t-7 -7.5t-7 -6.5t-8 -6.5l-8.5 -5t-9.5 -4.5t-10 -2.5t-10.5 -1q-25 0 -25 27q0 32 85 179q5 10 9 10q6 0 14 -8t8 -12q0 -3 -6 -12q-78 -119 -78 -156q0 -15 11 -15
q25 0 69 68q44 80 66 117q5 7 8 7q4 0 9 -9t5 -20q0 -8 -4 -15q-7 -11 -24.5 -35t-27 -38.5t-18 -38t-8.5 -46.5q0 -22 21 -22q28 0 77 41t93 104q6 2 6 -5zM305 362q0 -27 -19.5 -47.5t-52.5 -20.5q-22 0 -35 11.5t-13 31.5q0 24 18.5 46t52.5 22q49 0 49 -43zM291 360
q0 39 -36 39q-27 0 -41.5 -17.5t-14.5 -42.5q0 -18 11 -28.5t27 -10.5q25 0 39.5 19t14.5 41z" />
    <glyph glyph-name="Uhungarumlaut" unicode="&#x170;" horiz-adv-x="617" 
d="M746 438q-12 -2 -21 -12q-85 -104 -152 -239q-49 -98 -49 -141q0 -46 43 -46q12 0 27.5 4t27 9t20.5 9.5t10 4.5q5 0 6 -4.5t-4 -5.5q-72 -32 -122 -32q-66 0 -66 51q0 19 10 43t20 41t10 18q0 2 -1 2.5t-2 -1.5q-70 -79 -146.5 -114.5t-133.5 -35.5q-43 0 -75 20.5
t-32 62.5q0 30 20 67q21 38 79.5 130.5t79.5 131.5q4 8 4 12q0 9 -15 9q-55 0 -73 -1q-5 3 -5 8t7 5q4 0 32.5 -1.5t47.5 -1.5q37 0 66 4t34 4t5 -3q-1 -4 -6 -6q-24 -4 -34 -16q-67 -84 -160 -249q-25 -44 -25 -82q0 -32 20.5 -51t59.5 -19q79 0 156.5 56t129.5 135
q21 33 64 112.5t46 85.5q14 24 35 31q45 15 60 15q7 0 6 -6q-1 -4 -4 -4zM636 566q0 -4 -6 -11q-46 -48 -74 -73q-3 -2 -4 -2q-2 2 1 5q4 7 68 92q3 3 6 3q9 0 9 -14zM575 568q0 -6 -7 -13l-74 -75q-2 -2 -3.5 -0.5t0.5 3.5q9 15 21 31l27.5 35t23.5 30q1 3 5 3q7 0 7 -14z
" />
    <glyph glyph-name="uhungarumlaut" unicode="&#x171;" horiz-adv-x="257" 
d="M355 120q-40 -57 -93 -103.5t-95 -46.5q-36 0 -36 37q0 21 11 46q-1 -1 -5 -6.5t-5.5 -7t-6 -7t-7 -7.5t-7 -6.5t-8 -6.5l-8.5 -5t-9.5 -4.5t-10 -2.5t-10.5 -1q-25 0 -25 27q0 32 85 179q5 10 9 10q6 0 14 -8t8 -12q0 -3 -6 -12q-78 -119 -78 -156q0 -15 11 -15
q25 0 69 68q44 80 66 117q5 7 8 7q4 0 9 -9t5 -20q0 -8 -4 -15q-7 -11 -24.5 -35t-27 -38.5t-18 -38t-8.5 -46.5q0 -22 21 -22q28 0 77 41t93 104q6 2 6 -5zM321 366q0 -4 -6 -11q-46 -48 -74 -73q-3 -2 -4 -2q-2 2 1 5q4 7 68 92q3 3 6 3q9 0 9 -14zM260 368q0 -6 -7 -13
l-74 -75q-2 -2 -3.5 -0.5t0.5 3.5q9 15 21 31l27.5 35t23.5 30q2 3 5 3q7 0 7 -14z" />
    <glyph glyph-name="Uogonek" unicode="&#x172;" horiz-adv-x="617" 
d="M746 438q-12 -2 -21 -12q-85 -104 -152 -239q-49 -98 -49 -141q0 -46 43 -46q12 0 27.5 4t27 9t20.5 9.5t10 4.5q5 0 6 -4.5t-4 -5.5q-72 -32 -122 -32q-66 0 -66 51q0 19 10 43t20 41t10 18q0 2 -1 2.5t-2 -1.5q-70 -79 -146.5 -114.5t-133.5 -35.5q-43 0 -75 20.5
t-32 62.5q0 30 20 67q21 38 79.5 130.5t79.5 131.5q4 8 4 12q0 9 -15 9q-55 0 -73 -1q-5 3 -5 8t7 5q4 0 32.5 -1.5t47.5 -1.5q37 0 66 4t34 4t5 -3q-1 -4 -6 -6q-24 -4 -34 -16q-67 -84 -160 -249q-25 -44 -25 -82q0 -32 20.5 -51t59.5 -19q79 0 156.5 56t129.5 135
q21 33 64 112.5t46 85.5q14 24 35 31q45 15 60 15q7 0 6 -6q-1 -4 -4 -4zM562 -10q0 -2 -4 -3q-31 -11 -50.5 -30.5t-19.5 -37.5q0 -13 10 -21.5t24 -8.5q2 0 6 1t6 1q5 0 1 -4q-1 -2 -3 -2q-17 -5 -33 -5q-19 0 -31 8t-12 21q0 16 20 35q15 14 45 31t38 17q3 0 3 -2z" />
    <glyph glyph-name="uogonek" unicode="&#x173;" horiz-adv-x="257" 
d="M355 120q-40 -57 -93 -103.5t-95 -46.5q-36 0 -36 37q0 21 11 46q-1 -1 -5 -6.5t-5.5 -7t-6 -7t-7 -7.5t-7 -6.5t-8 -6.5l-8.5 -5t-9.5 -4.5t-10 -2.5t-10.5 -1q-25 0 -25 27q0 32 85 179q5 10 9 10q6 0 14 -8t8 -12q0 -3 -6 -12q-78 -119 -78 -156q0 -15 11 -15
q25 0 69 68q44 80 66 117q5 7 8 7q4 0 9 -9t5 -20q0 -8 -4 -15q-7 -11 -24.5 -35t-27 -38.5t-18 -38t-8.5 -46.5q0 -22 21 -22q28 0 77 41t93 104q6 2 6 -5zM176 -26q0 -2 -4 -3q-31 -11 -50.5 -30.5t-19.5 -37.5q0 -13 10 -21.5t24 -8.5q2 0 6 1t6 1q5 0 1 -4q-1 -2 -3 -2
q-17 -5 -33 -5q-19 0 -31 8t-12 21q0 16 20 35q15 14 45 31t38 17q3 0 3 -2z" />
    <glyph glyph-name="Wcircumflex" unicode="&#x174;" horiz-adv-x="754" 
d="M1067 490q2 -4 -2 -7q-4 1 -13 1q-82 0 -304 -246q-45 -50 -102.5 -122t-78.5 -107q-6 -11 -15 -12q-31 -4 -46 -19q-9 0 -2 10q17 18 17 342q0 14 -7 14q-3 0 -10 -5q-1 -1 -27.5 -25.5l-50.5 -47l-62.5 -59l-71 -68.5l-68.5 -69t-62 -67q-9 -9 -12 -9q-26 0 -48 -12
q-7 0 -3 9q11 16 36 77q20 50 64.5 181.5t44.5 149.5q0 14 -15 14q-10 0 -28.5 -4t-23.5 -4q-3 0 -4.5 2t-0.5 4.5t5 2.5l47 9t34 7t23 5t15 3.5t8 2.5l4.5 1.5t2.5 0.5q3 0 4.5 -2t0.5 -4t-3 -4q-10 -9 -34 -74q-45 -120 -96 -299q-3 -13 1 -12q2 1 4 3l391 372q3 1 5.5 -2
t0.5 -5q-12 -6 -14 -21q-10 -77 -10 -222q0 -35 1 -77t1 -50q0 -13 8 -3l170 201q103 116 205 211q51 47 86 47q4 0 18 -5t17 -7zM646 495q0 -12 -4 -15l-16 -12q-3 0 -3 7q0 9 -3 90q0 6 -4 6q-2 0 -5 -3q-37 -33 -77 -78q-9 -11 -13 -11t-4 5q0 6 9 13q31 27 74 70
q21 21 32 28q4 2 5 2q4 0 4 -5q0 -18 2.5 -51.5t2.5 -45.5z" />
    <glyph glyph-name="wcircumflex" unicode="&#x175;" horiz-adv-x="377" 
d="M511 209q-60 -17 -141 -22q-8 -1 -8 -14q0 -51 -25 -106.5t-55 -81.5q-34 -31 -73 -31q-25 0 -40.5 16t-15.5 42q0 11 2 21q-55 -33 -87 -33q-27 0 -27 30q0 48 85 160q10 13 18 15q4 1 17 4t17 4q4 0 4 -3q0 -1 -2.5 -2t-7.5 -4.5t-10 -8.5q-29 -32 -55.5 -85.5
t-26.5 -78.5q0 -16 15 -16q20 0 62 27q18 79 72 144q25 28 45 28q11 0 11 -14q0 -10 -6.5 -28.5t-30.5 -52t-62 -64.5q0 -78 52 -78q44 0 69.5 53.5t25.5 116.5q0 20 -0.5 29t-5.5 17.5t-15 9.5q-4 4 1 6q4 0 15 4.5t13 4.5q1 0 5.5 -4t20 -7.5t43.5 -3.5q59 0 101 13
q5 1 5 -3q0 -3 -5 -4zM260 180q0 14 -9 14q-8 0 -20 -13.5t-25.5 -45t-19.5 -71.5q74 60 74 116zM347 295q0 -12 -4 -15l-16 -12q-3 0 -3 7q0 9 -3 90q0 6 -4 6q-2 0 -5 -3q-37 -33 -77 -78q-9 -11 -13 -11t-4 5q0 6 9 13q31 27 74 70q21 21 32 28q4 2 5 2q4 0 4 -5
q0 -18 2.5 -51.5t2.5 -45.5z" />
    <glyph glyph-name="Ycircumflex" unicode="&#x176;" horiz-adv-x="401" 
d="M744 445l-3 -3q-6 2 -22 2q-55 0 -174 -79t-210 -167q-30 -30 -40 -47q-63 -110 -72 -143q-2 -9 -13 -8q-31 2 -36 0.5t-25 -14.5q-3 -1 -3.5 3t2.5 7q20 15 52.5 64.5t52.5 93.5q29 62 29 122q0 59 -26.5 97t-84.5 38q-67 0 -101 -47q-4 -4 -8.5 -3.5t0.5 8.5
q58 72 152 72q55 0 82 -39.5t27 -99.5q0 -14 -2.5 -34.5t-5 -36t-2.5 -16.5q-1 -5 1.5 -7.5t6.5 1.5l90.5 70.5l106 83l88.5 65.5q60 43 101 43q11 0 21.5 -8.5t15.5 -17.5zM511 495q0 -12 -4 -15l-16 -12q-3 0 -3 7q0 9 -3 90q0 6 -4 6q-2 0 -5 -3q-37 -33 -77 -78
q-9 -11 -13 -11t-4 5q0 6 9 13q31 27 74 70q21 21 32 28q4 2 5 2q4 0 4 -5q0 -18 2.5 -51.5t2.5 -45.5z" />
    <glyph glyph-name="ycircumflex" unicode="&#x177;" horiz-adv-x="227" 
d="M64 11q-30 0 -30 24q0 4 1 9.5t4.5 12.5t6 13.5t8.5 16.5l10 16.5l12 19.5l12.5 20l14.5 22l15 23q9 10 12 12q3 0 8.5 1t10 2t5.5 1q4 0 4 -3l-27 -46l-24 -40.5t-17.5 -30.5t-12.5 -27.5t-4 -19.5q0 -12 11 -12q10 0 30 11t29 21q5 5 14 20.5l26.5 48l28.5 52.5
q29 52 40 52q11 -7 11 -26q0 -14 -94 -135l-54 -84l-55.5 -87.5t-54.5 -81t-58.5 -78t-58.5 -63.5t-64 -53t-65.5 -32t-71.5 -13q-75 0 -75 63q0 15 5 30q1 4 4 4q1 0 1 -3q0 -30 22 -50.5t69 -20.5q34 0 70.5 16t67 39.5t66.5 63.5t61 73t58.5 85l52 82.5l47.5 80.5
q1 2 1 3q-1 1 -4 -2q-37 -30 -69 -30zM290 295q0 -12 -4 -15l-16 -12q-3 0 -3 7q0 9 -3 90q0 6 -4 6q-2 0 -5 -3q-37 -33 -77 -78q-9 -11 -13 -11t-4 5q0 6 9 13q31 27 74 70q21 21 32 28q4 2 5 2q4 0 4 -5q0 -18 2.5 -51.5t2.5 -45.5z" />
    <glyph glyph-name="Ydieresis" unicode="&#x178;" horiz-adv-x="401" 
d="M744 445l-3 -3q-6 2 -22 2q-55 0 -174 -79t-210 -167q-30 -30 -40 -47q-63 -110 -72 -143q-2 -9 -13 -8q-31 2 -36 0.5t-25 -14.5q-3 -1 -3.5 3t2.5 7q20 15 52.5 64.5t52.5 93.5q29 62 29 122q0 59 -26.5 97t-84.5 38q-67 0 -101 -47q-4 -4 -8.5 -3.5t0.5 8.5
q58 72 152 72q55 0 82 -39.5t27 -99.5q0 -14 -2.5 -34.5t-5 -36t-2.5 -16.5q-1 -5 1.5 -7.5t6.5 1.5l90.5 70.5l106 83l88.5 65.5q60 43 101 43q11 0 21.5 -8.5t15.5 -17.5zM521 538q0 -12 -11 -24t-23 -12t-12 12q0 13 10 25t23 12t13 -13zM449 544q0 -12 -11 -24t-23 -12
t-12 12q0 13 10 25t23 12t13 -13z" />
    <glyph glyph-name="Zacute" unicode="&#x179;" horiz-adv-x="437" 
d="M687 70q-13 -64 -53 -110q-36 -43 -100 -43q-63 0 -236.5 40.5t-269.5 43.5q-3 0 -5.5 2.5t-1 5t6.5 2.5q26 0 46 17q333 280 414 378q8 10 8 14q0 8 -20 8q-113 0 -203 -10q-61 -7 -84 -28q-9 -9 -9 2q9 20 15 28t18 9q58 5 171 7q31 0 79.5 1t84.5 2t42 1t8 -2.5
t0 -5.5t-6 -3q-5 -1 -22 -15l-210.5 -189t-211.5 -203q-5 -7 -5 -10q0 -6 9 -9q60 -18 166 -36.5t189 -18.5q145 0 172 124q1 4 3 5.5t3.5 -0.5t1.5 -7zM572 593q0 -2 -3 -5q-79 -60 -160 -115q-6 -4 -7 0q0 1 1 2l156 126q4 2 5 2q2 0 5 -3.5t3 -6.5z" />
    <glyph glyph-name="zacute" unicode="&#x17a;" horiz-adv-x="223" 
d="M563 -42q-9 -41 -56.5 -72.5t-111.5 -31.5q-79 0 -159 39.5t-196 120.5q-6 4 -13 0q-15 -9 -30 -19q-8 -6 -11 2q-2 6 5 9q55 27 110.5 63.5t85 60.5t29.5 27q0 4 -4 4q-39 -13 -59 -13q-16 0 -29 10.5t-13 32.5q5 18 40 40q4 0 4 -4q-9 -9 -9 -28q0 -16 11.5 -26
t29.5 -10q40 0 94 52q6 6 11 -1q2 -4 -1 -9q-30 -21 -66 -52q-53 -46 -150 -111q-9 -5 0 -11q249 -166 340 -166t142 95q4 3 6 -2zM385 393q0 -2 -3 -5q-79 -60 -160 -115q-6 -4 -7 0q-1 1 1 2l156 126q4 2 5 2q2 0 5 -3.5t3 -6.5z" />
    <glyph glyph-name="Zdotaccent" unicode="&#x17b;" horiz-adv-x="437" 
d="M687 70q-13 -64 -53 -110q-36 -43 -100 -43q-63 0 -236.5 40.5t-269.5 43.5q-3 0 -5.5 2.5t-1 5t6.5 2.5q26 0 46 17q333 280 414 378q8 10 8 14q0 8 -20 8q-113 0 -203 -10q-61 -7 -84 -28q-9 -9 -9 2q9 20 15 28t18 9q58 5 171 7q31 0 79.5 1t84.5 2t42 1t8 -2.5
t0 -5.5t-6 -3q-5 -1 -22 -15l-210.5 -189t-211.5 -203q-5 -7 -5 -10q0 -6 9 -9q60 -18 166 -36.5t189 -18.5q145 0 172 124q1 4 3 5.5t3.5 -0.5t1.5 -7zM476 534q0 -11 -10 -20.5t-21 -9.5q-16 0 -16 18q0 12 8 20t20 8q19 0 19 -16z" />
    <glyph glyph-name="zdotaccent" unicode="&#x17c;" horiz-adv-x="223" 
d="M563 -42q-9 -41 -56.5 -72.5t-111.5 -31.5q-79 0 -159 39.5t-196 120.5q-6 4 -13 0q-15 -9 -30 -19q-8 -6 -11 2q-2 6 5 9q55 27 110.5 63.5t85 60.5t29.5 27q0 4 -4 4q-39 -13 -59 -13q-16 0 -29 10.5t-13 32.5q5 18 40 40q4 0 4 -4q-9 -9 -9 -28q0 -16 11.5 -26
t29.5 -10q40 0 94 52q6 6 11 -1q2 -4 -1 -9q-30 -21 -66 -52q-53 -46 -150 -111q-9 -5 0 -11q249 -166 340 -166t142 95q4 3 6 -2zM275 334q0 -11 -10 -20.5t-21 -9.5q-16 0 -16 18q0 12 8 20t20 8q19 0 19 -16z" />
    <glyph glyph-name="Zcaron" unicode="&#x17d;" horiz-adv-x="437" 
d="M687 70q-13 -64 -53 -110q-36 -43 -100 -43q-63 0 -236.5 40.5t-269.5 43.5q-3 0 -5.5 2.5t-1 5t6.5 2.5q26 0 46 17q333 280 414 378q8 10 8 14q0 8 -20 8q-113 0 -203 -10q-61 -7 -84 -28q-9 -9 -9 2q9 20 15 28t18 9q58 5 171 7q31 0 79.5 1t84.5 2t42 1t8 -2.5
t0 -5.5t-6 -3q-5 -1 -22 -15l-210.5 -189t-211.5 -203q-5 -7 -5 -10q0 -6 9 -9q60 -18 166 -36.5t189 -18.5q145 0 172 124q1 4 3 5.5t3.5 -0.5t1.5 -7zM538 586q0 -6 -8 -12q-31 -26 -75 -70q-29 -29 -36 -29q-5 0 -5 5q0 8 -3.5 48t-3.5 51q0 8 5 12q1 0 5 3.5t8 6t5 2.5
q3 0 3 -7q0 -19 1 -53t1 -37q0 -6 4 -6q2 0 5 3q38 32 76 78q9 12 13 12q5 0 5 -7z" />
    <glyph glyph-name="zcaron" unicode="&#x17e;" horiz-adv-x="223" 
d="M563 -42q-9 -41 -56.5 -72.5t-111.5 -31.5q-79 0 -159 39.5t-196 120.5q-6 4 -13 0q-15 -9 -30 -19q-8 -6 -11 2q-2 6 5 9q55 27 110.5 63.5t85 60.5t29.5 27q0 4 -4 4q-39 -13 -59 -13q-16 0 -29 10.5t-13 32.5q5 18 40 40q4 0 4 -4q-9 -9 -9 -28q0 -16 11.5 -26
t29.5 -10q40 0 94 52q6 6 11 -1q2 -4 -1 -9q-30 -21 -66 -52q-53 -46 -150 -111q-9 -5 0 -11q249 -166 340 -166t142 95q4 3 6 -2zM348 386q0 -6 -8 -12q-31 -26 -75 -70q-29 -29 -36 -29q-5 0 -5 5q0 8 -3.5 48t-3.5 51q0 8 5 12q1 0 5 3.5t8 6t5 2.5q3 0 3 -7q0 -19 1 -53
t1 -37q0 -6 4 -6q2 0 5 3q38 32 76 78q9 12 13 12q5 0 5 -7z" />
    <glyph glyph-name="florin" unicode="&#x192;" horiz-adv-x="362" 
d="M497 429q0 -1 -2 -4.5t-5 -7.5t-4 -6q-3 -3 -6 -3q-16 12 -42 12q-33 0 -54.5 -21t-60.5 -93q-36 -66 -55 -98l106 3q6 0 2 -4q-1 0 -2 -1l-112 -10q-32 -56 -46 -77q-42 -68 -93 -135q-43 -56 -81 -79t-84 -23q-20 0 -39.5 7t-19.5 22q0 9 13 20.5t17 11.5q2 0 2 -7
q0 -16 12.5 -28.5t39.5 -12.5q24 0 47 13q30 16 64 68l87 145l41 74q-42 -4 -61 -4q-8 0 -8 5q0 1 3 3q8 8 10 11q1 4 8 4q12 -6 57 -6q38 67 80 120.5t69 77.5q45 40 92 40q25 0 25 -17z" />
    <glyph glyph-name="Scommaaccent" unicode="&#x218;" horiz-adv-x="416" 
d="M228 -78q0 16 -5.5 27.5t-11.5 11.5q-2 0 -16 -12q-10 -9 -10 -12q0 -2 6 -12.5t6 -23.5q0 -24 -17.5 -46.5t-42.5 -37.5q-4 -3 -2 -6t7 -1q32 19 59 50t27 62zM482 406q-29 -25 -38 -45q-4 -1 -6 3q6 12 6 20q0 28 -24.5 44t-56.5 16q-38 0 -74 -21.5t-36 -69.5
q0 -11 2.5 -20.5t8 -18.5t10 -15t14.5 -14.5l14 -12t16 -12t14 -10.5q41 -31 57.5 -52t16.5 -49q0 -69 -61 -112.5t-139 -43.5q-82 0 -127 31q-11 8 -13 13q17 30 26 68q0 2 3 2q4 0 4 -5q-4 -12 -4 -23q0 -30 34 -54t84 -24q56 0 100 30.5t44 92.5q0 46 -56 88l-24 17
t-23 17t-17 15.5t-15 18t-8 19.5t-4 25q0 58 59 96t118 38q29 0 54.5 -10t36.5 -27q4 -5 4 -15z" />
    <glyph glyph-name="scommaaccent" unicode="&#x219;" horiz-adv-x="179" 
d="M193 183q-3 -5 -5 -1q-6 13 -25 13q-16 0 -29 -8.5t-13 -23.5q0 -10 19 -37q22 -32 22 -49q0 -45 -35 -65.5t-66 -20.5q-61 0 -67 41q18 12 21 16q2 0 3 -4q5 -19 19.5 -31.5t32.5 -12.5q63 0 63 51q0 20 -16 44q-18 29 -18 42q0 24 30 51.5t59 27.5q16 0 16 -10
q-8 -12 -11 -23zM102 -78q0 16 -5.5 27.5t-11.5 11.5q-2 0 -16 -12q-10 -9 -10 -12q0 -2 6 -12.5t6 -23.5q0 -24 -17.5 -46.5t-42.5 -37.5q-4 -3 -2 -6t7 -1q32 19 59 50t27 62z" />
    <glyph glyph-name="uni021A" unicode="&#x21a;" horiz-adv-x="398" 
d="M398 431h-33q-117 0 -173.5 -28.5t-97.5 -125.5q-3 -7 -7 1q-1 1 -2 4q45 139 125 155q22 4 118 4q20 0 58 -0.5t58 -0.5q121 0 171 27q45 25 45 58q0 7 -2 11q0 4 3 4q4 -1 14 -18.5t10 -21.5q0 -32 -43.5 -48.5t-92.5 -18.5q-11 0 -35.5 -0.5t-34.5 -1.5q-14 0 -21 -10
q-87 -131 -190 -318q-20 -36 -21 -58q0 -19 13.5 -30t53.5 -11q18 0 24 1q3 -4 -3 -8q-35 -3 -77 -3q-25 0 -38.5 1.5t-25.5 9.5t-12 24q0 14 15 39q124 201 206 354q5 9 -5 9zM255 -78q0 16 -5.5 27.5t-11.5 11.5q-2 0 -16 -12q-10 -9 -10 -12q0 -2 6 -12.5t6 -23.5
q0 -24 -17.5 -46.5t-42.5 -37.5q-4 -3 -2 -6t7 -1q32 19 59 50t27 62z" />
    <glyph glyph-name="uni021B" unicode="&#x21b;" horiz-adv-x="198" 
d="M282 365q-23 -7 -33 -21q-45 -63 -86 -137h124q3 -1 3 -3.5t-2 -3.5q-51 0 -133 -6q-58 -103 -58 -146q0 -36 33 -36q31 0 80 31q3 3 6 -0.5t-2 -5.5q-65 -42 -122 -42q-40 0 -40 42q0 38 71 155q-7 0 -18.5 -1t-20.5 -2t-11 -1q-5 0 -5 4q4 7 13 14l51 1l85 139
q28 13 65 26q5 0 3 -5q-1 -1 -3 -2zM118 -78q0 16 -5.5 27.5t-11.5 11.5q-2 0 -16 -12q-10 -9 -10 -12q0 -2 6 -12.5t6 -23.5q0 -24 -17.5 -46.5t-42.5 -37.5q-4 -3 -2 -6t7 -1q32 19 59 50t27 62z" />
    <glyph glyph-name="circumflex" unicode="&#x2c6;" 
d="M180 295q0 -12 -4 -15l-16 -12q-3 0 -3 7q0 9 -3 90q0 6 -4 6q-2 0 -5 -3q-37 -33 -77 -78q-9 -11 -13 -11t-4 5q0 6 9 13q31 27 74 70q21 21 32 28q4 2 5 2q4 0 4 -5q0 -18 2.5 -51.5t2.5 -45.5z" />
    <glyph glyph-name="caron" unicode="&#x2c7;" 
d="M193 386q0 -6 -8 -12q-31 -26 -75 -70q-29 -29 -36 -29q-5 0 -5 5q0 8 -3.5 48t-3.5 51q0 8 5 12q1 0 5 3.5t8 6t5 2.5q3 0 3 -7q0 -19 1 -53t1 -37q0 -6 4 -6q2 0 5 3q38 32 76 78q9 12 13 12q5 0 5 -7z" />
    <glyph glyph-name="uni02C9" unicode="&#x2c9;" 
d="M169 335l-3 -15l-88 -2l5 15z" />
    <glyph glyph-name="breve" unicode="&#x2d8;" 
d="M185 345q0 -1 -8 -13q-33 -42 -75 -42q-22 0 -35.5 13.5t-13.5 36.5q0 14 18 14q4 0 4 -6q0 -44 39 -44q34 0 55 35q8 12 11 12q5 0 5 -6z" />
    <glyph glyph-name="dotaccent" unicode="&#x2d9;" 
d="M136 334q0 -11 -10 -20.5t-21 -9.5q-16 0 -16 18q0 12 8 20t20 8q19 0 19 -16z" />
    <glyph glyph-name="ring" unicode="&#x2da;" horiz-adv-x="276" 
d="M180 362q0 -27 -19.5 -47.5t-52.5 -20.5q-22 0 -35 11.5t-13 31.5q0 24 18.5 46t52.5 22q49 0 49 -43zM166 360q0 39 -36 39q-27 0 -41.5 -17.5t-14.5 -42.5q0 -18 11 -28.5t27 -10.5q25 0 39.5 19t14.5 41z" />
    <glyph glyph-name="ogonek" unicode="&#x2db;" 
d="M172 10q0 -2 -4 -3q-31 -11 -50.5 -30.5t-19.5 -37.5q0 -13 10 -21.5t24 -8.5q2 0 6 1t6 1q5 0 1 -4q-1 -2 -3 -2q-17 -5 -33 -5q-19 0 -31 8t-12 21q0 16 20 35q15 14 45 31t38 17q3 0 3 -2z" />
    <glyph glyph-name="tilde" unicode="&#x2dc;" 
d="M225 357q-3 -24 -20.5 -43t-39.5 -19q-20 0 -48.5 27.5t-41.5 27.5q-24 0 -58 -46q-5 -7 -8.5 -5t2.5 11q22 28 52 50q13 10 26 10q14 0 42 -28.5t47 -28.5q16 0 27 13.5t11 30.5q0 5 4.5 7t4.5 -7z" />
    <glyph glyph-name="hungarumlaut" unicode="&#x2dd;" 
d="M191 366q0 -4 -6 -11q-46 -48 -74 -73q-3 -2 -4 -2q-2 2 1 5q4 7 68 92q3 3 6 3q9 0 9 -14zM130 368q0 -6 -7 -13l-74 -75q-2 -2 -3.5 -0.5t0.5 3.5q9 15 21 31l27.5 35t23.5 30q2 3 5 3q7 0 7 -14z" />
    <glyph glyph-name="uni0394" unicode="&#x394;" horiz-adv-x="600" 
d="M458 28q11 141 46 351q1 7 -1.5 8.5t-6.5 -3.5q-235 -224 -346 -345q-5 -7 6 -7q204 -4 302 -4zM96 -1l3 11l213.5 211l158.5 154q17 17 32 37l39 30q4 2 5.5 0.5t1.5 -8.5q-16 -81 -35.5 -240.5t-19.5 -193.5q0 -4 -4 -4q-20 1 -82 3q-31 1 -86 1q-174 0 -223 -4
q-3 0 -3 3z" />
    <glyph glyph-name="uni03A9" unicode="&#x3a9;" horiz-adv-x="600" 
d="M337 3l10 21q1 3 10 3q85 9 147.5 90.5t62.5 179.5q0 58 -32.5 98.5t-112.5 40.5q-122 0 -188 -83.5t-66 -197.5q0 -107 78 -132q-2 -5 -13 -21q-2 -3 -10 -3q-4 0 -50 1t-57 1q-30 0 -43 -38q-4 0 -4 5q19 55 46 65q7 0 42.5 -2t46.5 -2q14 0 3 7q-74 59 -74 146
q0 45 17 89.5t50.5 83.5t91 63.5t130.5 24.5q188 0 188 -147q0 -81 -56.5 -154.5t-151.5 -111.5q-7 -4 0 -6q66 0 92 1q35 1 54 45q2 5 4.5 4.5t3.5 -4.5q-17 -40 -42 -67q-9 -10 -36 -10q-14 0 -70 3.5t-68 3.5q-3 0 -3 3z" />
    <glyph glyph-name="uni03BC" unicode="&#x3bc;" horiz-adv-x="400" 
d="M136 73q-113 -192 -113 -275q0 -31 7 -44q2 -3 0.5 -4.5t-4.5 0.5q-9 14 -25 21q-1 4 -1 25q0 60 128 275l79 135q2 5 6 5q14 0 29 10q6 0 0 -9q-56 -75 -80 -137q-9 -22 -9 -40q0 -21 19 -21q29 0 74 55t87 138q1 5 8 5q9 0 27 9q5 0 3 -6q-26 -31 -60 -95t-34 -95
q0 -14 14 -14q13 0 36 20t42 47q5 7 5 -4q-57 -78 -104 -78q-23 0 -23 25q0 18 14 48q2 5 -1 5q-2 -1 -6 -5q-62 -72 -102 -72q-28 0 -28 32q0 16 12 44z" />
    <glyph glyph-name="pi" unicode="&#x3c0;" horiz-adv-x="400" 
d="M150 146q-2 -3 -4 -2.5t-2 3.5q10 26 25 49t28 23q32 0 89 -3.5t81 -3.5q23 0 34 20q2 4 4 3.5t0 -4.5q-1 -2 -4.5 -7.5t-4 -7t-3.5 -6t-4.5 -6l-4.5 -4.5t-5.5 -4.5t-5.5 -2.5t-7 -2q-12 -2 -17 -5q-20 -19 -43.5 -74t-23.5 -87q0 -17 15 -17q25 0 81 56q3 3 4.5 1.5
t0.5 -5.5q-37 -35 -61 -50.5t-49 -15.5q-22 0 -22 27q0 22 21.5 66.5t47.5 78.5q7 10 25 23q-7 0 -23.5 0.5t-40 1.5t-34.5 1q-32 -72 -72 -133.5t-62 -61.5q-15 8 -30 28q-2 5 2 5q41 -7 77.5 31.5t76.5 130.5q-50 0 -65 -9q-13 -9 -24 -37z" />
    <glyph glyph-name="endash" unicode="&#x2013;" horiz-adv-x="500" 
d="M471 143q6 1 6 -6q-1 -8 -6 -9q-5 0 -17 0.5t-19 0.5q-27 0 -150 -1t-148 -1q-3 0 -4 4t0.5 7.5t4.5 3.5q9 0 29.5 -0.5t31.5 -0.5q210 0 272 2z" />
    <glyph glyph-name="emdash" unicode="&#x2014;" horiz-adv-x="1000" 
d="M742 143q9 1 9 -7q0 -9 -10 -8q-9 0 -28 0.5t-31 0.5q-36 0 -228.5 -1t-229.5 -1h-35q-8 0 -7 9q2 7 9 6q14 0 48 -0.5t52 -0.5q347 0 451 2z" />
    <glyph glyph-name="quoteleft" unicode="&#x2018;" horiz-adv-x="210" 
d="M275 443q-87 -85 -87 -150q0 -31 16 -44q4 -3 4 -6t-11 -16.5t-16 -13.5q-3 0 -7.5 4.5t-9 16.5t-4.5 29q0 75 107 186q3 1 5.5 -1t2.5 -5z" />
    <glyph glyph-name="quoteright" unicode="&#x2019;" horiz-adv-x="210" 
d="M268 409q0 -75 -107 -186q-3 -1 -5.5 1t-2.5 5q87 85 87 150q0 31 -16 44q-4 3 -4 6t11 16.5t16 13.5q3 0 7.5 -4.5t9 -16.5t4.5 -29z" />
    <glyph glyph-name="quotesinglbase" unicode="&#x201a;" horiz-adv-x="210" 
d="M151 90q0 -75 -107 -186q-3 -1 -5.5 1t-2.5 5q87 85 87 150q0 31 -16 44q-4 3 -4 6t11 16.5t16 13.5q3 0 7.5 -4.5t9 -16.5t4.5 -29z" />
    <glyph glyph-name="quotedblleft" unicode="&#x201c;" horiz-adv-x="273" 
d="M348 443q-87 -85 -87 -150q0 -31 16 -44q4 -3 4 -6t-11 -16.5t-16 -13.5q-3 0 -7.5 4.5t-9 16.5t-4.5 29q0 75 107 186q3 1 5.5 -1t2.5 -5zM265 443q-87 -85 -87 -150q0 -31 16 -44q4 -3 4 -6t-11 -16.5t-16 -13.5q-3 0 -7.5 4.5t-9 16.5t-4.5 29q0 75 107 186
q3 1 5.5 -1t2.5 -5z" />
    <glyph glyph-name="quotedblright" unicode="&#x201d;" horiz-adv-x="273" 
d="M341 409q0 -75 -107 -186q-3 -1 -5.5 1t-2.5 5q87 85 87 150q0 31 -16 44q-4 3 -4 6t11 16.5t16 13.5q3 0 7.5 -4.5t9 -16.5t4.5 -29zM258 409q0 -75 -107 -186q-3 -1 -5.5 1t-2.5 5q87 85 87 150q0 31 -16 44q-4 3 -4 6t11 16.5t16 13.5q3 0 7.5 -4.5t9 -16.5t4.5 -29z
" />
    <glyph glyph-name="quotedblbase" unicode="&#x201e;" horiz-adv-x="293" 
d="M234 90q0 -75 -107 -186q-3 -1 -5.5 1t-2.5 5q87 85 87 150q0 31 -16 44q-4 3 -4 6t11 16.5t16 13.5q3 0 7.5 -4.5t9 -16.5t4.5 -29zM151 90q0 -75 -107 -186q-3 -1 -5.5 1t-2.5 5q87 85 87 150q0 31 -16 44q-4 3 -4 6t11 16.5t16 13.5q3 0 7.5 -4.5t9 -16.5t4.5 -29z
" />
    <glyph glyph-name="dagger" unicode="&#x2020;" horiz-adv-x="265" 
d="M92 276q31 -13 82 -13h10q15 27 30.5 59l25.5 54l17.5 40t8.5 19q8 15 18 15q17 0 17 -19q0 -11 -10 -24q-55 -81 -92 -144l85 6q19 0 19 -12q0 -6 -4.5 -16.5t-11.5 -10.5q-4 0 -6 1q-34 16 -89 20q-77 -138 -126 -258q-8 -19 -18 -25q-16 -9 -23 -9q-4 0 -9.5 11
t-5.5 18q0 9 8 20q9 15 68 100.5t91 142.5q-51 0 -85 -12q-9 -3 -18 -3q-18 0 -18 13q0 8 8.5 18t19.5 10q5 0 8 -1z" />
    <glyph glyph-name="daggerdbl" unicode="&#x2021;" horiz-adv-x="265" 
d="M226 251q-53 0 -84 -9q-9 -3 -18 -3q-18 0 -18 10q0 8 8.5 18t19.5 10q5 0 8 -1q31 -13 82 -13h10q15 27 30.5 59l25.5 54l17.5 40t8.5 19q8 15 18 15q17 0 17 -19q0 -11 -10 -24q-55 -81 -92 -144l85 6q19 0 19 -12q0 -6 -4.5 -16.5t-11.5 -10.5q-4 0 -6 1
q-35 16 -91 19q-17 -24 -48 -80q13 0 28 1.5t32.5 3t25.5 2.5q2 0 6.5 0.5t7.5 0.5q9 0 15 -3q5 -3 5 -11q0 -6 -2 -10q-2 -5 -3 -7t-2 -3q-3 -7 -12 -7q-3 0 -9 2q-51 18 -99 18q-8 -14 -11 -21q-14 -28 -59 -143q-8 -19 -19 -25q-2 -1 -8.5 -4t-9.5 -4q-2 -1 -4 -1
q-4 0 -8 7q-6 12 -7 20v2q0 9 8 20l44.5 62.5t50.5 72.5l9 14q-15 0 -41.5 -4t-32.5 -6q-9 -3 -18 -3q-23 0 -23 10q0 6 9 16.5t20 10.5q2 0 6 -0.5t5 -0.5q6 -1 21.5 -3t21.5 -3q7 -1 40 -4q32 52 47 81z" />
    <glyph glyph-name="bullet" unicode="&#x2022;" horiz-adv-x="500" 
d="M260 221q0 -33 22.5 -55.5t55.5 -22.5t55.5 22.5t22.5 55.5t-22.5 55.5t-55.5 22.5t-55.5 -22.5t-22.5 -55.5z" />
    <glyph glyph-name="ellipsis" unicode="&#x2026;" horiz-adv-x="579" 
d="M152 44q0 -12 -15 -30.5t-30 -18.5q-18 0 -18 16q0 19 13.5 34.5t30.5 15.5q19 0 19 -17zM326 44q0 -12 -15 -30.5t-30 -18.5q-18 0 -18 16q0 19 13.5 34.5t30.5 15.5q19 0 19 -17zM506 44q0 -12 -15 -30.5t-30 -18.5q-18 0 -18 16q0 19 13.5 34.5t30.5 15.5q19 0 19 -17
z" />
    <glyph glyph-name="perthousand" unicode="&#x2030;" horiz-adv-x="809" 
d="M808 184q-9 -1 -32.5 -3t-33.5 -3t-7 -7q3 -5 3 -18q0 -51 -41.5 -102.5t-88.5 -51.5q-37 0 -37 39q0 36 30.5 83t67.5 64q-105 -3 -117 -3q-10 -1 -7 -7q3 -4 3 -22q0 -51 -41.5 -102.5t-88.5 -51.5q-37 0 -37 39q0 57 62 117q-74 -40 -173 -110.5t-173 -136.5
q-2 0 -2 2q0 12 -7 19q0 2 6 10q148 137 241.5 237.5t124 146.5t30.5 68q0 17 -10.5 23t-32.5 6q-24 0 -73.5 -8l-55.5 -9q-10 0 -15 5q-23 -12 -50.5 -53.5t-27.5 -86.5q0 -28 20 -28q33 0 62.5 40.5t29.5 95.5q0 16 -6 20q0 5 4 5q5 -3 19 -6q12 -4 12 -27q0 -37 -43 -88
t-90 -51q-40 0 -40 37t28 82t80 63q-1 7 -1 31q0 3 3 3t4 -3q6 -8 18 -8q5 0 53.5 6t67.5 6q30 0 45 -8.5t15 -31.5t-20.5 -58.5t-99.5 -128t-220 -239.5q219 158 317 205q2 0 3 -2.5t-1 -3.5q-30 -12 -51 -57t-21 -78t23 -33q26 0 54 38t28 95q0 32 -21 40q-4 2 -4 5t4 5
q11 5 19 10q0 1 3 1q4 0 7 -3q59 -19 161 -8q11 5 19 10q0 1 3 1q4 0 7 -3q19 -13 92 -13q3 0 0 -5zM708 144q0 32 -21 40q-31 -3 -57.5 -49.5t-26.5 -90.5q0 -33 23 -33q26 0 54 38t28 95z" />
    <glyph glyph-name="guilsinglleft" unicode="&#x2039;" horiz-adv-x="275" 
d="M299 228q0 -3 -6 -7q-27 -16 -135 -104q-5 -4 -5 -10q0 -17 39 -117q0 -1 1 -3t1 -3q0 -3 -3 -3q-2 0 -14 -3t-15 -3t-5 8q-8 33 -16.5 61.5l-12.5 41t-4 13.5q0 4 8 10q59 44 157 124q3 3 5 3q5 0 5 -8z" />
    <glyph glyph-name="guilsinglright" unicode="&#x203a;" horiz-adv-x="275" 
d="M257 114q0 -6 -4 -9q-79 -59 -143 -127q-8 -8 -16 -8t-8 5q0 3 6 8q64 49 127 107q8 6 8 12q0 4 -4 9q-66 95 -66 106q0 5 11 8t17 3q5 0 9 -7q36 -66 61 -101q2 -4 2 -6z" />
    <glyph glyph-name="fraction" unicode="&#x2044;" horiz-adv-x="100" 
d="M370 468q-248 -245 -486 -520q-10 -11 -25 -11q-9 0 -9 5l491 525q5 6 15 6q14 0 14 -5z" />
    <glyph glyph-name="Euro" unicode="&#x20ac;" horiz-adv-x="487" 
d="M597 382l-32 -39h-4q-5 45 -29.5 70.5t-65.5 25.5q-60 0 -119 -45t-104 -124q58 0 124 3.5t72 3.5q7 0 7 -4q0 -1 -3 -3.5t-7.5 -5t-7.5 -2.5q-20 0 -101 -0.5t-90 -0.5q-15 -24 -25 -49q58 0 124.5 3.5t72.5 3.5q7 0 7 -4q0 -1 -3 -3.5t-7.5 -5t-7.5 -2.5
q-20 0 -101 -0.5t-89 -0.5q-25 -58 -25 -109q0 -89 100 -89q99 0 178 83q5 0 5 -5q0 -8 -4 -14q-34 -31 -84 -52t-102 -21q-67 0 -103.5 21t-36.5 84q0 47 21 101q-13 0 -33.5 -1t-36.5 -2.5t-17 -1.5q-6 0 -6 2q0 4 6.5 7.5t11.5 3.5q60 0 79 1q12 27 25 50q-13 0 -34 -1.5
t-36.5 -2.5t-16.5 -1q-8 0 -8 2q0 1 3 3.5t7.5 5t7.5 2.5q60 0 82 1q49 78 123 127.5t153 49.5q110 0 130 -65z" />
    <glyph glyph-name="afii61289" unicode="&#x2113;" horiz-adv-x="203" 
d="M523 652q0 -22 -25 -71t-66.5 -108t-108 -121t-138.5 -101q-2 -3 -13 -21.5t-17 -29.5l-17.5 -31.5t-18.5 -35.5l-14.5 -32.5t-11 -32t-3.5 -25.5q0 -32 29 -32q77 0 186 131q8 8 8 2q0 -3 -3 -6q-45 -56 -102 -99t-110 -43q-49 0 -49 43q0 14 9.5 38.5t27 56l32 55.5
l34 55.5l22.5 36.5q88 152 137 228q38 59 81 95q36 30 68 48t45 18q18 0 18 -18zM478 626q0 16 -13 16q-11 0 -27.5 -16.5t-56.5 -69.5q-36 -47 -188 -292q115 64 200 178t85 184z" />
    <glyph glyph-name="trademark" unicode="&#x2122;" horiz-adv-x="500" 
d="M175 427q19 -1 82 -1q54 0 81 2l-7 -15q-17 3 -64 3q-41 -68 -92 -186h-33q45 73 98 185q-38 0 -74 -4zM385 402q-102 -127 -126 -172h-23l153 193l24 6q-11 -66 -14 -166q82 89 139 163l23 5q-10 -29 -24.5 -99t-18.5 -102h-30q13 40 39 165q-75 -83 -133 -158l-21 -7
q2 7 12 172z" />
    <glyph glyph-name="Omega" unicode="&#x2126;" horiz-adv-x="600" 
d="M337 3l10 21q1 3 10 3q85 9 147.5 90.5t62.5 179.5q0 58 -32.5 98.5t-112.5 40.5q-122 0 -188 -83.5t-66 -197.5q0 -107 78 -132q-2 -5 -13 -21q-2 -3 -10 -3q-4 0 -50 1t-57 1q-30 0 -43 -38q-4 0 -4 5q19 55 46 65q7 0 42.5 -2t46.5 -2q14 0 3 7q-74 59 -74 146
q0 45 17 89.5t50.5 83.5t91 63.5t130.5 24.5q188 0 188 -147q0 -81 -56.5 -154.5t-151.5 -111.5q-7 -4 0 -6q66 0 92 1q35 1 54 45q2 5 4.5 4.5t3.5 -4.5q-17 -40 -42 -67q-9 -10 -36 -10q-14 0 -70 3.5t-68 3.5q-3 0 -3 3z" />
    <glyph glyph-name="estimated" unicode="&#x212e;" horiz-adv-x="600" 
d="M157 259h404q0 122 -72 199t-187 77q-116 0 -187 -78.5t-71 -197.5q0 -118 71.5 -197t186.5 -79q78 0 130 31t98 104l-35 21q-38 -63 -84 -91.5t-109 -28.5q-86 0 -145 59v181zM448 295h-291v145q60 60 144 60t147 -60v-145z" />
    <glyph glyph-name="partialdiff" unicode="&#x2202;" horiz-adv-x="400" 
d="M299 215q-57 -6 -104 -65t-47 -111q0 -39 33 -39q53 0 113.5 90t60.5 214q0 21 -6.5 48.5t-26.5 55t-49 27.5q-30 0 -45.5 -17.5t-15.5 -40.5q0 -15 3 -20q3 -4 -3 -4q-2 0 -4 1q-19 11 -19 19q0 25 23 46.5t65 21.5q55 0 81 -41t26 -98q0 -75 -35 -148.5t-83.5 -117
t-91.5 -43.5q-58 0 -58 52q0 54 56.5 111.5t124.5 62.5q14 0 2 -4z" />
    <glyph glyph-name="Delta" unicode="&#x2206;" horiz-adv-x="600" 
d="M458 28q11 141 46 351q1 7 -1.5 8.5t-6.5 -3.5q-235 -224 -346 -345q-5 -7 6 -7q204 -4 302 -4zM96 -1l3 11l213.5 211l158.5 154q17 17 32 37l39 30q4 2 5.5 0.5t1.5 -8.5q-16 -81 -35.5 -240.5t-19.5 -193.5q0 -4 -4 -4q-20 1 -82 3q-31 1 -86 1q-174 0 -223 -4
q-3 0 -3 3z" />
    <glyph glyph-name="product" unicode="&#x220f;" horiz-adv-x="600" 
d="M290 434q190 -5 353 -5q58 0 82 8q6 2 6 -1q-23 -20 -45 -24l-8 -1q-262 -455 -262 -492q0 -9 16 -9q15 0 37 6q8 0 4 -5l-4 -2q-72 -18 -96 -18q-16 0 -19 8q0 12 12 34q132 220 271 480q-114 6 -253 2q-39 -59 -139.5 -240.5t-144.5 -271.5q-1 -5 -8 -5q-24 0 -48 -11
q-4 0 -4 5q152 251 268 461q24 44 24 54q0 17 -43 20q-4 0 -5 3q1 3 6 4z" />
    <glyph glyph-name="summation" unicode="&#x2211;" horiz-adv-x="600" 
d="M49 -106l26 37q39 35 126.5 122.5t116.5 118.5q-35 121 -81 244q-2 6 -2 8q23 5 33 11q26 -4 105 -4q29 0 86.5 2.5t61.5 2.5q14 0 14 -6q0 -23 -15 -78q-4 -7 -5 1q0 33 -6.5 45.5t-29.5 14.5q-37 5 -197 5q8 -29 22 -71.5l28.5 -86.5t18.5 -57q3 -9 3 -14
q-152 -148 -239 -244q-12 -12 11 -12q269 0 314 7q29 6 57 61q6 6 6 -4q-16 -29 -57 -93q-6 -9 -15 -9q-98 5 -277 5q-74 0 -87 -1q-9 -3 -13 -10q-2 -1 -3.5 0.5t-1.5 4.5z" />
    <glyph glyph-name="minus" unicode="&#x2212;" horiz-adv-x="400" 
d="M374 149l-12 -23q-158 6 -227 2l12 24q177 -6 227 -3z" />
    <glyph glyph-name="uni2215" unicode="&#x2215;" horiz-adv-x="100" 
d="M370 468q-248 -245 -486 -520q-10 -11 -25 -11q-9 0 -9 5l491 525q5 6 15 6q14 0 14 -5z" />
    <glyph glyph-name="uni2219" unicode="&#x2219;" horiz-adv-x="220" 
d="M201 205q0 -12 -15 -30.5t-30 -18.5q-18 0 -18 16q0 19 13.5 34.5t30.5 15.5q19 0 19 -17z" />
    <glyph glyph-name="radical" unicode="&#x221a;" horiz-adv-x="500" 
d="M442 387q-59 -49 -131.5 -165t-124.5 -234l-17 -2q-11 82 -20 105l-24 -17l-3 8l46 42l6 -1q7 -48 19 -90q47 109 116 219.5t103 142.5z" />
    <glyph glyph-name="infinity" unicode="&#x221e;" horiz-adv-x="500" 
d="M425 123q0 -40 -26 -67.5t-70 -27.5q-20 0 -37 10q-28 19 -45 51q-29 -25 -52 -41q-33 -23 -67 -23q-29 0 -46 15t-17 40q0 35 26 67.5t71 32.5q23 0 39 -11q26 -18 44 -52q25 23 49 40q30 21 62 21q31 0 50 -16t19 -39zM407 122q0 18 -12 31t-34 13q-18 0 -36 -11
q-28 -17 -68 -57q11 -25 29.5 -41.5t39.5 -16.5q35 0 58 26.5t23 55.5zM235 109q-34 58 -71 58q-38 0 -57.5 -28t-19.5 -61q0 -18 10.5 -29.5t30.5 -11.5t41 15q30 21 66 57z" />
    <glyph glyph-name="integral" unicode="&#x222b;" horiz-adv-x="400" 
d="M486 427q0 -24 -24 -24q-4 0 -12 11t-23 11q-16 0 -36 -33q-17 -29 -51.5 -105l-39.5 -87q-99 -203 -147 -258q-32 -36 -69 -36q-9 0 -15.5 6t-6.5 15t7.5 16t16.5 7t20 -8t17 -8q14 0 26 16q23 30 70.5 144t51.5 123q14 29 32 61t45.5 75.5t57 71t52.5 27.5q28 0 28 -25
z" />
    <glyph glyph-name="approxequal" unicode="&#x2248;" horiz-adv-x="400" 
d="M378 167q-30 -34 -75 -34q-19 0 -55 13q-28 12 -47 12q-26 0 -54 -18l-2 18q29 22 66 22q19 0 48 -11q37 -14 55 -14q29 0 56 27zM352 91q-34 -29 -72 -29q-16 0 -60 16q-27 10 -46 10q-29 0 -56 -24l-3 18q28 28 68 28q25 0 48 -9q37 -16 57 -16q35 0 57 22z" />
    <glyph glyph-name="notequal" unicode="&#x2260;" horiz-adv-x="400" 
d="M382 173l-13 -23q-46 2 -86 2l-53 -52q72 -3 121 0l-12 -23q-23 1 -128 3q-33 -32 -71 -74l-28 11q50 45 68 63q-63 0 -80 -1l18 24q28 -2 83 -2l53 53q-86 0 -109 -2l13 24q11 -1 116 -3q54 54 66 67l28 -6q-13 -11 -65 -61q45 -2 79 0z" />
    <glyph glyph-name="lessequal" unicode="&#x2264;" horiz-adv-x="400" 
d="M398 179q-129 -26 -226 -53q92 -35 171 -74l-18 -17q-26 17 -93.5 46.5t-102.5 39.5l7 12q77 23 243 64zM336 25l-12 -23q-141 7 -237 3l15 24q87 -8 234 -4z" />
    <glyph glyph-name="greaterequal" unicode="&#x2265;" horiz-adv-x="400" 
d="M392 142l-4 -14q-5 -1 -54.5 -17.5l-115 -39t-100.5 -36.5l2 25q60 22 230 76q-29 6 -176 57l10 22q113 -49 208 -73zM337 18l-9 -22q-13 1 -45 3q-36 2 -60 2q-75 0 -121 -5l13 23q21 1 90 1q82 0 132 -2z" />
    <glyph glyph-name="lozenge" unicode="&#x25ca;" horiz-adv-x="400" 
d="M311 126l-152 -120h-18l-40 122l154 117h23zM284 131l-26 90l-128 -96l28 -94z" />
    <glyph glyph-name="uniF8FF" unicode="&#xf8ff;" horiz-adv-x="512" 
d="M512 718h-512v-718h512v718zM462 50h-412v617h412v-617zM225 234h46q0 52 6 72q6 19 43 52q37 34 50 60t13 60q0 59 -35 95t-89 36q-56 0 -92 -34t-43 -103l50 -8q11 95 82 95q31 0 53.5 -24.5t22.5 -60.5q0 -20 -9.5 -37t-40.5 -46q-31 -31 -46 -59q-13 -25 -13 -81z
M222 117h56v67h-56v-67z" />
    <glyph glyph-name="dotlessj" horiz-adv-x="195" 
d="M283 126q0 -52 -59 -106q-54 -51 -147.5 -128l-135.5 -114q-26 -23 -60 -68t-72 -79q-2 -2 -6 -2q-10 0 -10 24q0 10 4 15q19 27 64.5 64.5t69.5 80.5q78 140 180 360q4 10 4 14q0 9 -8 9q-1 0 -7 -1.5l-14 -3.5t-14 -2q-2 0 -3.5 2t0 4t4.5 3q25 4 44 10.5t28 10t14 3.5
q10 0 10 -11q0 -6 -4 -14q-15 -27 -55 -106t-67 -126l-111 -180q10 9 90 72t135.5 115.5t89.5 102.5q24 35 24 65q0 14 -6 22q-3 6 0 6q2 0 5 -2q13 -10 13 -40z" />
    <glyph glyph-name="grave.cap" 
d="M151 489q0 -2 -1.5 -2.5t-3.5 1.5l-49 93q-3 6 -3 11q0 3 4 9t6 6q3 0 4 -4q40 -101 43 -114z" />
    <glyph glyph-name="acute.cap" 
d="M197 603q0 -2 -3 -5q-79 -60 -160 -115q-6 -4 -7 0q-1 1 1 2l156 126q4 2 5 2q2 0 5 -3.5t3 -6.5z" />
    <glyph glyph-name="circumflex.cap" 
d="M180 405q0 -12 -4 -15l-16 -12q-3 0 -3 7q0 9 -3 90q0 6 -4 6q-2 0 -5 -3q-37 -33 -77 -78q-9 -11 -13 -11t-4 5q0 6 9 13q31 27 74 70q21 21 32 28q4 2 5 2q4 0 4 -5q0 -18 2.5 -51.5t2.5 -45.5z" />
    <glyph glyph-name="caron.cap" 
d="M193 486q0 -6 -8 -12q-31 -26 -75 -70q-29 -29 -36 -29q-5 0 -5 5q0 8 -3.5 48t-3.5 51q0 8 5 12q1 0 5 3.5t8 6t5 2.5q3 0 3 -7q0 -19 1 -53t1 -37q0 -6 4 -6q2 0 5 3q38 32 76 78q9 12 13 12q5 0 5 -7z" />
    <glyph glyph-name="caron.alt" 
d="M193 561q0 16 -5.5 27.5t-11.5 11.5q-4 0 -18 -6q-8 -4 -8 -8q0 -2 9 -16t9 -29q0 -24 -19 -48t-44 -39q-4 -3 -3 -4.5t5 -0.5q32 19 59 50t27 62z" />
    <glyph glyph-name="tilde.cap" 
d="M225 557q-3 -24 -20.5 -43t-39.5 -19q-20 0 -48.5 27.5t-41.5 27.5q-24 0 -58 -46q-5 -7 -8.5 -5t2.5 11q22 28 52 50q13 10 26 10q14 0 42 -28.5t47 -28.5q16 0 27 13.5t11 30.5q0 5 4.5 7t4.5 -7z" />
    <glyph glyph-name="dieresis.cap" 
d="M176 548q0 -12 -11 -24t-23 -12t-12 12q0 13 10 25t23 12t13 -13zM104 554q0 -12 -11 -24t-23 -12t-12 12q0 13 10 25t23 12t13 -13z" />
    <glyph glyph-name="macron.cap" 
d="M169 535l-3 -15l-88 -2l5 15z" />
    <glyph glyph-name="breve.cap" 
d="M185 567q0 -1 -8 -13q-33 -42 -75 -42q-22 0 -35.5 13.5t-13.5 36.5q0 14 18 14q4 0 4 -6q0 -44 39 -44q34 0 55 35q8 12 11 12q5 0 5 -6z" />
    <glyph glyph-name="ring.cap" horiz-adv-x="276" 
d="M180 562q0 -27 -19.5 -47.5t-52.5 -20.5q-22 0 -35 11.5t-13 31.5q0 24 18.5 46t52.5 22q49 0 49 -43zM166 560q0 39 -36 39q-27 0 -41.5 -17.5t-14.5 -42.5q0 -18 11 -28.5t27 -10.5q25 0 39.5 19t14.5 41z" />
    <glyph glyph-name="hungarumlaut.cap" 
d="M191 366q0 -4 -6 -11q-46 -48 -74 -73q-3 -2 -4 -2q-2 2 1 5q4 7 68 92q3 3 6 3q9 0 9 -14zM130 368q0 -6 -7 -13l-74 -75q-2 -2 -3.5 -0.5t0.5 3.5q9 15 21 31l27.5 35t23.5 30q2 3 5 3q7 0 7 -14z" />
    <glyph glyph-name="dotaccent.cap" 
d="M136 542q0 -11 -10 -20.5t-21 -9.5q-16 0 -16 18q0 12 8 20t20 8q19 0 19 -16z" />
    <glyph glyph-name="commaaccent" 
d="M152 -64q0 16 -5.5 27.5t-11.5 11.5q-2 0 -16 -12q-10 -9 -10 -12q0 -2 6 -12.5t6 -23.5q0 -24 -17.5 -46.5t-42.5 -37.5q-4 -3 -2 -6t7 -1q32 19 59 50t27 62z" />
    <glyph glyph-name="commaaccent.alt" 
d="M176 347q0 -16 5.5 -27.5t11.5 -11.5q2 0 16 12q10 9 10 12q0 2 -6 12.5t-6 23.5q0 24 17.5 46.5t42.5 37.5q4 3 2 6t-7 1q-32 -19 -59 -50t-27 -62z" />
  </font>
</defs>
</svg>
