<?xml version="1.0" encoding="utf-8"?>
<!-- Generator: Adobe Illustrator 22.1.0, SVG Export Plug-In . SVG Version: 6.00 Build 0)  -->
<svg version="1.1" id="Calque_1" xmlns="http://www.w3.org/2000/svg" xmlns:xlink="http://www.w3.org/1999/xlink" x="0px" y="0px"
	 viewBox="0 0 286 972" style="enable-background:new 0 0 286 972;" xml:space="preserve">
<style type="text/css">
	.st0{fill:#FFFFFF;}
</style>
<g>
	<path class="st0" d="M249.8,18.8c1.3,0.8,3.4-0.8,4.3,1.3c-25.5,58.8-47.7,119-71,178.7c-20.9,53.6-46.3,105.1-72.3,156.4
		c-22.9,45.4-43.2,91.9-59.4,140.1c-2.6,7.8-4.6,15.6-6.5,23.6c-0.4,4.7,0.3,9.3,1.2,13.9c6.6,2.6,12.1-0.6,17.4-3.5
		c6.3-3.4,12-7.8,17.7-12.1c23.5-17.9,47.6-34.7,73.2-49.3c1.4-0.8,2.9-1.7,4.1-2.8c19.2-9.6,38-20.1,58.9-26
		c2.7-0.8,5.6-0.6,8.4-1.1c1.7-0.6,3.4,0.5,5.2,0.1c5-0.5,9.7-0.4,11.1,5.9c0.8,3.6,1.7,7.2,1.2,10.9c-2.2,8.2-5.2,16.1-8.3,24
		c-0.6,1-1.5,1.8-2.2,2.8c-1.2,1.5-1.5,3.4-2.2,5.1c-10.3,22.7-20.9,45.3-29.8,68.6c-10.1,26.4-18.9,53.3-27.3,80.3
		c-5.3,17-10.2,34.1-15.4,51.1c-1.1,3.3-1.8,6.6-3,9.8c-0.4,1.1-0.8,2.2-1.2,3.3c-0.4,1-0.7,2.1-1.1,3.1c-0.4,1-0.7,2.1-1,3.1
		c-0.4,1.1-0.7,2.2-1,3.3c-0.6,1.9-1,3.8-1.5,5.6c-3.3,13.4-7.2,26.7-11.8,39.7c-1.1,3.2-2.4,6.2-3.3,9.5
		c-20.5,61.6-39.3,123.6-58.5,185.6c-0.5,1.5-0.9,3.1-1.6,5.4c6.7-3,12.2-6.2,17.5-9.8c5.8-3.9,11.6-7.7,17.4-11.7
		c2.7-1.8,5.6-3,8.7-3.5c2.6-0.4,5.2-0.3,6.4,2.5c1.2,2.9-0.4,4.8-2.6,6.3c-1.2,0.8-2.5,1.6-3.8,2.4c-13.6,7.7-27.2,15.4-40.9,23
		c-2.5,1.4-4.5,3.3-6.6,5.2c-4.7,4.1-9,3.3-11.3-2.3c-5.2-12.4-7.2-25.6-9.8-38.6c-1.1-5.7-2.2-11.4-3.3-17.1
		c-0.4-2.5-0.2-5,2.7-5.6c2.9-0.6,3.8,1.5,4.7,4c4,11.8,7.2,23.8,11.4,35.8c0.5-1.6,1-3.2,1.4-4.8c-0.1-3.5,0.5-6.9,1.8-10.2
		c7.6-19.7,12.5-40.4,19-60.5c4.5-13.9,9.2-27.8,14-41.5c28.8-81.5,50.9-165.1,79.1-246.7c13.2-38.2,29.6-74.9,48.7-110.5
		c3.1-5.9,6.3-11.8,7.8-18.3c1.8-8.1,0.1-9.8-7.8-7.8c-18,4.6-34.6,12.8-51,21.3c-35.6,18.2-67.8,41.6-99.6,65.5
		c-7.9,5.9-16.3,11-26.3,12.5c-9.2,1.4-13.2-0.2-17.6-7.6c-1.4-1.6-1.2-3.6-1.5-5.5c0-0.5,0-1,0.1-1.5c0.4-2.5,0.2-5,0.2-7.5
		c1.2-10.3,2.6-20.7,6.7-30.3c0.2-0.5,0.4-0.9,0.6-1.4c1.4-2.8,2.1-5.9,3.2-8.9c1.3-2.6,2.1-5.3,2.9-8c0.6-1.8,0.9-3.7,1.9-5.4
		c1.4-2.3,1.5-5,2.2-7.6c2.6-7.1,7-13.5,8.5-21.1c5.3-11.6,10.3-23.4,15.5-35.2c18.7-42.2,40.5-82.8,60.6-124.4
		c17.4-36,32.8-72.8,46.9-110.2c0.4-1.1,0.8-2.2,1.3-3.2c2.7-3.9,2.2-9.3,6-12.8c7.4-19.2,14.8-38.4,22.4-57.6
		c9.6-24.3,19.9-48.3,30.4-72.2C243.5,20.4,245.5,18.3,249.8,18.8z"/>
	<path class="st0" d="M33,530.9c1.1,1.9,1,4,1,6.1c-1.9,1.1-3.7,2.3-5.7,3.2c-2.1,0.9-4,4-6.6,1.5c-2.3-2.3-4.4-4.5-3.2-8.9
		c5.1-18.8,12.8-36.8,19.5-55c18.1-48.4,34.6-97.5,53.8-145.5c12.8-31.9,28.9-62.1,46.1-91.8c16.4-28.2,30.9-57.4,44-87.3
		c0.4-0.9,0.7-1.9,1.2-2.7c0.8-1.4,1.6-3.2,3.7-2.6c2.1,0.7,0.7,2.6,1,3.9c-0.4,4.5-2.5,8.5-3.9,12.6c-15.7,34.6-33.7,68-52.6,101
		c-17.9,31.3-32.4,64.2-44.8,98c-8.5,23.1-16.6,46.4-25.1,69.5c-0.5,1.4-1.3,2.7-1.8,4.1c-2.4,7.9-5.6,15.4-8.8,23
		c-0.9,2.2-1,4.8-2.1,7c-1,1.9-1.8,3.9-2.2,6c-1.2,2.8-1.8,5.9-3.2,8.7c-1,3.1-2.8,5.9-2.5,9.3c0.1,0.3,0.1,0.6-0.1,0.9
		c-2.3,1-2.6,3.3-3.2,5.3c-4,11.9-8.6,23.6-12.1,35.9C28.3,532.7,30.1,529.9,33,530.9z"/>
	<path class="st0" d="M234,478.4c2.7-7.5,5.4-15,8-22.5c0.8-1.4,0.9-2.9,1-4.4c0.1-1.5,0.8-2.6,1.9-3.5c1.6-4,3.1-8.1,4.7-12.1
		c0.5-1.4,2.5-8.5,4.4-7.9c2.2,0.7,2.5,1.4,2,3c-4.8,14.3-12.2,35.1-17,49.4c-22.8,68.4-46.2,136.7-72,204.1
		c-8.4,21.9-17.6,43.5-26.5,65.1c-0.7,1.8-1.7,3.5-2.6,5.2c-0.4,0.3-0.7,0.3-1.1-0.1c2.1-10.7,6.2-20.9,8.9-31.4
		c0.8-3.2,1.6-6.4,2.4-9.6c1.3-0.6,1.3-1.8,1.5-3c0.4-1.1,1.2-2.1,1.4-3.4c0.2-1,0.9-1.9,1-3c0.4-1.2,0.9-2.4,1.3-3.7
		c0.6-0.8,0.6-1.7,0.8-2.6c0.9-2.7,2.2-5.3,2.9-8.1c15-36.6,27.8-74.1,41.1-111.4c10.8-30.2,21.4-60.5,31.7-90.9
		c1.3-1.9,1.5-4.2,2.5-6.2C233.1,480.7,233.6,479.6,234,478.4z"/>
	<path class="st0" d="M226,439c-20.8,3.5-39.3,12.8-57.4,23.1c-3,1.7-6.3,2.6-9.5,3.9c-17.2,5.8-31.8,16.5-46.9,26.1
		c-19.5,12.4-39.7,23.7-59.6,35.4c-3.3,1.9-6.1,3.9-7.5,7.5c-2.2-5.3-1.4-10.6-0.1-16c0.1,1.3,0.2,2.5,0.3,4.4
		c17.7-10.4,35.1-20.6,52.4-30.8c13.7-8.1,26.5-17.8,40.6-25.4c10-5.4,20.8-8.9,31.6-12.2c11.3-3.5,22.5-7.4,32.5-13.7
		c6.6-4.1,13.9-6.1,21.1-8.5c1.7-0.6,2.9-1.8,4.8-2.5c16.8-6.2,24-3.2,25.8-2.2c1.8,0.9,5,4-1,5C252.1,434.4,227,437.8,226,439z"/>
	<path class="st0" d="M243.9,451.9c0,1.7-0.7,3-1.9,4c0-4,0-8,0-12c1,0.8,0.8,2,1.1,3C244.4,448.4,242.9,450.3,243.9,451.9z"/>
	<path class="st0" d="M136.8,754.8c0.4,0,0.7,0,1.1,0.1c-0.7,3.3-1.9,6.4-3.8,9.2C134.1,760.7,135.5,757.8,136.8,754.8z"/>
	<path class="st0" d="M226,439c0.8-1.7,2.1-2.3,3.9-2.1c0.4,0.4,0.7,0.7,1.1,1.1C229.5,439.3,227.7,438.9,226,439z"/>
	<path class="st0" d="M243.9,451.9c-1.6-1.5-0.7-3.3-0.7-5c0.6,0.3,1.2,0.7,1.8,1C244.6,449.3,244.3,450.6,243.9,451.9z"/>
	<path class="st0" d="M59,436.9c0.2,1.1-0.2,2.3,1,3c-1.8,7.6-5.2,14.5-8.8,21.3c-0.6-0.2-0.7-0.9-1.1-1.3
		C53,452.3,56,444.6,59,436.9z"/>
	<path class="st0" d="M156.9,686.8c0.5,1.3-0.5,2.9,0.9,4c0,3-2.2,5.3-3,8c-1.9,0-1.4-1.1-1-2.1
		C154.1,693.2,155.6,690.1,156.9,686.8z"/>
	<path class="st0" d="M41,491.1c-2.8-3.7,0.9-6.2,1.6-9.2c0.5-0.4,0.9-0.4,1.3,0.1C43.7,485.2,42.4,488.1,41,491.1z"/>
	<path class="st0" d="M44,481.9c-0.4,0-0.9-0.1-1.3-0.1c0.7-3.1,1.7-6.2,3.3-9c0.6,0.1,0.9,0.5,1.1,1.1
		C46.4,476.8,46,479.7,44,481.9z"/>
	<path class="st0" d="M50.1,459.9c0.4,0.4,0.7,0.9,1.1,1.3c0.7,3-0.8,5.4-2.1,7.8c-0.9-0.5-1.1-1.4-1.3-2.2
		C48.6,464.5,49.3,462.2,50.1,459.9z"/>
	<path class="st0" d="M47.8,466.8c1,0.4,1,1.4,1.3,2.2c-1.6,1.3-0.2,3.8-2,4.9c-0.4-0.4-0.7-0.7-1.1-1.1
		C46.4,470.8,46.6,468.7,47.8,466.8z"/>
	<path class="st0" d="M231,488c-0.4-0.7-0.8-1.4-1.1-2.1c0-1.9,0.8-3.5,2.1-4.9c0.6,0.1,1,0.4,1.1,1
		C232.8,484.1,232.3,486.2,231,488z"/>
	<path class="st0" d="M33,530.9c0.3-2.7-0.2-5.5,0.9-8.1C34.1,525.6,35,528.4,33,530.9z"/>
	<path class="st0" d="M154,700.9c-0.4,1.3-0.7,2.6-1.1,3.9c-2,0.1-1.3-1.1-1-2.1c0-1.1,0.2-2.1,1-2.9
		C153.5,699.9,153.9,700.3,154,700.9z"/>
	<path class="st0" d="M154,700.9c-0.4-0.4-0.7-0.8-1.1-1.2c0-1.1,0.3-2.1,1-3c0.3,0.7,0.7,1.4,1,2.1
		C154.6,699.6,154.3,700.2,154,700.9z"/>
	<path class="st0" d="M151.9,702.7c0.2,0.8,0.1,1.7,1,2.1c-0.3,1-0.7,2-1,3c-2,0.1-1.3-1.1-1-2.1
		C151.2,704.7,151.5,703.7,151.9,702.7z"/>
	<path class="st0" d="M150.9,705.7c0.1,0.8,0.1,1.6,1,2.1c-0.5,1.2-0.7,2.5-1.9,3.3c-0.6-0.8-0.5-1.6-0.2-2.4
		C150.2,707.7,150.5,706.7,150.9,705.7z"/>
	<path class="st0" d="M149.8,708.7c0.1,0.8,0.1,1.6,0.2,2.4c0.1,1.4,0,2.7-1.9,2.7C148.7,712.1,149.3,710.4,149.8,708.7z"/>
	<path class="st0" d="M233.1,482c-0.4-0.3-0.7-0.7-1.1-1c0.3-1.1,0.8-2.1,2-2.6C234.1,479.7,234.3,481,233.1,482z"/>
</g>
</svg>
